<?xml version="1.0" encoding="UTF-8" standalone="no"?><svg xmlns="http://www.w3.org/2000/svg" xmlns:xlink="http://www.w3.org/1999/xlink" data-name="Layer 1" fill="#000000" height="1205.1" preserveAspectRatio="xMidYMid meet" version="1" viewBox="-7.5 -10.7 1275.8 1205.1" width="1275.8" zoomAndPan="magnify"><g id="change1_1"><path d="M982.9,1361.58c-118.68,0-232-42.58-322.07-121.64L316,937.23C217.7,850.91,158.87,731.53,150.33,601s34.24-256.38,120.42-354.56l42-47.8a92.48,92.48,0,0,1,130.41-8.49L647.3,369.4a92.38,92.38,0,0,1,8.45,130.44L589.3,575.56a144.41,144.41,0,0,0,12.93,203.85l178,156.28C840,988.1,931.42,982.05,984,922.07l66.51-75.71A92.49,92.49,0,0,1,1181,837.88l203.77,178.94a92.41,92.41,0,0,1,8.48,130.44L1351.28,1195c-86.23,98.18-205.48,157-335.8,165.49C1004.59,1361.22,993.71,1361.58,982.9,1361.58ZM382.24,224.4c-.79,0-1.57,0-2.35.08a34.84,34.84,0,0,0-24.2,11.92l-42,47.8c-76.11,86.68-113.86,197.89-106.33,313.12S266.87,818,353.72,894.25L698.56,1197c86.76,76.21,197.92,113.67,313.17,106.52,115.12-7.54,220.44-59.44,296.57-146.17l42-47.78a35.26,35.26,0,0,0-3.21-49.76h0L1143.23,880.83a35.24,35.24,0,0,0-49.76,3.26L1027,959.81c-73.42,83.61-201.07,92-284.45,18.83l-178-156.28a201.58,201.58,0,0,1-18.19-284.51l66.48-75.71a35.25,35.25,0,0,0-3.22-49.76L405.42,233.16A34.9,34.9,0,0,0,382.24,224.4Z" fill="#ffffff" transform="translate(-149.26 -167.25)"/></g></svg>