<?xml version="1.0" encoding="UTF-8"?><svg xmlns="http://www.w3.org/2000/svg" xmlns:xlink="http://www.w3.org/1999/xlink" height="475.6" preserveAspectRatio="xMidYMid meet" version="1.0" viewBox="0.0 0.0 457.8 475.6" width="457.8" zoomAndPan="magnify"><defs><clipPath id="a"><path d="M 0 0 L 457.839844 0 L 457.839844 475.648438 L 0 475.648438 Z M 0 0"/></clipPath></defs><g><g clip-path="url(#a)" id="change1_1"><path d="M 294.683594 392.992188 C 294.414062 393.050781 294.242188 393.320312 294.304688 393.589844 C 297.070312 406.226562 299.148438 419.15625 300.484375 432.023438 C 300.511719 432.28125 300.726562 432.472656 300.980469 432.472656 C 300.996094 432.472656 301.015625 432.472656 301.03125 432.46875 C 301.304688 432.441406 301.507812 432.195312 301.476562 431.917969 C 300.140625 419.015625 298.054688 406.046875 295.28125 393.375 C 295.222656 393.105469 294.960938 392.9375 294.683594 392.992188 Z M 188.003906 403.28125 C 187.726562 403.292969 187.515625 403.527344 187.527344 403.804688 L 189.296875 439.394531 C 189.308594 439.664062 189.527344 439.871094 189.796875 439.871094 C 189.800781 439.871094 189.8125 439.871094 189.820312 439.871094 C 190.09375 439.855469 190.308594 439.621094 190.292969 439.347656 L 188.527344 403.753906 C 188.515625 403.480469 188.28125 403.257812 188.003906 403.28125 Z M 180.242188 380.226562 C 180.234375 380.226562 180.226562 380.226562 180.222656 380.226562 C 179.945312 380.238281 179.730469 380.472656 179.742188 380.746094 C 180.40625 398.011719 180.261719 415.507812 179.308594 432.75 C 179.292969 433.023438 179.503906 433.261719 179.777344 433.277344 C 179.789062 433.277344 179.796875 433.277344 179.804688 433.277344 C 180.070312 433.277344 180.289062 433.070312 180.304688 432.804688 C 181.261719 415.53125 181.40625 398.003906 180.742188 380.710938 C 180.730469 380.4375 180.507812 380.226562 180.242188 380.226562 Z M 67.472656 200.988281 C 60.742188 199.316406 53.78125 197.589844 47.855469 194.019531 C 47.617188 193.878906 47.3125 193.953125 47.167969 194.191406 C 47.027344 194.429688 47.101562 194.734375 47.339844 194.878906 C 53.394531 198.523438 60.429688 200.269531 67.230469 201.960938 C 74.820312 203.84375 82.664062 205.789062 88.980469 210.394531 C 89.070312 210.460938 89.175781 210.492188 89.277344 210.492188 C 89.429688 210.492188 89.582031 210.417969 89.679688 210.285156 C 89.84375 210.0625 89.792969 209.75 89.570312 209.585938 C 83.09375 204.867188 75.152344 202.894531 67.472656 200.988281 Z M 29.175781 217.15625 C 41.398438 219.945312 53.914062 222.003906 66.378906 223.265625 C 66.394531 223.269531 66.414062 223.269531 66.429688 223.269531 C 66.683594 223.269531 66.902344 223.078125 66.925781 222.820312 C 66.953125 222.546875 66.753906 222.300781 66.480469 222.273438 C 54.054688 221.011719 41.578125 218.960938 29.398438 216.183594 C 29.125 216.117188 28.859375 216.289062 28.800781 216.558594 C 28.738281 216.828125 28.90625 217.097656 29.175781 217.15625 Z M 130.859375 144.5 C 130.957031 144.59375 131.078125 144.636719 131.203125 144.636719 C 131.335938 144.636719 131.46875 144.585938 131.566406 144.480469 C 131.757812 144.28125 131.746094 143.964844 131.546875 143.773438 C 124.136719 136.753906 116.164062 130.1875 107.847656 124.269531 C 107.625 124.109375 107.3125 124.160156 107.148438 124.386719 C 106.988281 124.613281 107.042969 124.925781 107.265625 125.085938 C 115.546875 130.976562 123.484375 137.511719 130.859375 144.5 Z M 92.410156 113.097656 C 92.503906 113.179688 92.617188 113.21875 92.730469 113.21875 C 92.875 113.21875 93.015625 113.15625 93.113281 113.039062 C 93.292969 112.828125 93.265625 112.511719 93.054688 112.335938 C 88.972656 108.890625 85.105469 105.117188 81.554688 101.121094 C 81.371094 100.914062 81.054688 100.898438 80.847656 101.082031 C 80.640625 101.265625 80.621094 101.582031 80.804688 101.785156 C 84.386719 105.816406 88.292969 109.625 92.410156 113.097656 Z M 115.671875 159.847656 C 115.757812 159.90625 115.855469 159.933594 115.949219 159.933594 C 116.109375 159.933594 116.269531 159.855469 116.363281 159.714844 C 116.519531 159.484375 116.460938 159.171875 116.230469 159.019531 L 63.222656 123.261719 C 63 123.109375 62.683594 123.167969 62.53125 123.394531 C 62.375 123.625 62.4375 123.9375 62.664062 124.089844 Z M 42.242188 158.480469 C 51.488281 164.34375 61.289062 169.480469 71.378906 173.746094 C 71.441406 173.773438 71.507812 173.785156 71.574219 173.785156 C 71.765625 173.785156 71.953125 173.671875 72.035156 173.480469 C 72.140625 173.226562 72.023438 172.929688 71.765625 172.824219 C 61.730469 168.578125 51.976562 163.46875 42.777344 157.632812 C 42.546875 157.488281 42.234375 157.554688 42.085938 157.789062 C 41.9375 158.023438 42.007812 158.332031 42.242188 158.480469 Z M 161.066406 122.039062 C 161.164062 122.183594 161.324219 122.261719 161.484375 122.261719 C 161.578125 122.261719 161.675781 122.234375 161.761719 122.179688 C 161.992188 122.027344 162.054688 121.71875 161.902344 121.488281 L 145.761719 97.046875 C 145.609375 96.816406 145.300781 96.753906 145.070312 96.90625 C 144.839844 97.058594 144.777344 97.367188 144.929688 97.597656 Z M 135.523438 82.75 C 135.621094 82.878906 135.769531 82.945312 135.921875 82.945312 C 136.027344 82.945312 136.136719 82.910156 136.226562 82.839844 C 136.445312 82.671875 136.484375 82.359375 136.316406 82.140625 C 132.664062 77.410156 129.484375 72.289062 126.863281 66.921875 C 126.742188 66.671875 126.445312 66.570312 126.195312 66.691406 C 125.945312 66.8125 125.84375 67.113281 125.964844 67.359375 C 128.617188 72.789062 131.832031 77.96875 135.523438 82.75 Z M 159.378906 78.695312 C 159.472656 78.851562 159.636719 78.941406 159.808594 78.941406 C 159.894531 78.941406 159.984375 78.917969 160.0625 78.871094 C 160.300781 78.730469 160.378906 78.421875 160.238281 78.1875 L 148.253906 57.910156 C 148.109375 57.671875 147.804688 57.59375 147.566406 57.734375 C 147.328125 57.875 147.25 58.183594 147.390625 58.421875 Z M 313.585938 125.886719 L 302.484375 136.085938 C 302.28125 136.273438 302.265625 136.589844 302.453125 136.792969 C 302.550781 136.902344 302.6875 136.953125 302.820312 136.953125 C 302.941406 136.953125 303.0625 136.910156 303.160156 136.824219 L 314.261719 126.625 C 314.464844 126.4375 314.476562 126.121094 314.292969 125.917969 C 314.105469 125.714844 313.789062 125.699219 313.585938 125.886719 Z M 324.277344 114.992188 C 324.378906 115.097656 324.511719 115.152344 324.648438 115.152344 C 324.769531 115.152344 324.890625 115.109375 324.984375 115.023438 C 333.253906 107.488281 341.253906 99.457031 348.757812 91.152344 C 348.941406 90.949219 348.925781 90.632812 348.722656 90.449219 C 348.519531 90.261719 348.203125 90.277344 348.015625 90.484375 C 340.53125 98.761719 332.554688 106.769531 324.3125 114.285156 C 324.105469 114.46875 324.09375 114.785156 324.277344 114.992188 Z M 293.824219 125.648438 C 293.914062 125.714844 294.015625 125.746094 294.117188 125.746094 C 294.273438 125.746094 294.425781 125.675781 294.523438 125.539062 C 305.691406 110.285156 316.664062 94.570312 327.128906 78.824219 C 327.28125 78.59375 327.21875 78.285156 326.988281 78.132812 C 326.761719 77.980469 326.449219 78.039062 326.296875 78.273438 C 315.839844 94.003906 304.878906 109.710938 293.714844 124.949219 C 293.550781 125.171875 293.601562 125.484375 293.824219 125.648438 Z M 281.144531 86.613281 C 281.230469 86.671875 281.324219 86.695312 281.421875 86.695312 C 281.582031 86.695312 281.742188 86.617188 281.839844 86.472656 L 298.542969 61.257812 C 298.695312 61.027344 298.632812 60.714844 298.402344 60.5625 C 298.175781 60.414062 297.863281 60.472656 297.710938 60.703125 L 281.003906 85.921875 C 280.851562 86.152344 280.914062 86.460938 281.144531 86.613281 Z M 390.140625 182.546875 C 390.175781 182.546875 390.214844 182.542969 390.253906 182.53125 C 397.273438 180.910156 404.308594 178.964844 411.160156 176.75 C 411.425781 176.664062 411.570312 176.382812 411.484375 176.117188 C 411.398438 175.859375 411.117188 175.714844 410.855469 175.796875 C 404.027344 178.003906 397.019531 179.941406 390.027344 181.558594 C 389.757812 181.621094 389.589844 181.890625 389.652344 182.15625 C 389.707031 182.390625 389.910156 182.546875 390.140625 182.546875 Z M 344.480469 198.832031 C 344.539062 198.832031 344.601562 198.820312 344.660156 198.796875 C 355.449219 194.660156 366.484375 190.753906 377.457031 187.183594 C 377.71875 187.097656 377.863281 186.816406 377.777344 186.554688 C 377.695312 186.292969 377.414062 186.148438 377.148438 186.234375 C 366.15625 189.808594 355.105469 193.722656 344.300781 197.863281 C 344.046875 197.964844 343.914062 198.253906 344.015625 198.511719 C 344.089844 198.710938 344.28125 198.832031 344.480469 198.832031 Z M 349.039062 225.273438 C 349.023438 225.550781 349.238281 225.785156 349.511719 225.800781 L 421.839844 229.421875 C 421.847656 229.421875 421.855469 229.421875 421.863281 229.421875 C 422.128906 229.421875 422.351562 229.214844 422.363281 228.945312 C 422.378906 228.671875 422.164062 228.4375 421.890625 228.421875 L 349.5625 224.800781 C 349.261719 224.785156 349.050781 224.996094 349.039062 225.273438 Z M 360.503906 156.167969 C 360.597656 156.316406 360.761719 156.398438 360.925781 156.398438 C 361.015625 156.398438 361.109375 156.371094 361.195312 156.320312 C 369.992188 150.671875 379.136719 145.308594 388.375 140.382812 C 388.617188 140.253906 388.710938 139.949219 388.582031 139.703125 C 388.449219 139.460938 388.148438 139.367188 387.90625 139.5 C 378.644531 144.441406 369.472656 149.816406 360.652344 155.476562 C 360.421875 155.628906 360.351562 155.9375 360.503906 156.167969 Z M 346.308594 165.789062 C 346.160156 165.558594 345.851562 165.492188 345.621094 165.640625 L 331.972656 174.429688 C 331.738281 174.582031 331.671875 174.890625 331.820312 175.121094 C 331.917969 175.269531 332.078125 175.351562 332.242188 175.351562 C 332.335938 175.351562 332.429688 175.324219 332.511719 175.273438 L 346.160156 166.480469 C 346.394531 166.332031 346.460938 166.023438 346.308594 165.789062 Z M 379.8125 272.09375 C 379.742188 272.359375 379.902344 272.632812 380.171875 272.699219 C 386.363281 274.300781 392.679688 275.777344 398.9375 277.09375 C 398.96875 277.101562 399.007812 277.105469 399.039062 277.105469 C 399.269531 277.105469 399.476562 276.945312 399.527344 276.710938 C 399.585938 276.4375 399.410156 276.171875 399.140625 276.117188 C 392.898438 274.804688 386.601562 273.328125 380.421875 271.734375 C 380.152344 271.660156 379.882812 271.824219 379.8125 272.09375 Z M 352.671875 265.011719 C 352.421875 264.90625 352.125 265.023438 352.019531 265.28125 C 351.910156 265.535156 352.03125 265.828125 352.285156 265.933594 C 356.453125 267.6875 360.84375 268.816406 365.339844 269.289062 C 365.355469 269.289062 365.375 269.292969 365.390625 269.292969 C 365.644531 269.292969 365.859375 269.101562 365.886719 268.84375 C 365.917969 268.570312 365.71875 268.324219 365.445312 268.296875 C 361.046875 267.832031 356.75 266.726562 352.671875 265.011719 Z M 397.753906 314.15625 L 345.691406 288.480469 C 345.445312 288.359375 345.144531 288.457031 345.019531 288.707031 C 344.898438 288.953125 345 289.253906 345.25 289.375 L 397.308594 315.050781 C 398.902344 315.839844 400.710938 316.726562 401.800781 318.226562 C 401.894531 318.363281 402.050781 318.433594 402.203125 318.433594 C 402.304688 318.433594 402.40625 318.402344 402.496094 318.339844 C 402.71875 318.175781 402.769531 317.863281 402.605469 317.640625 C 401.371094 315.941406 399.449219 314.992188 397.753906 314.15625 Z M 364.199219 336.957031 C 363.984375 336.785156 363.671875 336.816406 363.496094 337.03125 C 363.324219 337.246094 363.355469 337.5625 363.570312 337.734375 L 381.925781 352.59375 C 382.019531 352.667969 382.132812 352.703125 382.242188 352.703125 C 382.386719 352.703125 382.53125 352.640625 382.628906 352.519531 C 382.804688 352.304688 382.769531 351.992188 382.554688 351.816406 Z M 352.21875 327.050781 C 349.046875 325.066406 346.082031 322.730469 343.40625 320.109375 C 342.796875 319.507812 342.195312 318.890625 341.59375 318.273438 C 339.90625 316.53125 338.15625 314.726562 336.109375 313.316406 C 335.882812 313.160156 335.570312 313.21875 335.414062 313.445312 C 335.257812 313.675781 335.3125 313.984375 335.542969 314.140625 C 337.507812 315.496094 339.222656 317.261719 340.878906 318.96875 C 341.484375 319.59375 342.089844 320.214844 342.707031 320.824219 C 345.433594 323.496094 348.453125 325.878906 351.691406 327.898438 C 351.773438 327.949219 351.863281 327.976562 351.953125 327.976562 C 352.121094 327.976562 352.285156 327.890625 352.378906 327.738281 C 352.523438 327.507812 352.453125 327.195312 352.21875 327.050781 Z M 331.671875 363.757812 C 331.511719 363.53125 331.195312 363.480469 330.972656 363.636719 C 330.75 363.796875 330.695312 364.109375 330.855469 364.335938 C 334.238281 369.128906 337.84375 373.867188 341.566406 378.414062 C 341.664062 378.53125 341.808594 378.597656 341.953125 378.597656 C 342.0625 378.597656 342.175781 378.558594 342.269531 378.484375 C 342.480469 378.308594 342.511719 377.992188 342.339844 377.777344 C 338.632812 373.253906 335.042969 368.535156 331.671875 363.757812 Z M 309.496094 360.359375 C 309.386719 360.105469 309.089844 359.992188 308.839844 360.105469 C 308.585938 360.21875 308.472656 360.511719 308.585938 360.765625 L 327.726562 403.980469 C 327.808594 404.167969 327.992188 404.277344 328.183594 404.277344 C 328.253906 404.277344 328.320312 404.265625 328.386719 404.234375 C 328.640625 404.125 328.753906 403.828125 328.640625 403.578125 Z M 165.789062 391.917969 C 165.535156 391.808594 165.238281 391.921875 165.132812 392.179688 C 160.3125 403.398438 155.742188 414.890625 151.542969 426.34375 C 151.449219 426.601562 151.582031 426.890625 151.84375 426.984375 C 151.898438 427.003906 151.957031 427.015625 152.011719 427.015625 C 152.21875 427.015625 152.410156 426.890625 152.484375 426.6875 C 156.675781 415.253906 161.238281 403.777344 166.050781 392.574219 C 166.160156 392.320312 166.042969 392.027344 165.789062 391.917969 Z M 132.960938 400.269531 C 132.726562 400.121094 132.417969 400.1875 132.269531 400.417969 C 129.632812 404.507812 127.484375 408.910156 125.882812 413.503906 C 125.792969 413.765625 125.929688 414.050781 126.191406 414.140625 C 126.246094 414.160156 126.300781 414.167969 126.355469 414.167969 C 126.5625 414.167969 126.757812 414.039062 126.828125 413.835938 C 128.402344 409.316406 130.515625 404.984375 133.109375 400.960938 C 133.257812 400.726562 133.191406 400.417969 132.960938 400.269531 Z M 152.191406 358.605469 C 151.941406 358.492188 151.644531 358.605469 151.53125 358.859375 L 138.769531 387.398438 C 138.65625 387.648438 138.769531 387.945312 139.023438 388.058594 C 139.089844 388.089844 139.160156 388.101562 139.226562 388.101562 C 139.417969 388.101562 139.601562 387.992188 139.683594 387.804688 L 152.441406 359.265625 C 152.554688 359.015625 152.441406 358.71875 152.191406 358.605469 Z M 61.558594 279.148438 C 61.496094 278.882812 61.238281 278.714844 60.957031 278.777344 L 27.59375 286.585938 C 27.324219 286.648438 27.160156 286.917969 27.222656 287.1875 C 27.277344 287.417969 27.480469 287.574219 27.707031 287.574219 C 27.746094 287.574219 27.785156 287.570312 27.824219 287.5625 L 61.183594 279.75 C 61.453125 279.6875 61.621094 279.417969 61.558594 279.148438 Z M 98.824219 298.398438 C 98.703125 298.152344 98.402344 298.050781 98.15625 298.175781 L 40.621094 326.882812 C 40.375 327.007812 40.273438 327.308594 40.398438 327.554688 C 40.484375 327.730469 40.660156 327.832031 40.84375 327.832031 C 40.921875 327.832031 40.996094 327.816406 41.070312 327.777344 L 98.601562 299.070312 C 98.847656 298.945312 98.949219 298.644531 98.824219 298.398438 Z M 88.210938 342.945312 C 88.3125 343.066406 88.453125 343.128906 88.597656 343.128906 C 88.710938 343.128906 88.824219 343.09375 88.914062 343.015625 L 112.074219 324.113281 C 112.289062 323.9375 112.320312 323.621094 112.144531 323.40625 C 111.96875 323.195312 111.652344 323.164062 111.441406 323.335938 L 88.28125 342.242188 C 88.070312 342.414062 88.039062 342.730469 88.210938 342.945312 Z M 80.726562 349.457031 C 80.550781 349.242188 80.234375 349.214844 80.023438 349.386719 L 65.03125 361.640625 C 64.820312 361.8125 64.789062 362.128906 64.960938 362.34375 C 65.0625 362.464844 65.203125 362.527344 65.347656 362.527344 C 65.460938 362.527344 65.574219 362.488281 65.664062 362.414062 L 80.65625 350.160156 C 80.867188 349.988281 80.898438 349.671875 80.726562 349.457031 Z M 131.003906 337.304688 C 130.566406 336.960938 129.941406 337.035156 129.597656 337.472656 C 127.25 340.460938 124.886719 343.511719 122.566406 346.546875 C 122.234375 346.984375 122.316406 347.609375 122.757812 347.945312 C 122.9375 348.085938 123.148438 348.152344 123.363281 348.152344 C 123.664062 348.152344 123.960938 348.015625 124.15625 347.757812 C 126.46875 344.734375 128.828125 341.6875 131.171875 338.707031 C 131.511719 338.273438 131.4375 337.644531 131.003906 337.304688 Z M 112.519531 359.96875 C 100.136719 376.859375 88.234375 394.421875 77.148438 412.179688 C 76.855469 412.648438 77 413.265625 77.46875 413.558594 C 77.632812 413.660156 77.816406 413.710938 77.996094 413.710938 C 78.328125 413.710938 78.65625 413.542969 78.84375 413.242188 C 89.90625 395.523438 101.777344 378 114.132812 361.152344 C 114.457031 360.707031 114.363281 360.082031 113.914062 359.753906 C 113.472656 359.429688 112.84375 359.523438 112.519531 359.96875 Z M 58.21875 252.488281 C 58.753906 252.488281 59.195312 252.066406 59.21875 251.527344 C 59.238281 250.976562 58.8125 250.511719 58.257812 250.488281 L 1.039062 248.167969 C 0.480469 248.152344 0.0234375 248.574219 0 249.128906 C -0.0234375 249.679688 0.40625 250.144531 0.960938 250.164062 L 58.179688 252.484375 C 58.191406 252.488281 58.207031 252.488281 58.21875 252.488281 Z M 68.675781 250.910156 C 68.097656 250.886719 67.660156 251.316406 67.636719 251.867188 C 67.613281 252.421875 68.042969 252.886719 68.59375 252.90625 L 89.429688 253.753906 C 89.445312 253.753906 89.457031 253.753906 89.472656 253.753906 C 90.003906 253.753906 90.449219 253.332031 90.46875 252.796875 C 90.492188 252.242188 90.0625 251.777344 89.511719 251.757812 Z M 101.226562 83.144531 C 101.421875 83.34375 101.679688 83.445312 101.941406 83.445312 C 102.191406 83.445312 102.445312 83.351562 102.640625 83.160156 C 103.035156 82.773438 103.042969 82.140625 102.65625 81.746094 C 98.371094 77.355469 94.070312 72.976562 89.765625 68.605469 C 89.378906 68.210938 88.746094 68.207031 88.351562 68.59375 C 87.957031 68.984375 87.953125 69.617188 88.34375 70.007812 C 92.644531 74.378906 96.941406 78.757812 101.226562 83.144531 Z M 147.5 131.289062 C 147.695312 131.496094 147.964844 131.601562 148.226562 131.601562 C 148.472656 131.601562 148.722656 131.511719 148.914062 131.328125 C 149.316406 130.949219 149.335938 130.316406 148.953125 129.914062 C 138.800781 119.179688 128.441406 108.347656 118.175781 97.71875 C 117.789062 97.324219 117.15625 97.3125 116.761719 97.695312 C 116.363281 98.078125 116.351562 98.714844 116.734375 99.109375 C 127 109.734375 137.351562 120.558594 147.5 131.289062 Z M 269.234375 68.074219 C 269.359375 68.128906 269.492188 68.152344 269.621094 68.152344 C 270.011719 68.152344 270.382812 67.921875 270.542969 67.539062 L 284.449219 34.289062 C 284.660156 33.78125 284.421875 33.195312 283.910156 32.984375 C 283.402344 32.769531 282.816406 33.011719 282.601562 33.519531 L 268.695312 66.765625 C 268.484375 67.277344 268.722656 67.863281 269.234375 68.074219 Z M 369.507812 249.726562 C 369.996094 249.726562 370.425781 249.367188 370.496094 248.867188 C 370.570312 248.320312 370.191406 247.816406 369.644531 247.738281 C 363.382812 246.847656 357.050781 245.835938 350.839844 244.734375 C 350.285156 244.636719 349.773438 245.003906 349.679688 245.546875 C 349.582031 246.089844 349.945312 246.609375 350.488281 246.703125 C 356.726562 247.808594 363.078125 248.824219 369.363281 249.71875 C 369.410156 249.722656 369.460938 249.726562 369.507812 249.726562 Z M 426.476562 252.890625 C 411.789062 252.308594 396.945312 251.132812 382.359375 249.398438 C 381.804688 249.335938 381.3125 249.722656 381.246094 250.273438 C 381.183594 250.820312 381.574219 251.316406 382.121094 251.382812 C 396.761719 253.125 411.65625 254.304688 426.394531 254.886719 C 426.410156 254.886719 426.425781 254.890625 426.4375 254.890625 C 426.972656 254.890625 427.414062 254.46875 427.433594 253.929688 C 427.457031 253.378906 427.027344 252.910156 426.476562 252.890625 Z M 456.824219 253.269531 C 450.652344 253.359375 444.375 253.347656 438.171875 253.230469 C 437.59375 253.21875 437.164062 253.660156 437.152344 254.210938 C 437.144531 254.765625 437.582031 255.21875 438.136719 255.230469 C 441.632812 255.296875 445.148438 255.328125 448.660156 255.328125 C 451.402344 255.328125 454.140625 255.308594 456.855469 255.269531 C 457.40625 255.261719 457.847656 254.804688 457.839844 254.253906 C 457.832031 253.699219 457.410156 253.261719 456.824219 253.269531 Z M 323.226562 326.703125 C 322.847656 326.304688 322.214844 326.285156 321.8125 326.664062 C 321.410156 327.042969 321.394531 327.675781 321.773438 328.078125 C 330.027344 336.828125 338.140625 345.941406 345.886719 355.164062 C 346.085938 355.402344 346.367188 355.523438 346.65625 355.523438 C 346.882812 355.523438 347.109375 355.445312 347.296875 355.289062 C 347.71875 354.933594 347.773438 354.304688 347.421875 353.878906 C 339.648438 344.628906 331.511719 335.484375 323.226562 326.703125 Z M 363.605469 373.972656 C 363.269531 373.535156 362.640625 373.449219 362.203125 373.789062 C 361.765625 374.128906 361.683594 374.757812 362.023438 375.191406 C 367.566406 382.371094 373.027344 389.773438 378.261719 397.1875 C 378.453125 397.464844 378.761719 397.613281 379.078125 397.613281 C 379.277344 397.613281 379.476562 397.554688 379.652344 397.429688 C 380.105469 397.113281 380.214844 396.488281 379.894531 396.035156 C 374.648438 388.597656 369.167969 381.171875 363.605469 373.972656 Z M 314.871094 155.742188 C 315.070312 155.949219 315.335938 156.054688 315.597656 156.054688 C 315.847656 156.054688 316.09375 155.964844 316.285156 155.78125 C 331.253906 141.625 346.660156 127.511719 362.070312 113.835938 C 362.484375 113.46875 362.523438 112.835938 362.15625 112.421875 C 361.789062 112.007812 361.15625 111.972656 360.742188 112.339844 C 345.316406 126.03125 329.894531 140.15625 314.910156 154.328125 C 314.511719 154.707031 314.492188 155.34375 314.871094 155.742188 Z M 371.550781 105.152344 C 371.78125 105.152344 372.015625 105.070312 372.207031 104.902344 C 376.550781 101.101562 381.011719 97.234375 385.453125 93.414062 C 385.871094 93.054688 385.921875 92.421875 385.5625 92.003906 C 385.199219 91.585938 384.570312 91.539062 384.152344 91.898438 C 379.699219 95.722656 375.238281 99.589844 370.890625 103.398438 C 370.472656 103.761719 370.433594 104.394531 370.796875 104.808594 C 370.992188 105.035156 371.269531 105.152344 371.550781 105.152344 Z M 93.328125 199.8125 C 92.320312 198.921875 87.414062 194.292969 90.046875 190.835938 C 90.214844 190.613281 90.171875 190.300781 89.953125 190.132812 C 89.734375 189.96875 89.417969 190.007812 89.253906 190.230469 C 86.796875 193.453125 89.40625 197.679688 92.667969 200.5625 C 98.28125 205.523438 103.996094 211.269531 107.742188 219.652344 C 107.824219 219.839844 108.007812 219.949219 108.199219 219.949219 C 108.265625 219.949219 108.335938 219.933594 108.402344 219.90625 C 108.65625 219.792969 108.769531 219.496094 108.65625 219.242188 C 104.828125 210.6875 99.03125 204.847656 93.328125 199.8125 Z M 179.886719 215.0625 C 179.890625 215.0625 179.894531 215.0625 179.898438 215.0625 C 180.175781 215.054688 180.394531 214.824219 180.386719 214.550781 C 180.21875 207.574219 180.847656 200.578125 182.257812 193.746094 C 182.316406 193.476562 182.140625 193.214844 181.871094 193.15625 C 181.605469 193.105469 181.335938 193.273438 181.28125 193.546875 C 179.851562 200.449219 179.214844 207.523438 179.386719 214.574219 C 179.394531 214.84375 179.617188 215.0625 179.886719 215.0625 Z M 243.664062 185.695312 C 238.355469 186.320312 232.980469 186.222656 227.695312 185.398438 C 227.425781 185.359375 227.164062 185.542969 227.121094 185.816406 C 227.082031 186.089844 227.265625 186.34375 227.539062 186.386719 C 230.59375 186.863281 233.675781 187.101562 236.761719 187.101562 C 239.105469 187.101562 241.449219 186.964844 243.78125 186.6875 C 244.054688 186.65625 244.253906 186.40625 244.21875 186.132812 C 244.1875 185.859375 243.9375 185.65625 243.664062 185.695312 Z M 277.824219 220.398438 C 282.382812 224.480469 288.464844 226.796875 294.578125 226.796875 C 294.742188 226.796875 294.90625 226.796875 295.070312 226.789062 C 295.347656 226.785156 295.566406 226.558594 295.5625 226.28125 C 295.554688 226.007812 295.328125 225.777344 295.050781 225.789062 C 289.03125 225.921875 282.984375 223.679688 278.492188 219.65625 C 275.527344 216.996094 273.246094 213.632812 271.042969 210.382812 C 270.886719 210.152344 270.578125 210.09375 270.347656 210.246094 C 270.121094 210.402344 270.058594 210.714844 270.214844 210.941406 C 272.453125 214.246094 274.765625 217.660156 277.824219 220.398438 Z M 290.335938 321.132812 C 292.574219 311.910156 293.570312 302.421875 293.300781 292.933594 C 293.289062 292.65625 293.0625 292.441406 292.785156 292.449219 C 292.507812 292.457031 292.289062 292.6875 292.300781 292.960938 C 292.566406 302.363281 291.582031 311.761719 289.363281 320.898438 C 289.300781 321.164062 289.464844 321.433594 289.730469 321.5 C 289.773438 321.511719 289.8125 321.515625 289.851562 321.515625 C 290.074219 321.515625 290.28125 321.359375 290.335938 321.132812 Z M 298.410156 280.957031 C 298.40625 280.683594 298.183594 280.464844 297.910156 280.464844 C 297.90625 280.464844 297.90625 280.464844 297.902344 280.464844 C 297.628906 280.46875 297.40625 280.691406 297.410156 280.96875 C 297.664062 302.015625 295.09375 323.011719 289.765625 343.382812 C 289.695312 343.648438 289.855469 343.921875 290.121094 343.992188 C 290.164062 344.003906 290.207031 344.007812 290.25 344.007812 C 290.472656 344.007812 290.675781 343.859375 290.730469 343.636719 C 296.082031 323.179688 298.664062 302.09375 298.410156 280.957031 Z M 279.363281 235.855469 C 279.449219 235.917969 279.550781 235.949219 279.652344 235.949219 C 279.808594 235.949219 279.964844 235.875 280.058594 235.738281 C 280.21875 235.511719 280.167969 235.199219 279.941406 235.039062 C 276.597656 232.667969 273.402344 230.023438 270.441406 227.183594 C 270.242188 226.992188 269.925781 226.996094 269.734375 227.199219 C 269.546875 227.398438 269.550781 227.714844 269.75 227.90625 C 272.746094 230.78125 275.980469 233.453125 279.363281 235.855469 Z M 289.839844 236.230469 C 289.871094 236.234375 289.902344 236.238281 289.9375 236.238281 C 290.171875 236.238281 290.378906 236.074219 290.425781 235.835938 C 290.480469 235.566406 290.304688 235.300781 290.03125 235.246094 C 281.476562 233.554688 273.863281 227.230469 270.636719 219.128906 C 270.53125 218.871094 270.242188 218.746094 269.984375 218.851562 C 269.730469 218.953125 269.605469 219.242188 269.707031 219.5 C 273.058594 227.90625 280.960938 234.472656 289.839844 236.230469 Z M 236.339844 152.09375 C 236.351562 152.09375 236.363281 152.097656 236.378906 152.097656 C 236.636719 152.097656 236.855469 151.898438 236.875 151.636719 C 237.15625 147.988281 237.335938 144.285156 237.40625 140.636719 C 237.410156 140.363281 237.191406 140.132812 236.914062 140.128906 C 236.910156 140.128906 236.910156 140.128906 236.90625 140.128906 C 236.636719 140.128906 236.410156 140.347656 236.40625 140.617188 C 236.335938 144.25 236.160156 147.929688 235.878906 151.558594 C 235.855469 151.832031 236.0625 152.074219 236.339844 152.09375 Z M 154.351562 320.597656 C 151.800781 315.308594 149.167969 309.835938 145.414062 305.265625 C 145.238281 305.050781 144.921875 305.019531 144.710938 305.195312 C 144.496094 305.371094 144.464844 305.6875 144.640625 305.898438 C 148.320312 310.378906 150.925781 315.792969 153.449219 321.03125 C 156.773438 327.929688 160.207031 335.0625 166.121094 340.09375 C 166.214844 340.175781 166.328125 340.214844 166.445312 340.214844 C 166.585938 340.214844 166.726562 340.152344 166.824219 340.039062 C 167.003906 339.828125 166.976562 339.511719 166.769531 339.332031 C 161.015625 334.4375 157.628906 327.402344 154.351562 320.597656 Z M 128.734375 273.398438 C 128.648438 273.136719 128.363281 272.996094 128.101562 273.082031 C 127.839844 273.171875 127.699219 273.453125 127.789062 273.714844 C 130.835938 282.800781 135.4375 291.179688 141.464844 298.628906 C 141.5625 298.75 141.710938 298.8125 141.855469 298.8125 C 141.964844 298.8125 142.074219 298.777344 142.167969 298.699219 C 142.382812 298.527344 142.417969 298.214844 142.242188 297.996094 C 136.289062 290.644531 131.746094 282.367188 128.734375 273.398438 Z M 121.800781 266.152344 C 120.929688 262.1875 120.320312 258.125 119.730469 254.195312 C 118.8125 248.066406 117.863281 241.726562 115.898438 235.613281 C 115.8125 235.347656 115.53125 235.203125 115.269531 235.289062 C 115.007812 235.371094 114.859375 235.65625 114.945312 235.917969 C 116.886719 241.957031 117.828125 248.253906 118.742188 254.34375 C 119.335938 258.289062 119.945312 262.367188 120.824219 266.367188 C 122.839844 275.542969 126.230469 283.273438 130.910156 289.332031 C 131.007812 289.460938 131.15625 289.527344 131.304688 289.527344 C 131.410156 289.527344 131.519531 289.492188 131.609375 289.425781 C 131.828125 289.253906 131.867188 288.941406 131.699219 288.722656 C 127.113281 282.777344 123.78125 275.183594 121.800781 266.152344 Z M 178.792969 189.117188 C 178.527344 189.035156 178.246094 189.1875 178.167969 189.449219 C 176.175781 195.949219 175.582031 202.828125 175.011719 209.480469 C 174.621094 214 174.21875 218.675781 173.378906 223.183594 C 173.328125 223.457031 173.507812 223.71875 173.777344 223.769531 C 173.808594 223.773438 173.839844 223.777344 173.871094 223.777344 C 174.105469 223.777344 174.316406 223.609375 174.359375 223.367188 C 175.210938 218.8125 175.613281 214.109375 176.007812 209.566406 C 176.574219 202.964844 177.160156 196.140625 179.125 189.742188 C 179.203125 189.480469 179.054688 189.199219 178.792969 189.117188 Z M 188.554688 132.339844 C 188.285156 132.382812 188.097656 132.640625 188.144531 132.914062 C 189.03125 138.386719 189.34375 143.96875 189.078125 149.503906 C 189.0625 149.777344 189.277344 150.011719 189.550781 150.023438 C 189.5625 150.027344 189.570312 150.027344 189.578125 150.027344 C 189.84375 150.027344 190.0625 149.816406 190.074219 149.550781 C 190.347656 143.949219 190.027344 138.296875 189.128906 132.753906 C 189.085938 132.480469 188.820312 132.292969 188.554688 132.339844 Z M 179.261719 45.269531 C 178.992188 45.199219 178.71875 45.359375 178.648438 45.625 C 176.535156 53.441406 176.84375 61.597656 177.136719 69.484375 C 177.148438 69.753906 177.371094 69.964844 177.636719 69.964844 C 177.644531 69.964844 177.648438 69.964844 177.65625 69.964844 C 177.933594 69.957031 178.148438 69.722656 178.136719 69.449219 C 177.84375 61.636719 177.539062 53.554688 179.613281 45.886719 C 179.683594 45.617188 179.527344 45.34375 179.261719 45.269531 Z M 235.851562 84.40625 C 235.867188 84.40625 235.882812 84.40625 235.894531 84.40625 C 236.171875 84.382812 236.375 84.140625 236.351562 83.863281 C 235.976562 79.316406 235.386719 74.734375 234.605469 70.238281 C 234.558594 69.964844 234.296875 69.785156 234.027344 69.832031 C 233.757812 69.878906 233.574219 70.140625 233.621094 70.410156 C 234.398438 74.875 234.980469 79.429688 235.355469 83.949219 C 235.378906 84.210938 235.597656 84.40625 235.851562 84.40625 Z M 225.429688 169.832031 C 225.425781 169.835938 225.425781 169.835938 225.421875 169.835938 C 222.34375 170.640625 219.449219 171.585938 216.382812 172.582031 L 216.363281 172.589844 C 216.359375 172.605469 216.359375 172.621094 216.351562 172.640625 C 216.261719 172.835938 216.1875 173.035156 216.105469 173.234375 C 216.117188 173.242188 216.128906 173.253906 216.136719 173.261719 C 216.515625 173.601562 216.871094 173.925781 217.121094 174.269531 C 217.359375 174.601562 217.582031 174.945312 217.804688 175.289062 C 218.316406 176.078125 218.796875 176.824219 219.464844 177.351562 C 221.011719 178.570312 223.347656 178.425781 225.214844 178.15625 C 230.328125 177.429688 235.335938 175.71875 240.179688 174.066406 C 240.820312 173.847656 241.546875 173.597656 241.953125 173.152344 C 242.601562 172.441406 242.410156 171.191406 241.863281 170.4375 C 241.273438 169.628906 240.238281 169.015625 238.796875 168.617188 C 234.390625 167.410156 229.628906 168.699219 225.429688 169.832031 Z M 308.328125 456.4375 C 307.863281 452.167969 307.441406 447.84375 307.035156 443.636719 C 305.730469 430.15625 304.382812 416.222656 301.453125 402.957031 C 298.9375 391.546875 297.328125 379.828125 295.773438 368.492188 C 294.890625 362.050781 293.976562 355.390625 294.261719 348.726562 C 294.609375 340.714844 296.058594 332.640625 297.460938 324.835938 C 298.339844 319.9375 299.246094 314.871094 299.859375 309.925781 C 301.320312 298.121094 302.796875 282.589844 301.1875 267.136719 C 301.070312 265.988281 300.933594 264.839844 300.796875 263.695312 C 300.453125 260.78125 300.09375 257.769531 300.019531 254.769531 C 299.917969 250.574219 300.363281 246.363281 300.796875 242.289062 C 300.878906 241.519531 300.960938 240.753906 301.035156 239.984375 C 301.605469 234.351562 301.992188 228.636719 302.179688 222.992188 C 302.429688 215.484375 302.195312 207.984375 301.902344 200.996094 C 301.628906 194.371094 301.128906 186.710938 298.683594 179.664062 C 297.753906 176.988281 296.78125 175.140625 295.535156 173.679688 C 292.34375 169.933594 286.835938 168.339844 282.777344 167.660156 C 277.976562 166.855469 273.136719 165.742188 268.453125 164.671875 C 267.234375 164.390625 266.015625 164.109375 264.796875 163.835938 C 262.050781 163.214844 259.210938 162.574219 256.382812 162.421875 C 254.558594 162.324219 252.703125 162.425781 250.847656 162.65625 C 250.734375 162.699219 250.613281 162.734375 250.484375 162.734375 C 250.449219 162.734375 250.417969 162.714844 250.382812 162.710938 C 245.902344 163.328125 241.441406 164.746094 237.421875 166.304688 C 238.058594 166.390625 238.695312 166.519531 239.324219 166.691406 C 241.21875 167.210938 242.613281 168.074219 243.480469 169.261719 C 244.679688 170.90625 244.65625 173.160156 243.429688 174.503906 C 242.675781 175.324219 241.648438 175.675781 240.824219 175.957031 C 235.894531 177.640625 230.796875 179.382812 225.496094 180.136719 C 224.707031 180.25 223.84375 180.34375 222.964844 180.34375 C 221.324219 180.34375 219.621094 180.023438 218.226562 178.921875 C 217.300781 178.191406 216.703125 177.269531 216.125 176.375 C 215.921875 176.058594 215.71875 175.742188 215.496094 175.4375 C 215.488281 175.425781 215.46875 175.40625 215.460938 175.390625 C 214.636719 179.390625 215.6875 183.640625 218.347656 186.257812 C 219.652344 187.542969 221.34375 188.234375 223.207031 188.59375 C 220.683594 187.09375 218.699219 184.695312 217.828125 181.875 C 217.746094 181.613281 217.894531 181.332031 218.160156 181.25 C 218.425781 181.171875 218.703125 181.316406 218.785156 181.578125 C 219.890625 185.164062 222.945312 188.03125 226.589844 188.933594 C 228.097656 188.976562 229.636719 188.910156 231.109375 188.847656 C 232.121094 188.804688 233.109375 188.761719 234.042969 188.757812 C 235.050781 188.746094 236.09375 188.753906 237.15625 188.757812 C 244.433594 188.792969 252.671875 188.828125 258.410156 184.851562 C 258.863281 184.535156 259.488281 184.648438 259.800781 185.101562 C 260.117188 185.558594 260.003906 186.179688 259.550781 186.492188 C 258.203125 187.429688 256.742188 188.148438 255.214844 188.71875 C 257.230469 189.953125 259.300781 191.128906 261.417969 192.179688 C 265.320312 194.113281 268.40625 195.222656 271.425781 195.78125 C 275.148438 196.46875 278.6875 196.210938 281.652344 195.039062 C 282.160156 194.835938 282.746094 195.085938 282.949219 195.597656 C 283.152344 196.113281 282.902344 196.695312 282.386719 196.898438 C 280.273438 197.734375 277.914062 198.15625 275.421875 198.15625 C 274.003906 198.15625 272.546875 198.019531 271.0625 197.746094 C 270.5625 197.65625 270.066406 197.546875 269.578125 197.429688 C 270.035156 198.4375 270.285156 199.507812 270.523438 200.554688 L 270.648438 201.101562 C 271.5625 205.019531 273.585938 210.179688 278.035156 212.519531 C 278.523438 212.773438 278.714844 213.378906 278.457031 213.867188 C 278.277344 214.210938 277.929688 214.402344 277.570312 214.402344 C 277.414062 214.402344 277.253906 214.367188 277.105469 214.289062 C 271.984375 211.597656 269.710938 205.878906 268.703125 201.554688 L 268.574219 200.996094 C 268.273438 199.664062 267.988281 198.40625 267.296875 197.414062 C 267.148438 197.207031 267.101562 196.960938 267.132812 196.726562 C 265.523438 196.199219 264.023438 195.59375 262.714844 195.003906 C 262.402344 198.757812 262.855469 202.617188 264.042969 206.1875 C 264.132812 206.449219 263.988281 206.734375 263.726562 206.820312 C 263.675781 206.839844 263.621094 206.847656 263.570312 206.847656 C 263.359375 206.847656 263.164062 206.714844 263.09375 206.503906 C 261.839844 202.726562 261.367188 198.632812 261.730469 194.664062 C 261.734375 194.628906 261.753906 194.597656 261.761719 194.566406 C 261.328125 194.359375 260.910156 194.15625 260.527344 193.96875 C 260.4375 193.925781 260.347656 193.875 260.257812 193.832031 C 258.976562 203.089844 261.066406 212.894531 266.039062 220.804688 C 266.183594 221.039062 266.113281 221.347656 265.878906 221.492188 C 265.796875 221.546875 265.707031 221.570312 265.613281 221.570312 C 265.449219 221.570312 265.285156 221.488281 265.191406 221.335938 C 260.035156 213.132812 257.894531 202.933594 259.3125 193.347656 C 257.125 192.214844 254.972656 190.984375 252.90625 189.664062 C 252.839844 189.621094 252.792969 189.558594 252.738281 189.503906 C 247.753906 190.800781 242.21875 190.78125 237.148438 190.757812 C 236.09375 190.753906 235.058594 190.746094 234.058594 190.757812 C 233.148438 190.761719 232.183594 190.804688 231.195312 190.847656 C 230 190.898438 228.765625 190.949219 227.53125 190.949219 C 223.640625 190.949219 219.734375 190.429688 216.945312 187.679688 C 213.472656 184.265625 212.300781 178.765625 213.8125 173.746094 C 213.46875 173.304688 213.253906 172.820312 213.367188 172.273438 C 213.453125 171.875 213.746094 171.339844 214.65625 171.042969 L 215.761719 170.683594 C 218.722656 169.71875 221.78125 168.71875 224.910156 167.902344 C 227.128906 167.300781 229.632812 166.632812 232.21875 166.320312 C 232.269531 166.285156 232.308594 166.242188 232.367188 166.21875 C 236.558594 164.410156 241.542969 162.464844 246.722656 161.339844 C 235.664062 157.410156 221.511719 156.292969 209.582031 158.550781 C 209.042969 158.65625 208.515625 158.296875 208.414062 157.753906 C 208.3125 157.210938 208.667969 156.6875 209.210938 156.585938 C 211.570312 156.140625 214.019531 155.828125 216.511719 155.636719 C 215.707031 145.1875 214.59375 134.644531 213.191406 124.277344 C 208.371094 124.023438 203.867188 122.453125 200.359375 119.671875 C 194.550781 115.0625 192.074219 107.089844 194.296875 100.664062 C 193.160156 100.019531 192.855469 98.492188 193.082031 97.238281 C 193.15625 96.839844 193.464844 96.523438 193.859375 96.4375 C 197.960938 95.574219 202.128906 94.761719 206.246094 94.019531 C 206.640625 93.949219 207.027344 93.878906 207.410156 93.8125 C 207.242188 93.664062 207.113281 93.46875 207.074219 93.230469 C 205.261719 82.253906 202.9375 71.21875 200.15625 60.433594 C 199.671875 58.539062 199.222656 56.429688 198.753906 54.199219 C 197.066406 46.230469 195.15625 37.199219 190.308594 32.429688 C 188.210938 30.363281 186.226562 29.710938 184.25 30.425781 C 179.054688 32.3125 175.292969 42.863281 174.816406 47.757812 C 173.972656 56.390625 174.210938 64.992188 174.910156 73.496094 C 177.207031 72.710938 179.574219 72.144531 181.984375 71.84375 C 182.539062 71.773438 183.03125 72.164062 183.097656 72.710938 C 183.167969 73.261719 182.777344 73.761719 182.230469 73.828125 C 179.796875 74.132812 177.402344 74.722656 175.09375 75.550781 C 175.648438 81.617188 176.410156 87.628906 177.167969 93.554688 C 178.039062 100.390625 178.929688 107.417969 179.496094 114.476562 C 180.515625 114.523438 181.542969 114.476562 182.554688 114.332031 C 181.96875 108.890625 181.214844 103.410156 180.296875 98.019531 C 180.25 97.746094 180.433594 97.488281 180.707031 97.441406 C 180.96875 97.402344 181.234375 97.578125 181.28125 97.851562 C 182.199219 103.238281 182.953125 108.71875 183.542969 114.15625 C 185.140625 113.828125 186.695312 113.273438 188.121094 112.496094 C 188.605469 112.234375 189.214844 112.414062 189.476562 112.898438 C 189.742188 113.382812 189.5625 113.992188 189.074219 114.253906 C 186.375 115.722656 183.261719 116.503906 180.179688 116.503906 C 180.003906 116.503906 179.828125 116.488281 179.652344 116.484375 C 179.71875 117.398438 179.777344 118.3125 179.832031 119.226562 C 180.761719 135.507812 179.859375 152.035156 178.984375 168.019531 C 178.871094 170.054688 178.539062 173.035156 178.066406 176.054688 C 178.714844 174.9375 179.398438 173.871094 180.113281 172.84375 C 180.113281 172.828125 180.105469 172.816406 180.109375 172.800781 C 181.824219 162.082031 182.632812 151.144531 182.519531 140.292969 C 182.519531 140.015625 182.738281 139.789062 183.015625 139.789062 C 183.015625 139.789062 183.019531 139.789062 183.019531 139.789062 C 183.296875 139.789062 183.519531 140.007812 183.519531 140.28125 C 183.628906 150.574219 182.898438 160.9375 181.371094 171.121094 C 182.300781 169.917969 183.273438 168.789062 184.292969 167.742188 C 184.292969 167.726562 184.289062 167.710938 184.289062 167.695312 C 185.183594 160.671875 185.664062 153.519531 185.71875 146.441406 C 185.722656 146.167969 185.945312 145.945312 186.21875 145.945312 C 186.222656 145.945312 186.222656 145.945312 186.222656 145.945312 C 186.5 145.949219 186.722656 146.175781 186.71875 146.449219 C 186.667969 153.164062 186.21875 159.945312 185.414062 166.625 C 188.175781 164.023438 191.222656 161.976562 194.503906 160.574219 C 195.007812 160.359375 195.597656 160.59375 195.816406 161.105469 C 196.03125 161.613281 195.796875 162.199219 195.289062 162.414062 C 185.515625 166.585938 177.855469 176.929688 174.273438 190.800781 C 172.457031 197.828125 171.65625 205.207031 170.882812 212.34375 C 170.328125 217.429688 169.757812 222.6875 168.824219 227.816406 C 168.113281 231.722656 167.097656 235.761719 164.710938 239.050781 C 169.886719 236.011719 174.921875 231.085938 176.671875 225.160156 C 176.75 224.894531 177.03125 224.742188 177.292969 224.820312 C 177.558594 224.898438 177.710938 225.179688 177.632812 225.441406 C 175.523438 232.570312 168.90625 238.296875 162.761719 241.210938 C 161.191406 242.589844 159.199219 243.679688 157.050781 244.074219 C 161.386719 246.085938 166.285156 247.019531 171.636719 246.753906 C 172.175781 246.734375 172.65625 247.152344 172.683594 247.703125 C 172.710938 248.257812 172.285156 248.726562 171.734375 248.753906 C 157.855469 249.433594 146.75 242.683594 140.476562 229.765625 C 138.453125 225.589844 137.410156 221.265625 136.402344 217.082031 C 136.015625 215.464844 135.625 213.878906 135.195312 212.3125 C 133.578125 217.425781 130.117188 221.925781 125.519531 224.726562 C 125.359375 224.828125 125.179688 224.875 125.003906 224.875 C 124.664062 224.875 124.335938 224.703125 124.148438 224.394531 C 123.859375 223.925781 124.007812 223.308594 124.480469 223.019531 C 129.539062 219.933594 133.09375 214.59375 133.988281 208.734375 C 133.996094 208.683594 134.023438 208.648438 134.035156 208.601562 C 134.011719 208.53125 133.980469 208.460938 133.957031 208.390625 C 132.820312 211 130.632812 213.378906 127.675781 215.15625 C 124.753906 216.917969 121.488281 217.949219 118.332031 218.949219 C 118.28125 218.96875 118.230469 218.976562 118.179688 218.976562 C 117.96875 218.976562 117.769531 218.839844 117.703125 218.625 C 117.621094 218.363281 117.765625 218.082031 118.027344 217.996094 C 121.132812 217.015625 124.339844 216 127.15625 214.300781 C 130.242188 212.441406 132.445312 209.914062 133.359375 207.1875 C 133.378906 207.128906 133.410156 207.082031 133.441406 207.039062 C 132.625 205.035156 131.613281 203.082031 130.273438 201.1875 C 124.550781 193.085938 115.125 187.765625 103.726562 186.203125 C 95.847656 185.125 90.113281 185.847656 87.140625 188.300781 C 85.632812 189.542969 84.84375 191.207031 84.71875 193.390625 C 84.488281 197.53125 89.175781 201.601562 92.59375 204.570312 C 93.40625 205.273438 94.175781 205.941406 94.8125 206.550781 C 98.113281 209.703125 100.972656 213.601562 103.808594 218.824219 C 109.90625 230.046875 113.9375 242.074219 115.792969 254.566406 C 116.058594 256.351562 116.28125 258.171875 116.5 259.929688 C 117.070312 264.546875 117.65625 269.320312 119.035156 273.785156 C 122.058594 283.566406 128.785156 291.769531 135.289062 299.699219 C 138.667969 303.820312 142.160156 308.082031 145.144531 312.558594 C 148.464844 317.535156 151.261719 322.949219 153.96875 328.183594 C 158.164062 336.304688 162.503906 344.699219 168.800781 351.386719 L 169.46875 352.089844 C 170.65625 353.324219 171.882812 354.601562 172.761719 356.171875 C 174.089844 358.535156 174.445312 361.167969 174.75 364.117188 C 176.339844 379.636719 176.925781 395.425781 176.480469 411.039062 C 176.386719 414.382812 176.238281 417.734375 176.09375 420.980469 C 175.589844 432.375 175.136719 443.171875 176.742188 454.414062 C 178.902344 453.167969 181.15625 452 183.492188 450.910156 C 184.585938 433.707031 184.605469 416.257812 183.550781 399.039062 C 183.535156 398.765625 183.746094 398.527344 184.019531 398.511719 C 184.304688 398.496094 184.53125 398.703125 184.550781 398.980469 C 185.59375 416.058594 185.585938 433.363281 184.519531 450.433594 C 200.058594 443.402344 219.117188 439.746094 239.351562 440.078125 C 263.066406 440.449219 287.472656 446.257812 308.328125 456.4375 Z M 182.121094 29.269531 C 182.589844 28.984375 183.066406 28.730469 183.566406 28.546875 C 185.445312 27.863281 188.386719 27.734375 191.710938 31.003906 C 192.40625 31.6875 193.046875 32.453125 193.636719 33.269531 L 192.722656 29.546875 C 192.347656 28.015625 191.964844 26.433594 191.152344 25.136719 C 190.332031 23.820312 189.128906 22.988281 187.929688 22.917969 C 186.777344 22.847656 185.488281 23.496094 184.515625 24.648438 C 183.554688 25.789062 182.949219 27.261719 182.363281 28.679688 Z M 206.601562 95.984375 C 202.753906 96.679688 198.863281 97.4375 195.023438 98.238281 C 195.058594 98.617188 195.179688 98.902344 195.300781 98.949219 C 195.355469 98.96875 195.421875 98.976562 195.476562 98.996094 C 195.664062 98.964844 195.859375 98.964844 196.046875 99.046875 C 196.101562 99.074219 196.140625 99.117188 196.191406 99.152344 C 196.339844 99.175781 196.480469 99.199219 196.632812 99.21875 C 197.042969 99.277344 197.464844 99.335938 197.898438 99.445312 C 200.023438 99.992188 201.464844 101.546875 202.859375 103.050781 C 203.9375 104.210938 204.957031 105.308594 206.226562 105.894531 C 208.542969 106.964844 211.335938 106.210938 214.226562 105.273438 C 215.003906 105.019531 215.90625 104.84375 216.863281 104.652344 C 218.964844 104.242188 221.347656 103.773438 222.421875 102.425781 C 223.171875 101.484375 223.367188 100.59375 223.027344 99.695312 C 222.207031 97.523438 218.628906 95.8125 216.359375 95.410156 C 213.289062 94.867188 210.125 95.351562 206.601562 95.984375 Z M 223.097656 154.929688 C 223.609375 144.351562 223.613281 133.625 223.132812 123.03125 C 222.546875 123.164062 221.945312 123.3125 221.332031 123.46875 C 219.285156 123.984375 217.230469 124.253906 215.210938 124.304688 C 216.597656 134.625 217.707031 145.113281 218.507812 155.511719 C 220.066406 155.429688 221.636719 155.394531 223.210938 155.410156 C 223.140625 155.265625 223.089844 155.105469 223.097656 154.929688 Z M 228.789062 138.59375 L 228.105469 155.59375 C 236.132812 156.152344 244.019531 157.890625 250.546875 160.679688 C 250.765625 160.648438 250.984375 160.625 251.203125 160.601562 C 249.898438 156.050781 249.910156 151.335938 249.941406 146.761719 C 249.949219 145.40625 249.960938 144.050781 249.933594 142.703125 L 249.921875 141.78125 C 249.867188 138.101562 249.832031 135.511719 247.238281 133.933594 C 245.484375 133.136719 243.808594 132.15625 242.269531 130.96875 C 241.050781 130.023438 239.910156 128.96875 238.8125 127.949219 C 237.320312 126.570312 235.914062 125.265625 234.304688 124.195312 C 233.933594 123.949219 233.5625 123.738281 233.1875 123.550781 L 232.613281 148.511719 C 232.605469 148.785156 232.382812 149 232.113281 149 C 232.109375 149 232.105469 149 232.101562 149 C 231.824219 148.996094 231.605469 148.765625 231.613281 148.488281 L 232.199219 123.097656 C 232.148438 123.078125 232.101562 123.054688 232.054688 123.039062 C 231.410156 122.945312 230.769531 122.824219 230.140625 122.65625 C 230 122.621094 229.878906 122.554688 229.769531 122.46875 C 228.273438 122.269531 226.734375 122.371094 225.121094 122.640625 C 225.617188 133.394531 225.613281 144.285156 225.097656 155.027344 C 225.089844 155.179688 225.042969 155.316406 224.976562 155.441406 C 225.6875 155.464844 226.394531 155.5 227.105469 155.539062 L 227.789062 138.554688 C 227.800781 138.277344 228.035156 138.058594 228.308594 138.074219 C 228.585938 138.085938 228.800781 138.316406 228.789062 138.59375 Z M 221.410156 95.273438 C 222.96875 96.21875 224.328125 97.480469 224.898438 98.988281 C 225.3125 100.082031 225.492188 101.78125 223.984375 103.671875 C 222.457031 105.59375 219.691406 106.136719 217.25 106.617188 C 216.351562 106.792969 215.507812 106.960938 214.84375 107.175781 C 212.847656 107.820312 210.785156 108.414062 208.785156 108.414062 C 207.621094 108.414062 206.480469 108.214844 205.386719 107.710938 C 203.761719 106.957031 202.558594 105.660156 201.394531 104.410156 C 200.140625 103.058594 198.957031 101.785156 197.398438 101.382812 C 197.078125 101.300781 196.730469 101.253906 196.363281 101.199219 C 196.320312 101.195312 196.277344 101.1875 196.238281 101.183594 C 194.191406 106.851562 196.398438 113.976562 201.601562 118.101562 C 206.5625 122.039062 213.753906 123.320312 220.84375 121.527344 C 224.964844 120.488281 228.761719 119.757812 232.527344 121.085938 C 237.871094 121.800781 243.574219 119.792969 247.199219 115.777344 C 247.566406 115.363281 248.203125 115.332031 248.609375 115.703125 C 249.019531 116.070312 249.054688 116.703125 248.683594 117.113281 C 245.527344 120.617188 240.964844 122.742188 236.269531 123.148438 C 237.664062 124.175781 238.9375 125.339844 240.171875 126.484375 C 241.238281 127.472656 242.34375 128.496094 243.492188 129.386719 C 244.542969 130.195312 245.664062 130.898438 246.828125 131.511719 C 247.339844 131.71875 247.792969 131.941406 248.207031 132.1875 C 254.769531 135.125 262.617188 135.097656 269.089844 131.824219 C 269.582031 131.574219 270.183594 131.773438 270.433594 132.265625 C 270.683594 132.761719 270.484375 133.363281 269.992188 133.609375 C 266.371094 135.441406 262.351562 136.335938 258.332031 136.335938 C 257.320312 136.335938 256.308594 136.261719 255.304688 136.148438 C 256.117188 141.363281 256.453125 146.671875 256.285156 151.941406 C 256.277344 152.210938 256.054688 152.425781 255.785156 152.425781 C 255.78125 152.425781 255.777344 152.425781 255.769531 152.421875 C 255.496094 152.414062 255.277344 152.183594 255.285156 151.90625 C 255.457031 146.605469 255.109375 141.265625 254.277344 136.023438 C 253.179688 135.859375 252.09375 135.613281 251.023438 135.3125 C 251.847656 137.195312 251.886719 139.441406 251.921875 141.757812 L 251.933594 142.664062 C 251.960938 144.027344 251.949219 145.402344 251.941406 146.773438 C 251.910156 151.335938 251.894531 156.039062 253.234375 160.429688 C 254.324219 160.371094 255.410156 160.367188 256.488281 160.425781 C 259.484375 160.589844 262.40625 161.246094 265.234375 161.882812 C 266.457031 162.160156 267.679688 162.441406 268.902344 162.722656 C 273.554688 163.789062 278.367188 164.894531 283.105469 165.6875 C 284.496094 165.917969 286.050781 166.257812 287.632812 166.738281 C 287.496094 152.730469 286 137.210938 284.664062 123.453125 L 284.527344 122.070312 C 284.414062 120.878906 284.292969 119.648438 283.921875 118.542969 C 282.898438 115.496094 280.007812 113.363281 277.378906 111.601562 C 272.261719 108.175781 264.621094 103.28125 257.359375 100.355469 C 255.722656 99.695312 254.097656 98.980469 252.523438 98.289062 C 247.683594 96.160156 243.109375 94.144531 237.886719 93.441406 C 234.503906 92.984375 230.695312 93.691406 227.015625 94.371094 C 225.164062 94.714844 223.28125 95.058594 221.410156 95.273438 Z M 224.132812 92.855469 C 224.972656 92.714844 225.816406 92.558594 226.648438 92.40625 C 226.710938 92.394531 226.765625 92.382812 226.824219 92.371094 C 226.445312 86.890625 226.148438 81.34375 225.964844 75.871094 C 225.957031 75.59375 226.171875 75.363281 226.449219 75.351562 C 226.726562 75.328125 226.957031 75.558594 226.964844 75.835938 C 227.148438 81.261719 227.441406 86.753906 227.816406 92.191406 C 228.839844 92.003906 229.863281 91.828125 230.886719 91.679688 C 230.976562 89.242188 230.898438 86.792969 230.625 84.378906 C 230.59375 84.105469 230.792969 83.855469 231.066406 83.824219 C 231.328125 83.792969 231.585938 83.992188 231.617188 84.265625 C 231.890625 86.675781 231.976562 89.117188 231.894531 91.550781 C 234.019531 91.289062 236.128906 91.1875 238.15625 91.460938 C 243.65625 92.203125 248.574219 94.367188 253.332031 96.460938 C 254.890625 97.144531 256.5 97.855469 258.105469 98.503906 C 259.238281 98.957031 260.378906 99.464844 261.511719 100 C 262.550781 94.714844 261.097656 89.632812 259.09375 83.585938 L 252.738281 64.449219 C 251.394531 60.402344 249.738281 56.414062 248.136719 52.558594 C 247.050781 49.953125 245.929688 47.253906 244.90625 44.546875 L 236.675781 22.726562 C 236.316406 21.777344 235.953125 20.820312 235.574219 19.871094 C 235.492188 19.765625 235.425781 19.648438 235.394531 19.511719 L 235.339844 19.296875 C 234.195312 16.507812 232.859375 13.804688 230.917969 11.550781 C 228.34375 8.566406 224.816406 6.949219 221.757812 7.332031 C 219.304688 7.632812 217.308594 9.1875 215.984375 11.816406 C 214.570312 14.636719 213.863281 18.152344 213.769531 22.878906 C 213.574219 32.5 215.894531 41.40625 218.289062 49.710938 C 219.316406 53.285156 220.144531 56.84375 220.820312 60.402344 C 220.847656 60.40625 220.875 60.394531 220.90625 60.398438 C 222.046875 60.570312 223.195312 60.679688 224.351562 60.75 C 220.699219 49.378906 218.496094 37.585938 217.835938 25.65625 C 217.820312 25.382812 218.03125 25.144531 218.304688 25.128906 C 218.582031 25.125 218.816406 25.328125 218.832031 25.601562 C 219.496094 37.570312 221.71875 49.40625 225.414062 60.804688 C 226.597656 60.847656 227.785156 60.84375 228.96875 60.78125 C 227.234375 55.460938 225.710938 50.015625 224.445312 44.570312 C 224.382812 44.300781 224.550781 44.03125 224.816406 43.96875 C 225.09375 43.902344 225.355469 44.074219 225.417969 44.34375 C 226.695312 49.84375 228.238281 55.339844 229.996094 60.707031 C 232.492188 60.515625 234.96875 60.109375 237.367188 59.464844 C 237.894531 59.320312 238.449219 59.640625 238.59375 60.171875 C 238.734375 60.707031 238.421875 61.253906 237.886719 61.398438 C 234.316406 62.355469 230.585938 62.839844 226.867188 62.839844 C 224.964844 62.839844 223.0625 62.707031 221.1875 62.453125 C 222.921875 72.4375 223.535156 82.457031 224.132812 92.855469 Z M 220.722656 5.480469 C 220.996094 5.421875 221.261719 5.378906 221.511719 5.347656 C 225.242188 4.882812 229.425781 6.761719 232.433594 10.246094 C 232.753906 10.613281 233.050781 11 233.339844 11.390625 L 232.738281 9.027344 C 232.085938 6.441406 230.289062 2.089844 225.605469 1.996094 C 225.589844 1.996094 225.574219 1.996094 225.558594 1.996094 C 223.878906 1.996094 221.710938 3.679688 220.722656 5.480469 Z M 309.027344 443.441406 C 309.488281 448.230469 309.96875 453.183594 310.511719 458.015625 C 310.515625 458.042969 310.503906 458.070312 310.503906 458.101562 C 310.507812 458.15625 310.503906 458.207031 310.496094 458.261719 C 310.492188 458.296875 310.488281 458.332031 310.480469 458.367188 C 310.46875 458.414062 310.449219 458.453125 310.433594 458.492188 C 310.421875 458.519531 310.425781 458.546875 310.410156 458.574219 C 310.398438 458.601562 310.378906 458.617188 310.363281 458.640625 C 310.351562 458.664062 310.335938 458.6875 310.316406 458.714844 C 310.304688 458.730469 310.292969 458.75 310.277344 458.769531 C 310.222656 458.835938 310.160156 458.886719 310.09375 458.9375 C 310.082031 458.945312 310.074219 458.957031 310.0625 458.964844 C 310.054688 458.96875 310.046875 458.972656 310.035156 458.980469 C 310.035156 458.980469 310.035156 458.980469 310.03125 458.980469 C 290.597656 471.640625 269.492188 475.648438 250.558594 475.648438 C 239.511719 475.648438 229.203125 474.285156 220.394531 472.480469 C 194.535156 467.171875 175.660156 456.996094 175.472656 456.894531 C 175.453125 456.882812 175.441406 456.863281 175.425781 456.851562 C 175.394531 456.835938 175.363281 456.820312 175.339844 456.796875 C 175.300781 456.765625 175.269531 456.730469 175.234375 456.695312 C 175.199219 456.65625 175.164062 456.617188 175.136719 456.578125 C 175.125 456.558594 175.105469 456.546875 175.09375 456.527344 C 175.09375 456.527344 175.09375 456.523438 175.089844 456.519531 C 175.066406 456.480469 175.058594 456.433594 175.042969 456.394531 C 175.019531 456.339844 175 456.289062 174.984375 456.234375 C 174.980469 456.214844 174.96875 456.195312 174.964844 456.171875 C 174.964844 456.167969 174.964844 456.164062 174.960938 456.15625 C 174.960938 456.15625 174.960938 456.152344 174.960938 456.152344 C 173.066406 444.191406 173.566406 432.875 174.097656 420.890625 C 174.238281 417.65625 174.386719 414.308594 174.480469 410.984375 C 174.921875 395.457031 174.34375 379.753906 172.761719 364.320312 C 172.480469 361.597656 172.15625 359.179688 171.015625 357.148438 C 170.261719 355.804688 169.175781 354.671875 168.023438 353.472656 L 167.34375 352.757812 C 160.855469 345.867188 156.449219 337.34375 152.191406 329.101562 C 149.511719 323.914062 146.738281 318.550781 143.480469 313.667969 C 140.550781 309.273438 137.089844 305.050781 133.742188 300.96875 C 127.117188 292.886719 120.265625 284.53125 117.128906 274.375 C 115.695312 269.738281 115.09375 264.878906 114.515625 260.175781 C 114.300781 258.429688 114.078125 256.621094 113.816406 254.863281 C 111.992188 242.597656 108.035156 230.796875 102.050781 219.78125 C 99.316406 214.746094 96.578125 211.003906 93.433594 207.996094 C 92.828125 207.421875 92.078125 206.769531 91.285156 206.082031 C 87.550781 202.839844 82.4375 198.398438 82.722656 193.28125 C 82.875 190.546875 83.933594 188.351562 85.871094 186.757812 C 90.183594 183.199219 98.109375 183.414062 103.996094 184.21875 C 115.949219 185.859375 125.863281 191.472656 131.90625 200.03125 C 135.621094 205.289062 137.007812 211.046875 138.347656 216.613281 C 139.332031 220.695312 140.347656 224.910156 142.277344 228.890625 C 145 234.503906 148.699219 238.859375 153.164062 241.882812 C 156.640625 243.078125 160.59375 241.050781 162.730469 238.378906 C 165.160156 235.339844 166.148438 231.335938 166.855469 227.457031 C 167.777344 222.402344 168.34375 217.179688 168.894531 212.128906 C 169.675781 204.921875 170.484375 197.46875 172.335938 190.300781 C 172.863281 188.257812 173.488281 186.292969 174.183594 184.402344 C 174.1875 184.398438 174.183594 184.394531 174.1875 184.390625 C 175.582031 180.367188 176.757812 172.097656 176.988281 167.941406 C 177.859375 151.980469 178.757812 135.507812 177.835938 119.34375 C 177.34375 110.761719 176.246094 102.144531 175.183594 93.808594 C 174.410156 87.769531 173.636719 81.648438 173.078125 75.460938 C 173.035156 75.402344 172.996094 75.34375 172.96875 75.277344 C 172.867188 75.015625 172.886719 74.738281 172.992188 74.503906 C 172.226562 65.632812 171.9375 56.632812 172.824219 47.5625 C 173.152344 44.191406 175.246094 36.867188 178.90625 32.238281 C 178.878906 32.0625 178.882812 31.886719 178.953125 31.710938 L 180.511719 27.917969 C 181.128906 26.429688 181.824219 24.738281 182.984375 23.359375 C 184.367188 21.726562 186.246094 20.804688 188.050781 20.921875 C 189.890625 21.03125 191.6875 22.210938 192.851562 24.078125 C 193.828125 25.648438 194.273438 27.46875 194.667969 29.074219 L 197.96875 42.574219 C 197.96875 42.578125 197.96875 42.582031 197.96875 42.585938 C 199.109375 46.230469 199.933594 50.113281 200.710938 53.785156 C 201.175781 55.996094 201.617188 58.082031 202.09375 59.933594 C 204.886719 70.777344 207.226562 81.871094 209.046875 92.90625 C 209.085938 93.144531 209.023438 93.375 208.90625 93.570312 C 211.570312 93.171875 214.085938 92.996094 216.621094 93.429688 C 218.382812 93.566406 220.25 93.421875 222.144531 93.160156 C 221.300781 78.386719 220.441406 64.398438 216.367188 50.261719 C 213.929688 41.816406 211.570312 32.738281 211.769531 22.839844 C 211.832031 19.667969 212.15625 14.984375 214.199219 10.917969 C 215.355469 8.613281 216.824219 7.230469 218.277344 6.40625 C 218.871094 3.210938 222.585938 -0.0390625 225.644531 -0.00390625 C 230.035156 0.0859375 233.328125 3.195312 234.679688 8.535156 L 237.246094 18.679688 C 237.710938 19.8125 238.136719 20.9375 238.546875 22.019531 L 246.777344 43.839844 C 247.789062 46.519531 248.902344 49.199219 249.980469 51.792969 C 251.597656 55.679688 253.269531 59.703125 254.636719 63.820312 L 260.988281 82.957031 C 262.691406 88.085938 264.804688 94.464844 263.371094 100.902344 C 269.050781 103.757812 274.523438 107.28125 278.492188 109.941406 C 281.394531 111.886719 284.597656 114.265625 285.820312 117.90625 C 286.261719 119.226562 286.390625 120.574219 286.519531 121.878906 L 286.652344 123.257812 C 288.015625 137.289062 289.550781 153.152344 289.644531 167.4375 C 292.398438 168.503906 295.089844 170.074219 297.058594 172.382812 C 298.472656 174.039062 299.558594 176.085938 300.570312 179.011719 C 303.105469 186.3125 303.617188 194.144531 303.902344 200.910156 C 304.195312 207.941406 304.433594 215.488281 304.179688 223.0625 C 303.988281 228.746094 303.601562 234.507812 303.027344 240.1875 C 302.949219 240.957031 302.867188 241.726562 302.785156 242.496094 C 302.359375 246.511719 301.921875 250.65625 302.019531 254.71875 C 302.09375 257.628906 302.445312 260.59375 302.785156 263.460938 C 302.921875 264.613281 303.058594 265.773438 303.179688 266.929688 C 304.804688 282.585938 303.320312 298.261719 301.84375 310.171875 C 301.226562 315.171875 300.3125 320.265625 299.425781 325.191406 C 298.039062 332.929688 296.601562 340.933594 296.261719 348.8125 C 295.980469 355.296875 296.882812 361.867188 297.753906 368.222656 C 299.304688 379.515625 300.90625 391.195312 303.40625 402.523438 C 306.359375 415.910156 307.714844 429.90625 309.027344 443.441406 Z M 237.941406 374.101562 L 229.496094 371.5625 C 226.101562 370.542969 222.59375 369.484375 218.980469 369.128906 C 214.300781 368.667969 209.527344 369.390625 204.921875 370.09375 C 199.226562 370.957031 193.335938 371.851562 187.769531 370.421875 C 187.503906 370.355469 187.230469 370.515625 187.160156 370.78125 C 187.09375 371.050781 187.253906 371.320312 187.519531 371.390625 C 193.285156 372.871094 199.277344 371.960938 205.070312 371.082031 C 209.621094 370.390625 214.324219 369.675781 218.882812 370.125 C 222.398438 370.472656 225.859375 371.511719 229.207031 372.519531 L 237.652344 375.0625 C 237.699219 375.074219 237.746094 375.082031 237.796875 375.082031 C 238.011719 375.082031 238.210938 374.941406 238.273438 374.726562 C 238.355469 374.460938 238.203125 374.183594 237.941406 374.101562 Z M 198.742188 261.546875 C 198.898438 261.546875 199.054688 261.476562 199.152344 261.335938 C 199.308594 261.113281 199.257812 260.800781 199.03125 260.640625 C 192.800781 256.222656 185.003906 255.652344 177.460938 255.101562 C 171.859375 254.691406 166.066406 254.269531 160.902344 252.285156 C 160.644531 252.1875 160.355469 252.316406 160.257812 252.574219 C 160.15625 252.832031 160.285156 253.121094 160.542969 253.21875 C 165.847656 255.253906 171.714844 255.683594 177.390625 256.097656 C 185.132812 256.664062 192.449219 257.199219 198.453125 261.457031 C 198.542969 261.519531 198.640625 261.546875 198.742188 261.546875 Z M 240.035156 254.824219 C 240.125 254.992188 240.296875 255.085938 240.472656 255.085938 C 240.554688 255.085938 240.636719 255.066406 240.714844 255.023438 C 240.953125 254.890625 241.042969 254.585938 240.910156 254.34375 C 231.335938 236.898438 217.269531 222.234375 200.242188 211.933594 C 200.007812 211.792969 199.699219 211.867188 199.554688 212.101562 C 199.410156 212.339844 199.488281 212.648438 199.722656 212.789062 C 216.601562 222.996094 230.542969 237.535156 240.035156 254.824219 Z M 215.734375 264.496094 C 226.8125 270.992188 235.238281 282.316406 238.28125 294.792969 C 238.335938 295.023438 238.539062 295.175781 238.765625 295.175781 C 238.804688 295.175781 238.84375 295.171875 238.882812 295.160156 C 239.152344 295.097656 239.316406 294.824219 239.25 294.558594 C 236.148438 281.824219 227.546875 270.261719 216.238281 263.632812 C 216.003906 263.492188 215.695312 263.574219 215.554688 263.8125 C 215.414062 264.050781 215.496094 264.355469 215.734375 264.496094 Z M 196.730469 205.121094 C 214.433594 214.269531 229.453125 228.558594 239.875 245.601562 C 239.925781 245.824219 240.035156 246.015625 240.199219 246.148438 C 245.453125 254.855469 249.515625 264.265625 252.125 274.070312 C 252.242188 274.519531 252.648438 274.8125 253.089844 274.8125 C 253.175781 274.8125 253.261719 274.804688 253.347656 274.78125 C 253.882812 274.636719 254.199219 274.089844 254.058594 273.554688 C 251.382812 263.492188 247.203125 253.839844 241.789062 244.914062 L 239.425781 222.839844 C 238.636719 215.472656 237.746094 207.121094 233.621094 200.175781 C 233.339844 199.699219 232.726562 199.546875 232.253906 199.828125 C 231.777344 200.109375 231.621094 200.722656 231.902344 201.199219 C 235.800781 207.769531 236.671875 215.886719 237.4375 223.050781 L 239.371094 241.105469 C 228.894531 225.28125 214.464844 212.03125 197.648438 203.34375 C 197.15625 203.089844 196.554688 203.28125 196.300781 203.773438 C 196.046875 204.261719 196.238281 204.867188 196.730469 205.121094 Z M 254.789062 317.402344 C 258.667969 323.195312 263.066406 329.761719 269.300781 334.066406 C 269.472656 334.183594 269.671875 334.242188 269.867188 334.242188 C 270.183594 334.242188 270.496094 334.089844 270.691406 333.808594 C 271.003906 333.355469 270.890625 332.734375 270.4375 332.417969 C 264.515625 328.335938 260.230469 321.933594 256.449219 316.289062 C 250.632812 307.597656 244.613281 298.613281 242.058594 288.316406 C 240.238281 280.96875 240.304688 273.074219 240.507812 266.253906 C 240.523438 265.703125 240.089844 265.242188 239.539062 265.222656 C 238.992188 265.210938 238.523438 265.640625 238.507812 266.195312 C 238.300781 273.148438 238.234375 281.203125 240.117188 288.800781 C 242.757812 299.433594 249.148438 308.980469 254.789062 317.402344 Z M 284.675781 254.859375 C 274.191406 252.753906 266.179688 244.128906 259.078125 235.117188 C 257.148438 232.667969 255.464844 230.429688 254.445312 227.875 C 252.789062 223.722656 253.03125 219.238281 253.292969 214.484375 C 253.464844 211.3125 253.644531 208.035156 253.214844 204.835938 C 253.136719 204.289062 252.636719 203.90625 252.089844 203.980469 C 251.539062 204.054688 251.15625 204.558594 251.230469 205.105469 C 251.636719 208.113281 251.464844 211.296875 251.296875 214.378906 C 251.035156 219.136719 250.765625 224.054688 252.585938 228.613281 C 253.707031 231.421875 255.476562 233.78125 257.511719 236.359375 C 264.84375 245.664062 273.164062 254.585938 284.277344 256.820312 C 284.34375 256.835938 284.410156 256.839844 284.476562 256.839844 C 284.945312 256.839844 285.359375 256.511719 285.457031 256.039062 C 285.566406 255.496094 285.214844 254.96875 284.675781 254.859375 Z M 285.148438 377.34375 C 285.355469 377.855469 285.109375 378.4375 284.597656 378.644531 C 281.132812 380.042969 277.300781 380.746094 273.128906 380.746094 C 269.054688 380.746094 264.660156 380.078125 259.96875 378.742188 C 255.253906 377.398438 250.652344 375.535156 246.207031 373.734375 C 243.214844 372.523438 240.117188 371.269531 237.03125 370.195312 C 227.355469 366.820312 217.214844 364.980469 206.890625 364.71875 C 203.921875 364.640625 201.113281 364.847656 198.40625 365.050781 C 192.40625 365.496094 186.738281 365.921875 180.039062 363.324219 C 179.527344 363.125 179.269531 362.546875 179.46875 362.03125 C 179.667969 361.515625 180.246094 361.261719 180.761719 361.460938 C 187.042969 363.894531 192.492188 363.488281 198.257812 363.058594 C 201.015625 362.851562 203.867188 362.636719 206.941406 362.71875 C 217.222656 362.976562 227.320312 364.785156 236.976562 368.070312 C 236 367.46875 235.011719 366.886719 234.019531 366.371094 C 230.398438 364.496094 226.398438 363.335938 222.53125 362.21875 C 217.023438 360.621094 211.324219 358.972656 205.554688 358.214844 C 205.28125 358.179688 205.089844 357.929688 205.121094 357.652344 C 205.160156 357.378906 205.414062 357.183594 205.683594 357.222656 C 211.527344 357.988281 217.265625 359.648438 222.808594 361.257812 C 226.722656 362.390625 230.769531 363.5625 234.480469 365.484375 C 236.453125 366.507812 238.382812 367.761719 240.25 368.976562 C 240.570312 369.1875 240.890625 369.394531 241.214844 369.601562 C 243.152344 370.347656 245.074219 371.117188 246.957031 371.882812 C 248.527344 372.515625 250.125 373.152344 251.730469 373.78125 C 249.335938 372.4375 247.078125 371.023438 245.082031 369.683594 C 242.90625 368.222656 240.746094 366.667969 238.65625 365.160156 C 233.902344 361.734375 228.984375 358.191406 223.648438 355.613281 C 223.402344 355.492188 223.296875 355.195312 223.417969 354.945312 C 223.535156 354.699219 223.835938 354.59375 224.085938 354.714844 C 229.5 357.332031 234.453125 360.898438 239.242188 364.351562 C 241.324219 365.851562 243.480469 367.402344 245.636719 368.851562 C 249.636719 371.535156 254.652344 374.515625 259.800781 376.59375 C 260.039062 376.664062 260.277344 376.75 260.515625 376.816406 C 269.570312 379.398438 277.421875 379.386719 283.847656 376.789062 C 284.359375 376.585938 284.941406 376.828125 285.148438 377.34375" fill="#231f20"/></g></g></svg>