<?xml version="1.0" encoding="UTF-8" standalone="no"?><svg xmlns="http://www.w3.org/2000/svg" xmlns:xlink="http://www.w3.org/1999/xlink" fill="#5c5c5c" height="534.8" preserveAspectRatio="xMidYMid meet" version="1" viewBox="-0.5 0.0 281.7 534.8" width="281.7" zoomAndPan="magnify"><g id="change1_1"><path d="m175 520.65c-7.1321-7.9376-14.304-15.115-15.938-15.95-1.6336-0.8347-3.3075-2.0933-3.7198-2.7969-0.41234-0.70359-1.7643-1.2792-3.0044-1.2792-1.8782 0-2.3507-0.58709-2.8298-3.5156-0.31632-1.9336-1.1792-6.3411-1.9175-9.7944-1.952-9.1306-1.7552-13.786 0.6929-16.392 1.683-1.7915 1.8574-2.532 1.0079-4.2792-0.56502-1.162-1.2272-4.7197-1.4716-7.906-0.74278-9.6858-4.5781-15.692-10.253-16.055-5.9329-0.3804-6.0312 0.0918-3.0204 14.515 1.3801 6.6115 2.8887 13.874 3.3524 16.14 0.46371 2.2654 1.2258 4.5857 1.6935 5.1562 4.0273 4.9133 1.66 17.444-3.2956 17.444-5.0147 0-7.1836-3.4856-15.751-25.312-6.3174-16.095-9.1257-22.863-9.9201-23.906-0.39253-0.51563-1.3852-3.2578-2.2058-6.0938-4.9817-17.215-7.3138-19.94-19.708-23.028-9.5928-2.3899-13.129-5.8029-12.518-12.08 0.43576-4.471 0.25799-4.9573-3.1799-8.6992-3.3835-3.6827-3.6414-4.361-3.6414-9.5768 0-4.8052-0.38075-6.0566-2.6448-8.6928-5.2982-6.1689-5.7927-7.3975-5.7927-14.393 0-5.4914-0.33371-6.9794-1.879-8.3778-5.292-4.7892-3.2689-17.933 3.2149-20.888 2.4116-1.0988 3.1993-3.3567 1.5307-4.3879-2.1209-1.3108-2.2334-9.0052-0.17239-11.793 2.8725-3.8853 2.9652-3.5712-8.3741-28.375-13.063-28.575-21.06-43.675-27.192-51.345-2.6469-3.311-5.2557-6.8638-5.7972-7.8951-0.54153-1.0312-1.9766-3.0675-3.1891-4.5251-3.2496-3.9065-2.8439-6.5914 1.5266-10.104l3.7311-2.9984-3.2093-3.5523c-4.3046-4.7647-5.3463-6.9532-10.278-21.592-2.3234-6.8973-5.0833-14.954-6.1331-17.904-4.0131-11.276-5.181-65.82-1.7472-81.598 0.73905-3.3959 1.9732-5.411 5.1673-8.4375 11.538-10.932 13.211-12.914 14.225-16.85 1.5356-5.9593 4.1075-9.3959 8.6884-11.61 15.204-7.3473 22.84-10.873 29.333-13.545 9.5776-3.9415 10.866-5.2614 10.866-11.134 0-4.8557 0.74059-6.0568 3.1618-5.1277 1.7479 0.67071 5.2757 9.677 5.2757 13.468 0 6.2904 2.1851 7.3063 5.6462 2.6248 1.9582-2.6486 2.222-3.9397 2.0416-9.9912-0.45114-15.129 4.91-28.217 11.558-28.217 6.1939 0 7.9968 2.6181 4.1003 5.9544-1.3406 1.1478-1.7922 2.3329-1.419 3.724 0.30098 1.1222 0.55301 2.5677 0.56005 3.2123 7e-3 0.64453 0.63077 1.1719 1.3861 1.1719 7.4228 0 6.9818 35.961-0.54762 44.66-3.9301 4.5409-5.0817 8.5699-4.1775 14.616 0.32945 2.2028 0.84016 5.8126 1.1349 8.0219 0.44365 3.3252 0.82584 3.9248 2.2197 3.4824 9.1139-2.8927 9.1068 24.481-9e-3 34.688-0.92093 1.0312-2.2238 4.3753-2.8953 7.4312-1.3405 6.1004-5.1532 12.293-11.438 18.578-3.247 3.247-4.3302 5.227-5.5387 10.124-3.0278 12.271-12.033 25.273-17.504 25.273-4.6969 0-6.0802 2.454-3.3885 6.011 1.7311 2.2876 0.91801 5.8911-2.0506 9.0875l-2.2682 2.4422 4.9104 0.58157c7.1496 0.84676 7.6856 1.7341 8.4566 14 1.6529 26.297 3.85 35.862 20.185 87.878 1.8621 5.9297 3.6885 11.203 4.0586 11.719 0.37011 0.51562 1.1598 2.4508 1.7549 4.3003l1.0819 3.3628 9.5871 1.6445c22.853 3.92 30.882 8.7257 47.884 28.661 4.4566 5.2255 10.265 17.577 16.533 35.156 5.0465 14.154 5.6415 15.492 9.0669 20.397 7.6866 11.006 10.837 12.746 12.741 7.0345 2.0773-6.2318 12.991-0.10761 18.049 10.128 3.9523 7.9989 12.1 17.941 16.106 19.653 1.4551 0.62191 4.5441 3.04 6.8644 5.3735 3.4653 3.485 5.6001 4.671 11.953 6.6405 7.6335 2.3664 13.124 5.6222 16.49 9.7781 1.5074 1.8614 12.139 7.5725 16.791 9.0203 1.1564 0.35983 1.6406 1.4876 1.6406 3.8212 0 3.7728-3.7058 4.6093-8.4375 1.9044-1.2891-0.73689-3.4875-1.3548-4.8854-1.373-1.3979-0.0183-3.3973-0.95175-4.4432-2.0744s-2.1304-1.8124-2.4099-1.5328c-0.99326 0.99327-8.854-1.0746-12.114-3.1867-4.5343-2.9377-4.1851-3.8408 0.64841-1.6767 4.8728 2.1816 7.167 0.92015 3.5167-1.9336-9.8639-7.7115-13.615-9.3905-14.531-6.5039-1.1781 3.712-4.2188 1.6296-4.2188-2.8892 0-1.2932-0.65831-1.7983-2.3438-1.7983-1.8206 0-2.3438-0.48125-2.3438-2.1562 0-4.6195-4.1982-5.9555-5.1466-1.6378-0.73274 3.3361-4.0398 7.7713-5.241 7.0289-1.2879-0.79595-1.0411-5.8273 0.30944-6.3096 0.68163-0.24344 0.82404-0.76636 0.34041-1.25-0.48364-0.48363-1.0066-0.34122-1.25 0.3404-1.1861 3.3211-3.0748 0.95968-3.0748-3.8445 0-7.8044-2.1926-13.335-4.8783-12.304-1.0817 0.41508-1.3366 1.535-1.0207 4.4839 0.28428 2.6534-0.0501 4.5399-1.0289 5.8056-1.4019 1.8128-1.451 1.7801-1.4798-0.98438-0.0164-1.5726 0.47644-3.3656 1.0952-3.9844 0.70779-0.70779 0.75701-1.125 0.13273-1.125-0.54575 0-2.5329 2.3203-4.4158 5.1562-2.928 4.4098-7.1544 7.126-7.1544 4.5978 0-0.97918 4.0832-6.4298 5.7067-7.6178 1.948-1.4255 6.0267-13.587 5.2424-15.631-0.7645-1.9923-2.4439-1.9185-3.0733 0.13504-1.2148 3.9631-4.4219 9.9791-4.7819 8.9698-0.2174-0.60957 0.26317-2.3816 1.0679-3.9378 1.6268-3.1458 1.9268-7.6954 0.59783-9.0632-0.47595-0.48984-1.0033-2.1526-1.1719-3.6951-0.4281-3.9169-3.0175-4.1571-4.8662-0.45127-1.4006 2.8075-1.3683 3.0305 0.72037 4.9725 3.1435 2.9229-5.3671 14.952-17.69 25.002-1.5805 1.2891-6.1824 5.5078-10.227 9.375s-7.6733 6.9444-8.065 6.8384c-1.5315-0.41488-4.5869 4.1125-4.8754 7.2241-0.29456 3.1767-0.41628 3.2715-3.8199 2.975-2.9524-0.25714-3.5156-0.0167-3.5156 1.5007 0 2.9841 2.0345 8.065 3.9816 9.9433 1.4219 1.3717 1.5574 1.9296 0.61084 2.5147-2.297 1.4196 2.76 9.4889 7.3196 11.68 2.1688 1.042 5.1219 3.0101 6.5625 4.3734s3.6408 2.6201 4.8895 2.7929c1.2487 0.17274 2.4639 0.90113 2.7005 1.6186 0.31958 0.96918-0.21981 1.1803-2.0982 0.82123l-2.5283-0.48333 2.2257 2.46c17.874 19.755 18.501 20.53 17.358 21.444-0.87385 0.6991-4.5223-2.7804-14.145-13.49zm-36.57-31.797c0.30792-0.80241 0.18921-2.6708-0.26379-4.1521l-0.82364-2.6932-2.676 2.1559c-2.3079 1.8594-2.529 2.4305-1.6076 4.1521 1.2441 2.3246 4.558 2.6561 5.371 0.53723zm-5.3062-8.8536c0-1.0312 0.84375-2.7188 1.875-3.75 2.5708-2.5708 2.4144-2.8125-1.8197-2.8125-4.9297 0-5.6619-1.5867-1.529-3.3135 3.9879-1.6663 4.3603-3.2434 0.77059-3.2634-1.418-7e-3 -3.1669-0.3872-3.8866-0.84289-1.8046-1.1427-0.57822-3.8303 1.7478-3.8303 1.2794 0 1.9044-0.61535 1.9044-1.875 0-2.0781-0.96716-2.4078-2.5169-0.85813-2.2113 2.2113-5.4738 0.60841-5.1597-2.535 0.19706-1.9723-0.17932-3.1053-1.1561-3.4801-0.83387-0.31998-1.2148-1.164-0.89804-1.9896 0.55707-1.4517-2.0118-3.1446-3.1081-2.0483-0.64232 0.64232 3.6978 15.013 6.268 20.755 0.9233 2.0625 2.4216 5.543 3.3296 7.7344 1.7133 4.1349 4.1786 5.3794 4.1786 2.1094zm36.043-26.333c5.262-5.2017 10.907-10.306 12.544-11.342 2.3709-1.5011 2.9762-2.5198 2.9762-5.0084 0-2.4777 0.41658-3.186 2.0136-3.4236 3.965-0.58989 4.4146-3.3604 0.98241-6.0533-2.616-2.0526-3.006-2.8478-2.5083-5.1142 0.87915-4.0027-0.22634-6.4758-2.8947-6.4758-1.2543 0-2.2806 0.42198-2.2806 0.93772 0 0.99618-9.9965 11.25-10.968 11.25-0.31509 0 0.0711-0.73828 0.85818-1.6406 3.4241-3.9255 3.9654-6.1676 1.3292-5.506-1.916 0.48088-2.3064 0.31215-1.8756-0.81053 0.29924-0.77983 0.83606-1.4178 1.1929-1.4178 0.70682 0 2.9005-5.5454 2.9005-7.3322 0-3.1426-8.3808-1.193-10.071 2.3427-2.1911 4.5842-3.3131 4.7469-5.216 0.75644-2.0608-4.3216-2.1049-4.2044 1.5837-4.2044 4.3271 0 5.2009-3.0306 1.7862-6.1952-1.3307-1.2332-2.7797-2.2422-3.22-2.2422-0.44034 0-0.80061-0.4503-0.80061-1.0007 0-0.57404 0.7994-0.74695 1.875-0.40557 5.7819 1.8351 8.1398-3.2227 2.6554-5.6958-4.8865-2.2035-5.6878-3.6323-1.619-2.8869 1.7503 0.32067 3.7712 0.2107 4.4909-0.24436 1.7354-1.0974 0.6163-3.8291-1.5686-3.8291-2.9291 0-5.7646-2.5236-3.7242-3.3146 2.2298-0.86441 2.0725-3.8883-0.26735-5.1406-1.5413-0.82488-1.7972-1.6118-1.3314-4.0948 0.47969-2.557 0.1998-3.3206-1.6648-4.5424-1.7638-1.1557-2.1765-2.138-1.9369-4.61 0.22596-2.3308-0.41582-4.1089-2.4874-6.8914-1.5356-2.0625-3.6678-5.3486-4.7383-7.3024s-3.2267-4.331-4.7916-5.2826c-1.5648-0.95163-3.4705-2.6231-4.2349-3.7144-1.6714-2.3863-8.6823-5.7318-12.012-5.7318-1.3174 0-2.3952-0.35101-2.3952-0.78003 0-0.77648-16.225-4.845-19.321-4.845-0.89389 0-4.1906-1.0263-7.326-2.2807-8.4113-3.3651-15.072-4.0594-17.533-1.8276-1.07 0.97049-3.4851 2.1999-5.367 2.7321-7.4101 2.0954 2.5024 9.5599 11.145 8.3923 3.6295-0.49036 5.3489-0.0668 11.719 2.8874 15.11 7.0074 15.635 7.1806 17.977 5.9276 1.1796-0.63133 2.1448-1.5163 2.1448-1.9665 0-0.45025 0.42202-1.3282 0.93783-1.951 0.5158-0.62276 1.7451-2.187 2.7318-3.476s2.1132-2.0257 2.5034-1.6369-0.24157 1.7191-1.4038 2.9563c-3.7089 3.948-4.0664 8.3831-1.4546 18.044 1.2761 4.7201 2.2125 9.5604 2.0809 10.756-0.13887 1.262 0.26678 2.1847 0.96682 2.1993 1.4928 0.031 2.9792 2.2757 2.9983 4.5279 0.0336 3.9606 9.1487 13.11 15.794 15.853 1.7591 0.72623 2.0664 1.1384 1.0356 1.389-0.80621 0.19596-2.6854-0.27643-4.1759-1.0497-1.4906-0.77331-2.895-1.2212-3.1209-0.99524-0.99539 0.9954 2.5952 3.6622 8.4639 6.2863 6.5291 2.9194 7.6681 5.1061 2.1171 4.0648-2.5371-0.47596-3.3149-0.22784-4.1444 1.322-0.56162 1.0494-1.8251 1.908-2.8078 1.908-2.0837 0-3.2958 1.4794-1.9126 2.3343 1.6107 0.99548 1.0604 2.2064-1.1566 2.5446-1.1602 0.17701-2.0039 0.83916-1.875 1.4714 0.13177 0.64633-0.72329 1.1496-1.9531 1.1496-3.5364 0-3.6464 1.0882-0.396 3.9192l3.0522 2.6585-2.8125-0.61304c-1.5469-0.33717-4.0052-1.4471-5.4628-2.4666-1.9604-1.371-2.9244-1.5795-3.7031-0.80079-1.2426 1.2426-0.44856 2.2 3.541 4.2697 1.8268 0.94771 2.2375 1.4611 1.1719 1.4648-2.402 8e-3 -2.0013 2.3663 0.70313 4.1383 2.9013 1.901 2.9675 2.9653 0.23437 3.7691-2.0469 0.60197-2.0554 0.65383-0.28948 1.75 1.0009 0.62129 2.8131 2.0788 4.027 3.239 5.0851 4.86 13.049 1.659 17.05-6.8532 2.2368-4.7585 5.0295-5.441 5.4914-1.3419 0.18573 1.6485-1.1245 4.0443-4.4531 8.1425-5.6127 6.9104-5.5567 6.3248-1.435 15.008 3.7022 7.7996 3.8912 8.7163 1.7969 8.7163-2.0908 0-1.1466 2.1217 1.5584 3.5018 4.698 2.397 6.3243 1.5707 16.281-8.272zm-14.811-18.373c-0.71499-0.71499 2.2286-3.0361 3.9019-3.0768 0.67496-0.0164 9.1598-3.5649 8.8428-3.0521-0.85798 1.3882-12.082 6.7911-12.745 6.1288zm-32.947 8.1384c0.32478-0.52549-0.47077-0.93246-1.8228-0.93246-1.7879 0-2.3991 0.48607-2.3991 1.908 0 1.9668 2.8038 1.3189 4.2219-0.97552zm-18.875-36.792c0.31092-1.1602 0.57106-3.2695 0.5781-4.6875 7e-3 -1.418 0.43468-2.5781 0.9503-2.5781 0.51563 0 0.9375 0.42187 0.9375 0.9375 0 1.4294 3.7074 4.8245 4.6394 4.2485 6.8372-4.2256-7.2808-7.0685-20.577-4.1434-9.607 2.1135-8.9893 5.52 1.0008 5.52 4.4608 0 6.7948 0.41904 7.6341 1.3706 1.8068 2.0486 4.1972 1.7187 4.8367-0.66747zm-8.0114-17.586 3.1165-1.9238-1.7866-3.0183c-3.229-5.455-22.626-1.962-20.46 3.6844 0.29957 0.78066 0.54467 1.7074 0.54467 2.0594 0 1.766 15.51 1.097 18.585-0.80167zm11.74-1.8667c4.4142 0 3.9966-3.6243-0.48869-4.2412-6.0384-0.83049-6.7734 0.0949-3.7412 4.7099 2.2188 3.377 2.4954 3.5402 2.7805 1.6406 0.17414-1.1602 0.82634-2.1094 1.4493-2.1094zm-14.326-11.757c0.38306-0.23675 0.47015-2.1179 0.19353-4.1803-0.54821-4.0872 0.83104-5.0987 2.5564-1.8748 1.1823 2.2092 3.5814 2.4678 4.3485 0.46875 0.3076-0.80159 1.7058-1.4062 3.2518-1.4062 2.071 0 2.7122-0.43547 2.7122-1.842 0-3.2157-3.1514-4.0602-10.351-2.7737-5.1261 0.91609-6.7426 0.91432-7.8546-8e-3 -0.77013-0.63915-1.8619-0.87674-2.4262-0.52798-0.5643 0.34875-4.032 0.60596-7.706 0.57156-7.4768-0.0702-9.1626 0.78764-9.1626 4.6624 0 2.9314 2.1531 4.6057 5.9228 4.6057 1.4907 0 2.4643 0.64345 2.7758 1.8345 0.45454 1.7382 13.077 2.1156 15.739 0.47063zm-0.13448-21.607c3.6674-3.086 3.6541-4.6846-0.04526-5.4245-5.607-1.1214-8.3149-0.75216-7.7343 1.0547 2.4807 7.7198 3.2708 8.1636 7.7795 4.3698zm-11.796-0.15105c2.3859-3.9034 1.0754-6.2999-5.1935-9.4968-9.0769-4.629-13.511-1.3029-8.6811 6.512 1.636 2.6471 12.635 5.0133 13.875 2.9848zm53.485-18.443c-0.72464-1.8884-6.1918-4.2912-9.7639-4.2912-2.5781 0-2.8492 0.20574-1.8529 1.4062 0.6419 0.77344 2.2756 1.4212 3.6304 1.4395s3.518 0.63613 4.8071 1.373c3.0023 1.7163 3.8172 1.7348 3.1793 0.0724zm-58.023-10.385c0-2.2966-3.5329-3.0276-6.6276-1.3714-3.3955 1.8172-1.7952 3.8619 2.762 3.5289 3.1465-0.22992 3.8656-0.6313 3.8656-2.1575zm15.469-5.0425c0-0.89894-2.9161-2.1071-9.2199-3.8199l-4.0636-1.1041 0.31362-4.3918c0.29878-4.1838 0.19158-4.4058-2.2645-4.6884-2.9645-0.34111-3.1391-0.81084-1.1274-3.0337 1.3093-1.4467 1.3093-1.7444 0-3.0537-0.79789-0.79789-1.4507-2.3246-1.4507-3.3927s-0.42188-1.942-0.9375-1.942-0.9375-1.0511-0.9375-2.3358c0-1.3205-0.81502-2.8448-1.875-3.5068-2.2834-1.426-2.3681-2.4964-0.31642-3.9966 1.9348-1.4147 1.0414-4.2092-1.5633-4.8904-1.9744-0.51631-2.5148-2.5739-0.93277-3.5516 1.607-0.99318 1.0274-3.4333-0.9375-3.9471-2.025-0.52956-2.4399-1.6869-0.9375-2.6154 1.7838-1.1025 1.1483-8.1464-0.70312-7.7935-0.90234 0.17198-1.7698 1.2146-1.9277 2.3169-0.82193 5.7387-6.5437 1.5332-8.6256-6.3399-1.1283-4.2668-5.9302-10.215-8.2466-10.215-0.72746 0-1.1208 0.52734-0.87418 1.1719 0.24665 0.64454 1.1867 3.4922 2.089 6.3281s2.2082 6.2109 2.9019 7.5c0.69376 1.2891 2.2022 4.1347 3.3521 6.3235 1.1499 2.1889 2.8514 4.2212 3.7812 4.5163 1.9336 0.61369 2.1952 1.8625 0.59719 2.8502-0.73639 0.45512-0.26204 1.3384 1.4532 2.7061 1.7219 1.373 2.9545 3.6765 3.8065 7.114 1.1199 4.518 3.85 12.34 8.319 23.834 0.80192 2.0625 1.6866 4.8416 1.9659 6.1758 0.77612 3.7071 18.361 7.329 18.361 3.7817zm-27.991-62.527c1.5692-0.81145 2.6345-1.6939 2.3674-1.9611-0.76359-0.76359-7.1447 1.8114-6.6146 2.6692 0.6445 1.0428 0.96429 0.98948 4.2472-0.70817zm-2.0087-5.5559c0.99545-1.1994 0.73226-1.4062-1.7896-1.4062-1.7634 0-3.1745-0.56757-3.4963-1.4062-0.63557-1.6563-3.1515-1.9023-3.1515-0.30819 0 3.6302 6.1323 5.8983 8.4375 3.1207zm-21.583-8.2031c-0.02659-2.7243-3.3581-10.078-4.5657-10.078-1.9275 0-1.996 1.9475-0.18882 5.3677 1.0283 1.9462 2.0883 4.2768 2.3555 5.1792 0.6987 2.3596 2.4234 2.0226 2.3991-0.46875zm14.083-0.64779c0-2.393-1.6138-3.3142-3.3223-1.8962-2.1445 1.7798-1.6346 3.7159 0.97857 3.7159 1.695 0 2.3438-0.50369 2.3438-1.8197zm-1.5143-5.1934c-0.21577-1.773-2.7236-2.5006-5.2647-1.5274-3.881 1.4864-2.4766 3.6909 1.8982 2.9798 1.911-0.31062 3.4259-0.96416 3.3665-1.4523zm-2.4231-5.4365c0.99866-0.80543 0.99334-1.2087-0.02941-2.2314-1.764-1.764-7.2833 0.33781-7.2833 2.7736 0 1.8937 4.727 1.5433 7.3127-0.54212zm-6.8661-3.4659c5.4011-1.1371 8.0454-3.155 6.3526-4.8478-0.82728-0.82729-2.5085-0.6233-6.9911 0.84827-8.4617 2.7778-8.6409 0.75516-0.3021-3.4094 3.6997-1.8477 4.8487-2.0109 8.5707-1.2171 3.7826 0.80675 4.5258 0.68911 6.1956-0.98073l1.8975-1.8975-3.3705 0.39349c-2.3412 0.27332-3.528-0.017-3.8862-0.95046-0.40657-1.0595-1.6524-1.2072-5.8862-0.69789-2.9538 0.35534-6.0687 0.72983-6.9219 0.83221-2.028 0.24334-7.1629 5.6531-8.3637 8.8115-2.0424 5.3719-0.18079 5.8284 12.706 3.1154zm14.749-16.139c-0.49812-0.49813-2.7497-1.0745-5.0036-1.2809l-4.0979-0.37524 3.4389 1.1523c1.8914 0.63379 3.7432 1.4573 4.1151 1.83 0.37193 0.37271 1.076 0.43056 1.5647 0.12857 0.55676-0.3441 0.55032-0.88718-0.01725-1.4547zm-16.517-1.8046c4.5941-1.6071 10.462-3.2118 13.04-3.5661 4.6742-0.6423 4.6803-0.64768 2.146-1.8994-3.6125-1.7842-22.411 3.8329-24.581 7.3452-0.9646 1.5608 0.25983 1.3158 9.3949-1.8798zm-12.741-5.6598c0-0.9843-0.73828-2.056-1.6406-2.3815s-2.8251-1.413-4.2727-2.4166c-3.4769-2.4104-4.1187-1.5083-2.1047 2.958 2.5654 5.6891 8.0181 6.9405 8.0181 1.8402zm10.402 0.41084c3.3084-1.9543 3.7349-4.5066 0.6134-3.67-1.1602 0.31092-2.5916 0.57106-3.1809 0.5781-1.2806 0.0153-2.4336 2.6421-1.6886 3.8474 0.72064 1.166 1.1248 1.0943 4.2562-0.75548zm15.45-10.12c2.2554-2.9569 2.444-3.7887 1.8601-8.2031-1.4416-10.9-1.5872-10.478 3.8014-11.02 2.6371-0.26554 5.5902-1.0882 6.5625-1.8281 4.6923-3.5709 6.8863-6.1714 7.4555-8.8365 0.3424-1.6033 1.0622-3.4603 1.5996-4.1267 2.0927-2.5952-0.80429-3.0858-4.0726-0.68957-6.0618 4.4443-10.445 6.0778-16.365 6.0993-8.605 0.0313-16.046 8.7194-13.894 16.223 0.91078 3.1757 2.9506 3.9848 4.0606 1.6106 1.8919-4.0467 2.5061-4.9248 3.3309-4.763 0.92313 0.18113 0.91494 3.5628-0.01778 7.3411-0.39481 1.5993-1.1965 2.1094-3.3154 2.1094-3.2129 0-3.494 1.1989-1.4362 6.1239 1.9686 4.7114 6.8213 4.6931 10.431-0.0395zm-14.602 1.9033c0-1.1083-3.2719-8.6824-4.6655-10.8-3.6809-5.5936-4.6083-9.8452-2.6802-12.287 2.2979-2.9098 4.5332-8.0608 4.5332-10.446 0-2.3776 4.2193-10.683 9.3063-18.319 2.1603-3.2427 5.4292-9.4827 7.2644-13.867 3.508-8.3802 3.524-8.5883 1.7234-22.425l-0.48799-3.75 1.81 3.9144c1.4982 3.24 2.1609 3.8227 3.8464 3.3819 1.9973-0.52229 2.0071-0.47593 0.51282 2.4137-1.8607 3.5982-0.83429 3.7483 4.4514 0.6509 2.1543-1.2624 5.7328-2.5856 7.9521-2.9404 13.704-2.191 18.79-6.8852 14.867-13.722-1.2657-2.2058-2.5309-4.8543-2.8116-5.8856s-0.97355-3.668-1.5397-5.8594c-1.5602-6.0388-5.1288-2.5631-7.0096 6.8272-0.31317 1.5636-1.6377 4.5167-2.9434 6.5625-2.2143 3.4695-2.3255 3.5305-1.6528 0.90713 0.39666-1.5469 0.74002-4.7047 0.76302-7.0174 0.03271-3.2894 0.4106-4.2762 1.7357-4.5321 2.7186-0.52515 3.4624-4.1995 3.4624-17.105 0-12.546-0.49481-14.211-2.7257-9.1705-1.1846 2.6761-1.42 2.8033-2.4873 1.3437-1.3727-1.8773-6.7477 0.25766-10.167 4.0381-3.6774 4.0663-4.5971 1.3486-1.3856-4.0945 1.7925-3.038 2.0986-3.2082 3.1599-1.7568 1.0917 1.493 1.3802 1.4451 4.0613-0.67405 5.9263-4.6842 4.8303-8.3974-1.7974-6.0894-2.27 0.79047-5.0638 1.4434-6.2084 1.4509l-2.0811 0.01364 2.3155-3.4121c1.2735-1.8766 2.3155-3.7835 2.3155-4.2374 0-0.45392 1.06-2.5044 2.3555-4.5567l2.3555-3.7314h-2.1868c-3.289 0-9.6357 5.9512-11.471 10.756-1.725 4.5169-1.2751 7.5821 0.98552 6.7146 2.7288-1.0471 1.3463 1.8778-2.8204 5.9671-2.6362 2.5872-4.2188 4.9695-4.2188 6.3506 0 2.6193-1.6405 6.0055-3.4181 7.0554-1.6994 1.0037-1.7895 10.172-0.09361 9.5215 0.64668-0.24815 2.3089-2.467 3.6938-4.9307 2.7402-4.8746 6.3804-8.7556 6.3804-6.8024 0 0.64485-0.79549 2.2923-1.7678 3.6609-3.9357 5.5403-4.9168 9.6616-5.1676 21.707-0.26691 12.82-0.91452 14.929-6.7967 22.128-1.7286 2.1156-3.1429 4.3172-3.1429 4.8925 0 0.57524-0.62753 0.80509-1.3945 0.51077-4.1874-1.6069-15.163 6.1367-18.95 13.369-2.947 5.6287-2.4863 7.1085 1.2885 4.1392 3.149-2.477 3.8086-1.2718 1.6111 2.9437-4.5979 8.82-1.939 25.428 4.7935 29.94 2.7129 1.8184 4.877 4.623 7.8 10.109 3.2382 6.0775 6.7267 9.7816 6.7267 7.1426zm14.361-96.717c0.22442-3.1393 1.2276-6.2482 2.8738-8.9063 7.5571-12.202 8.8577-14.003 9.436-13.067 0.72003 1.165 0.68022 1.2437-4.8713 9.6226-2.2825 3.445-4.9675 8.7185-5.9667 11.719l-1.8166 5.455zm18.452-25.603c0-1.5843-0.51137-3.6994-1.1364-4.7002-1.3083-2.095-0.54268-3.3276 1.5647-2.5189 1.6583 0.63636 2.0815 8.5485 0.50918 9.5202-0.5473 0.33825-0.9375-0.6195-0.9375-2.3011zm-60.338 94.926c0.34946-1.3924 0.14656-4.8982-0.45089-7.7908-3.0372-14.704-0.22224-21.878 11.689-29.785 3.2863-2.1818 5.9776-4.4915 5.9808-5.1327 0.0032-0.64122 0.61938-2.3422 1.3693-3.78 0.98698-1.8922 1.1148-3.2684 0.46298-4.9829-0.49533-1.3028-0.88718-3.0796-0.87078-3.9484 0.06437-3.4101 2.7827 2.0364 2.7827 5.5755 0 11.096 9.334-0.7433 10.076-12.78 0.64164-10.409-1.102-13.122-2.5832-4.0182-0.74861 4.6012-1.7916 7.7884-2.8673 8.7619-1.6237 1.4694-1.6379 1.3315-0.35671-3.4818 3.5458-13.321-0.71877-25.135-6.9422-19.231-2.3451 2.2246-7.639 2.683-7.639 0.66134 0-1.0073 2.9217-3.2704 5.8075-4.4985 2.2185-0.94406 2.4632-1.4637 2.0087-4.2644-0.43576-2.6853-0.20532-3.271 1.4581-3.706 1.0866-0.28416 1.9756-0.97802 1.9756-1.5419 0-1.284-2.5006-1.3509-3.2812-0.08777-0.9389 1.5192-2.2893 1.0928-4.6679-1.4737-2.2478-2.4254-6.1134-2.0158-6.1134 0.64783 0 0.54075-2.7205 3.5175-6.0456 6.615-9.4173 8.7726-11.435 29.051-2.4099 24.221 1.9719-1.0553 2.1052-1.0002 1.413 0.58443-0.91967 2.1053-0.91537 4.7579 0.01234 7.6091 0.59276 1.8217 0.35477 2.1094-1.7451 2.1094-5.2751 0-9.8612 20.142-5.2368 23 0.99583 0.61545 4.6371-3.2652 4.6371-4.942 0-1.81 2.6684-6.7853 5.4111-10.089 5.393-6.4964 7.8551-9.0775 8.2667-8.666 0.85794 0.85794-1.4583 5.345-4.5691 8.8513-9.9754 11.244-14.478 27.374-11.759 42.128 1.171 6.3555 3.0649 7.9093 4.1876 3.4359zm12.045-64.05c-1.6773-2.714-0.02779-15.07 1.7413-13.044 1.2062 1.3815 1.3379 14 0.14608 14-0.71301 0-1.5623-0.43035-1.8874-0.95632zm-8.8946-4.573c0-1.8299 4.5038-8.6514 5.0879-7.7063 0.3407 0.55126-0.34829 2.6969-1.5311 4.768-2.0298 3.5542-3.5568 4.8157-3.5568 2.9383zm27.263 64.331c1.1762-2.5816-0.49973-8.1277-2.0021-6.6254-1.2355 1.2355-2.571 6.1315-2.0701 7.5894 0.65336 1.9019 3.0219 1.3412 4.0722-0.96406zm21.502-4.4372c2.6727-1.9032 5.5513-9.3934 7.0215-18.271 0.69354-4.1877 3.1078-8.5801 6.2173-11.312 2.0451-1.7965 2.0575-1.796 1.3406 0.0617-0.39798 1.0312-1.1769 3.1306-1.7309 4.6653-0.55401 1.5347-1.5545 3.845-2.2232 5.134-1.7019 3.2803-0.11696 4.6808 3.194 2.8224 1.7688-0.99279 2.9531-2.857 3.9805-6.2655 0.80438-2.6687 1.7658-5.1555 2.1364-5.5261 1.2566-1.2566 0.68161-2.0503-2.2178-3.061-3.5882-1.2509-3.2398-4.8355 1.0844-11.156 4.6715-6.828 4.7266-6.8097-7.7886-2.5788-13.277 4.4884-14.266 5.703-13.33 16.365 1.1135 12.683 0.43827 19.665-2.4945 25.792-2.7746 5.797-0.68574 7.2426 4.8105 3.3289zm-11.926-3.8542c-0.15395-2.7161 0.50267-4.2075 3.2812-7.4528 3.9839-4.653 6.0363-19.62 2.6905-19.62-1.2534 0-8.123 12.211-8.123 14.44 0 0.40687-0.88832 1.9873-1.974 3.512-1.8688 2.6245-1.9738 9.4392-0.18997 12.336 1.4465 2.3493 4.5017 0.0729 4.3153-3.2153zm25.844-5.1322c1.6393-3.598 1.3263-4.0321-2.1404-2.9682-2.9649 0.90997-4.242 2.7173-4.2801 6.0571-0.02277 1.9978 5.2611-0.54424 6.4205-3.0889zm11.616-19.621c3.7585-3.7585 7.5674-17.016 5.727-19.934-1.4686-2.3282-3.2246-2.4658-3.7917-0.29725-0.28388 1.0856-0.93396 1.9738-1.4446 1.9738s-0.68505 0.63431-0.38755 1.4096c0.2975 0.77526-0.50112 3.3694-1.7747 5.7646-4.2429 7.9797-3.061 15.816 1.6715 11.083zm11.874-24.935c0.79788-2.6631 0.85639-4.167 0.18813-4.8353-1.7066-1.7066-3.8619 1.1204-3.8619 5.0654 0 4.9143 2.1733 4.7782 3.6738-0.23011zm-4.5584-8.5566c3.1697-3.7995 0.73759-14.861-3.3342-15.165-1.4182-0.10569-1.7074 6.0533-0.39894 8.4981 0.90968 1.6997 0.90843 2.4409-0.0059 3.5426-1.2563 1.5137-0.5307 5.2332 1.0209 5.2332 0.52713 0 1.7503-0.94922 2.7181-2.1094zm-55.703-12.656c-0.2674-1.418-0.77558-5.5312-1.1293-9.1406l-0.6431-6.5625-1.3531 4.5757c-1.5934 5.3885-0.24356 13.706 2.2244 13.706 1.0062 0 1.2537-0.70812 0.90105-2.5781zm48.675-3.0097c0.49518-0.49518 0.74639-2.836 0.55823-5.2017-0.46455-5.841-2.4099-4.9614-2.7732 1.2539-0.2747 4.7 0.34978 5.813 2.215 3.9478zm-6.242-8.6146c0.56607-1.6238 1.0292-3.8764 1.0292-5.0058 0-1.2805 0.88218-2.4553 2.3438-3.1213 1.3885-0.63262 2.3438-1.8498 2.3438-2.9862 0-1.1621 0.8867-2.2554 2.2493-2.7735 2.323-0.88321 9.0007-12.742 9.0007-15.985 0-0.899 0.67096-3.2404 1.491-5.2031 1.3722-3.2841 1.3634-4.0964-0.11025-10.193-3.7642-15.572-8.5821-22.557-5.5133-7.9929 1.7668 8.3846 1.3145 12.988-1.73 17.608-1.8239 2.7673-2.3142 4.8377-2.4821 10.48-0.18479 6.2097-2.9054 13.86-2.9054 8.1696 0-2.3539-1.6761-1.9625-2.1509 0.50223-0.22346 1.1602-0.46374-0.73828-0.53395-4.2188-0.22684-11.244-3.9646-5.1121-6.278 10.299-1.6604 11.061 0.5496 18.156 3.2461 10.421zm-52.408-1.1983c0-0.73601 1.1469-2.2404 2.5487-3.343 6.3563-4.9998 15.067-18.328 13.199-20.196-4.2035-4.2035-20.996 11.795-20.043 19.095 0.69458 5.3211 4.2948 9.0459 4.2948 4.4434zm16.812-9.9906c1.2648-7.9179-0.0978-7.7802-2.7431 0.27718-1.1546 3.5167-1.3263 5.1509-0.59068 5.6219 1.6296 1.0436 2.4593-0.42457 3.3338-5.8991zm23.139-14.178c4.7376-3.6244 6.9233-6.3993 6.9233-8.7899 0-3.34-2.7039-4.0379-4.8447-1.2505-0.95709 1.2461-3.0008 3.8194-4.5415 5.7183-4.6764 5.7636-3.081 8.5633 2.4629 4.3221zm115.67 462.92c0-0.59222 6.2584-6.4164 12.656-11.778 3.0938-2.5927 6.4688-5.4486 7.5-6.3464 1.6897-1.471 6.6937-6.9414 13.828-15.117 1.552-1.7784 2.5781-4.0461 2.5781-5.6974 0-1.7719 0.73771-3.2598 2.0836-4.2026 2.744-1.922 3.5414-1.8409 3.5414 0.36026 0 1.0008 0.42187 2.0804 0.9375 2.3991 1.7484 1.0806 1.051 4.2188-0.9375 4.2188-1.3672 0-1.875 0.625-1.875 2.3076 0 1.8881-0.66308 2.4862-3.6478 3.2899-2.0063 0.54025-4.281 1.9276-5.0548 3.083-2.4425 3.6468-16.9 18.238-21.297 21.495-7.2025 5.3341-10.312 7.1399-10.312 5.9878z" fill="inherit"/></g></svg>