<?xml version="1.0" encoding="UTF-8"?><svg xmlns="http://www.w3.org/2000/svg" xmlns:xlink="http://www.w3.org/1999/xlink" height="133.4" preserveAspectRatio="xMidYMid meet" version="1.0" viewBox="0.0 -0.0 463.8 133.4" width="463.8" zoomAndPan="magnify"><g id="change1_1"><path d="m501.48 534.6c-2.321 0.463-6.5 0.926-8.797 1.158-4.84 0.637-9.948 1.47-11.352 1.852-1.839 0.5-4.947 0.694-11.091 0.694-5.996 0-9.397-0.206-11.425-0.694-1.588-0.382-4.747-0.799-7.019-0.926-4.318-0.242-8.626-0.694-12.952-0.694-2.786-0.155-5.572-0.31-8.358-0.464-12.166 0-24.332-0.042-36.499 0.024-4.832 0.026-9.635 0.225-14.417 0.926-3.972 0.583-7.982 0.979-12.002 0.671-1.66-0.127-4.953-0.047-7.318 0.181-4.176 0.4-8.319 0.486-12.512 0.562-3.708 0.246-7.4 0.509-11.096 0.902l-4.131 0.439 0.188 0.116 0.187 0.116c0.428 1.173 0.872 2.297 1.089 3.527 1.163 0.953 2.324 1.906 3.483 2.865l1.232 1.02c0.238-0.877 0.186-1.5-0.584-2.156-0.572-0.487-1.87-1.349-0.642-1.961 1.292-0.644 3.286-0.246 4.398 0.532 1.926 1.348 4.054 3.169 6.341 3.765-1.18-1.176-2.367-2.349-3.532-3.54-0.687-0.7-0.656-0.791 0.38-1.148 0.931-0.321 1.753-0.235 2.673-9e-3 0.47 0.485 0.938 0.97 1.407 1.456 0.864 0.32 1.699 0.658 2.439 1.228 1.566 1.205 3.273 2.061 5.293 2.061l-2.471-2.431-2.472-2.43c1.255-0.631 2.835 0.504 3.744 1.321 1.635 1.472 3.159 2.819 5.194 3.635 1.221 0.489 1.541 0.496 1.668 0.033 0.085-0.315-0.312-0.805-0.884-1.091-1.272-0.634-2.37-1.524-3.459-2.422-0.728-0.602-0.664-0.7 0.768-1.184 1.852-0.623 4.353-0.36 5.895 0.914 1.106 0.916 2.21 1.73 3.554 2.266 0.802 0.32 1.267 0.576 1.852 1.202 0.58 0.622 0.918 0.795 1.746 0.995 1.038 0.251 1.042 0.24 0.194-0.773-0.713-0.854-1.316-1.255-2.317-1.755-0.972-0.484-1.724-0.963-2.535-1.681-0.765-0.678-0.924-1.075-0.548-1.37 0.291-0.228 1.328-0.34 2.304-0.248 1.648 0.155 2.644 1.072 3.716 2.192 0.187 0.032 0.374 0.064 0.56 0.098 0.743 0.738 1.484 1.478 2.226 2.218 1.718 0.751 3.233 1.52 5.108 0.975-2.008-2.004-3.822-4.136-6.283-5.557 2.377 0 5.296-0.48 7.308 0.974 1.048 0.827 2.075 1.674 3.251 2.315 0.586 0.447 1.173 0.895 1.76 1.341 1.084 0.31 2.166 0.618 3.25 0.927-2.008-2.004-3.821-4.136-6.282-5.557 2.766 0 5.861-0.563 8.057 1.413 1.516 1.363 2.804 2.579 4.727 3.217 0.737 0.246 1.476 0.492 2.214 0.742-0.902-1.08-1.598-2.079-2.865-2.711-0.641-0.32-2.477-2.188-1.207-2.661 2.004 0.3 3.986 0.533 5.567 1.95 1.117 1.002 2.192 2.036 3.255 3.095 1.444 0.505 2.654 0.975 4.18 0.975-1.362-1.219-2.723-2.438-4.083-3.656-0.259-0.496-0.775-1.144-0.097-1.439 1.522 0.095 3.334 0.039 4.593 1.037 1.124 0.894 2.329 1.651 3.349 2.668 0.7 0.699 0.967 0.887 1.906 0.975 1.153 0.935 2.196 1.795 3.618 2.267l-3.238-3.12-3.238-3.12c0.718-0.371 1.418-0.707 2.25-0.707 1.922 0 3.852 1.327 5.258 2.543 0.974 0.841 1.944 1.684 2.915 2.528 1.561 1.358 3.205 2.298 5.011 3.309-0.574-1.649-1.663-3.544-3.39-4.14l-0.762-0.264c-0.991-0.931-1.983-1.861-2.975-2.792 2.177-0.752 4.42-1.036 6.325 0.593 1.043 0.892 2.016 1.838 2.988 2.807 1.443 0.504 2.654 0.973 4.179 0.973l-2.267-2.144c-1.246-1.18-2.176-2.326-2.065-2.548 0.48-0.958 2.453-0.144 2.992 0.27 1.44 1.102 2.888 2.214 4.173 3.497 0.575 0.572 1.108 1.003 1.81 1.389 0.75 0.211 1.5 0.424 2.25 0.636-1.862-1.897-3.725-3.793-5.588-5.69 1.234-0.298 2.475-0.618 3.708-0.084 0.899 0.389 1.547 0.809 2.298 1.44 0.67 0.564 1.348 1.11 2.048 1.638l0.953 0.719c0.996 0.807 1.979 1.652 3.071 2.329 0.681 0.423 0.872 0.38 0.977-0.218 0.128-0.719-0.356-1-0.895-1.282-1.205-1.202-2.412-2.405-3.618-3.608-0.164-0.308-0.463-0.777 0.069-0.922 1.84-0.5 4.427 0.218 5.819 1.425 1.101 0.955 2.24 1.857 3.398 2.739 0.82 0.678 1.64 1.357 2.46 2.036 0.231-0.078 0.463-0.155 0.695-0.232-1.825-1.682-3.651-3.364-5.476-5.046-0.624-1.178 0.68-2.042 1.863-1.752 2.713 0.666 4.644 2.48 6.621 4.423 1.153 1.132 2.647 3.116 4.404 3.116-2.028-2.241-4.053-4.484-6.076-6.728 1.121-0.271 2.284-0.645 3.307 0.136 0.51 0.389 1.66 1.333 2.554 2.099 1.435 1.226 2.844 2.481 4.251 3.74 0.296-1.079-0.444-1.8-1.223-2.55-0.886-0.853-1.498-1.405-1.89-2.532h3.481c0.572 4.247 1.233 8.543 1.233 12.836 0 0.72 0.255 1.378 0.566 1.463 0.361 0.099 1.489-2.609 3.113-7.477l2.547-7.631c2.616-1.007 5.136-2.088 7.656-3.311 2.942-0.501 6.249-0.92 9.032 0.342l1.184 0.537h2.321c-0.707-0.36-1.412-0.721-2.119-1.081-0.458-0.918-0.418-1.35 0.706-1.758 2.44-0.884 5.729-0.19 7.67 1.474 0.579 0.496 1.688 0.901 2.466 0.901h1.414c-0.561-0.447-1.121-0.893-1.682-1.341-1.03-0.702-0.826-1.438 0.572-1.438h1.085c0.685 0.326 1.371 0.65 2.057 0.975 1.918 1.045 3.898 2.411 6.004 3.016 0.856 0.247 0.95 0.144 0.679-0.755-0.172-0.572-0.78-1.154-1.349-1.294-0.768-0.188-1.115-0.539-1.308-1.247 0.173-0.077 0.348-0.153 0.521-0.231 1.588 0.399 3.179 0.898 4.525 1.872 1.22 0.882 2.376 1.802 3.73 2.475 0.694 0.503 1.376 0.927 2.134 1.325-0.489-0.64-0.98-1.28-1.47-1.92-0.604-0.733-1.208-1.466-1.811-2.2 2.891 0.931 5.917 1.656 8.312 3.59 1.945 1.534 3.492 2.693 5.94 3.425l2.321 0.695c-1.236-1.151-2.472-2.302-3.708-3.454 1.68-0.837 3.442-0.878 5.019 0.322 0.556 0.422 1.241 0.894 1.523 1.048 0.282 0.153 1.014 0.674 1.625 1.157 0.652 0.515 1.316 0.989 2.041 1.389 0.466 0.155 0.93 0.31 1.394 0.464-1.236-1.152-2.472-2.302-3.708-3.453 1.68-0.837 3.233-0.627 4.709 0.467 0.527 0.39 1.055 0.77 1.601 1.133 0.94 0.625 1.9 1.16 2.786 1.877 0.793 0.643 1.552 1.048 2.505 1.366l-1.573-1.444c-0.866-0.795-1.482-1.628-1.37-1.852 0.555-1.107 2.7 0.041 3.246 0.493 1.444 1.195 2.896 2.897 4.653 3.557 0.617 0.231 0.719 0.092 0.489-0.67-0.225-0.751-0.417-1.503-0.598-2.264 2.232 1.077 4.68 1.998 6.638 3.533l-2.028 1.895c-1.797 1.678-3.686 3.906-6.117 4.67-4.121 1.294-7.432 3.904-10.313 7-1.579 1.698-0.502 4.327 1.069 5.668 2.391 2.043 4.804 4.159 7.927 4.86 2.928 0.659 5.658 0.438 8.589-0.121 1.752-0.335 3.632-0.948 4.18-1.365 0.916-0.698 1.687-1.595 2.784-2.01 0.529-0.2 1.155-0.565 1.625-0.949l0.766-0.627c2.152-0.644 4.31-1.714 6.485-0.708 1.471 0.68 2.544 1.526 3.779 2.562 0.912 0.756 1.825 1.51 2.737 2.266 3.177 3.048 6.831 5.807 8.871 9.774 1.58 2.626 3.481 5.242 4.642 8.08 0.647 1.577 1.406 3.025 2.347 4.448 0.497 0.75 1.229 2.105 1.625 3.009 1.238 2.827 2.682 5.505 4.387 8.08 0.905 1.504 1.657 2.959 2.321 4.583 0.498 0.388 0.994 0.777 1.49 1.165 1.182 2.113 2.37 4.217 3.618 6.292 1.606 3.664 3.352 7.215 5.364 10.676 2.286 3.932 5.003 7.852 6.708 12.064 0.947 1.16 1.787 2.164 2.371 3.545 0.443 1.05 0.925 1.722 1.7 2.56 1.851 2.004 0.667 4.734-1.792 5.488-0.716 0.219-3.181 0.399-5.48 0.399-1.996 0-3.988 8e-3 -5.983-0.071-1.36-0.053-1.804-0.265-1.804-0.857 0-0.643 0.776-0.88 4.31-1.317 2.866-0.355 5.608-0.534 8.488-0.534-1.596-0.809-2.991-1.417-4.851-1.181-1.771 0.224-3.484 0.255-5.268 0.255l-3.264-0.124c-2.609-0.099-3.32-0.284-3.543-0.927-0.23-0.667 0.154-0.88 2.288-1.265 1.411-0.254 4.371-0.462 6.579-0.462 1.735 0 3.773 0.187 5.195-0.926h-5.538c-3.137 0-5.829-0.211-6.209-0.487-0.491-0.356-0.54-0.668-0.181-1.159 0.356-0.489 1.494-0.67 4.209-0.67 2.812 0 3.776-0.162 3.949-0.663 0.156-0.449-0.217-0.748-1.162-0.927-0.843-0.158-1.616-0.262-2.474-0.262-0.972 0-1.768-0.818-0.801-1.575 0.629-0.492 1.525-2.213 0.355-2.532-3.323-0.32-6.562-0.524-9.903-0.524-1.999 0-4.223 0.176-5.891-1.035-0.148-0.426-0.296-0.853-0.444-1.281h10.596c0.471-0.145 1.874-0.356 0.78-0.665-2.478-0.702-5.432-0.724-8.006-0.724-1.078 0-2.14-0.046-3.215-0.114-1.68-0.104-2.191-0.845-2.871-2.201h3.99c2.194 0 4.273-0.208 4.62-0.464 0.553-0.407 0.573-0.491 0.165-0.695l-0.464-0.23c-1.98-0.155-3.96-0.31-5.94-0.463-1.407-0.076-4.181 0.34-4.74-1.275-0.353-1.013-0.277-1.041 2.784-1.041 1.665 0 3.076 0.021 4.645-0.463-3.228-0.47-7.088-0.461-9.793-2.424-0.36-1.034 0.056-1.297 1.201-1.482 0.831-0.134 1.623-0.262 2.464-0.262 0.826 0 1.143-0.609 1.459-1.241l-3.609-0.845c-2.538-0.594-3.716-1.096-3.966-1.695-0.309-0.745-0.114-0.849 1.579-0.849h1.933c-0.586-0.804-0.917-1.426-1.87-1.755-2.002-0.691-4.111-2.78-5.552-4.217-0.31-0.31-0.502-0.676-0.578-1.103l-0.113-0.64c-0.816-0.981-1.632-1.963-2.439-2.952-0.777-0.952-0.868-0.961-2.37-0.232-1.359 0.66-2.695 1.355-4.032 2.057-0.736 0.387-2.338 0.816-2.566 1.652-0.053 0.195 1.72 0.792 3.94 1.33 1.464 0.354 3.907 0.589 4.443 2.202 1.113 2.22 2.293 4.364 3.665 6.436 0.974 1.94 2.132 3.514 3.667 5.046 0.321 0.861 0.661 1.694 1.232 2.432 0.613 0.793 1.309 1.492 2.019 2.198 0.393 1.034 0.81 1.907 1.537 2.764 0.795 0.936 1.537 1.91 2.273 2.89 1.12 1.41 2.514 2.744 3.324 4.36 0.374 0.744 0.696 1.22 1.368 2.013 0.795 0.935 1.538 1.908 2.274 2.888 0.97 1.224 1.95 2.42 3.024 3.557 0.698 0.74 1.28 1.371 1.734 2.278l0.471 0.937 1.927 1.995c0.681 0.705 2.021 1.745 1.618 2.81-0.2 0.963-0.2 2.83-1.024 3.402-0.338 0.233-0.67 0.476-1.002 0.718-0.348 0.255-3.196 0.463-6.33 0.463-4.378 0-5.89-0.16-6.54-0.695l-0.844-0.694c0.328-0.135 0.655-0.271 0.983-0.406 1.961-0.173 3.924-0.346 5.887-0.52 2.097 0 4.688 0.432 6.421-0.926h-14.4c-0.921-0.846-1.841-1.692-2.763-2.539 0.226-0.06 0.451-0.121 0.676-0.183 3.84-0.34 7.603-0.52 11.459-0.52-2.244-1.18-4.483-1.91-7.101-1.621-1.456 0.161-2.742 0.168-4.199 0.024-1.448-0.143-3.585-0.527-4.017-2.108 3.16 0 6.285-0.045 9.438-0.244l-0.288-0.572c-0.201-0.403-1.813-0.573-5.436-0.573-1.925 0-4.645 0.396-6.256-0.867-0.382-0.589-1.188-1.336-0.857-1.995 0.105-0.209 1.723-0.38 3.596-0.38 1.745 0 3.256 0.046 4.904-0.462-2.775-0.426-5.517-0.9-8.321-1.044-1.591-0.082-2.346-0.295-2.846-1.735h3.18c0.928 0 3.091 0.329 3.402-0.807-2.31-0.194-4.618-0.389-6.927-0.582-0.675-0.336-1.185-0.676-1.716-1.23-1.199-1.245 0.025-2.012 1.332-2.012 1.143 0 1.997-0.13 3.073-0.462-0.773-0.31-1.548-0.619-2.321-0.927-1.352-0.267-2.704-0.535-4.055-0.801-0.42-0.33-0.84-0.658-1.258-0.986-0.38-0.932-0.76-1.864-1.139-2.796-0.343-1.198-0.571-2.12-1.376-3.084-0.235-0.281-1.089-0.9-0.455-0.9-0.365-1.052-0.405-1.817 0.376-2.757 0.416-0.5 0.823-1.005 1.27-1.476 0.528-0.555 0.916-1.911-0.03-2.255-1.969-0.713-3.946-1.4-5.822-2.336-2.023-1.009-4.272-1.666-6.452-2.266-0.852-0.235-1.703-0.476-2.554-0.719-0.854-0.244-3.344-1.213-2.904 0.572 0.14 0.569 0.695 1.413 1.232 1.876 0.895 0.772 1.836 1.48 2.784 2.183 0.604 0.446 1.207 0.894 1.81 1.341 1.201 0.985 1.77 2.159 2.18 3.684l0.654 2.432c0.326 0.464 0.651 0.927 0.976 1.389 1.347 1.343 2.686 2.658 3.899 4.12 0.669 0.806 1.56 1.612 1.909 2.626l0.23 0.664c0.986 0.985 2.105 1.79 2.481 3.145 0.247 0.892 0.481 1.069 1.239 1.547l1.338 3.084c0.328 0.208 0.656 0.414 0.984 0.62 0.152 0.444 0.306 0.886 0.458 1.329 0.741 0.74 1.484 1.48 2.225 2.219 0.187 0.496 0.373 0.99 0.561 1.485 1.98 1.975 3.96 3.949 5.94 5.924 1.034 0.943 3.352 2.2 2.228 3.667-0.428 0.558-1.161 1.802-1.948 1.938-0.212 0.038-0.54 0.272-1.333 0.951-0.917 0.785-1.891 0.903-3.029 0.903-2.554-0.455-5.024-0.808-7.219-2.258 3.019-0.328 5.944-0.521 8.979-0.521-1.251-0.755-2.218-1.34-3.667-1.597l-1.44-0.256c-2.72-0.068-5.945 0.365-8.184-1.39h3.925c1.684 0 3.683 0.192 5.063-0.889-2.365-0.852-4.656-1.425-7.209-1.425-1.787 0-3.846-0.164-4.574-0.364-0.729-0.202-1.325-0.603-1.325-0.894 0-0.292 0.992-0.648 2.205-0.794 1.191-0.143 2.346-0.264 3.544-0.264 0.982 0 1.867-0.092 2.83-0.262l-5.838-0.868c-3.209-0.477-6.233-1.08-6.72-1.34-0.485-0.26-1-0.957-1.144-1.549-0.257-1.061-0.21-1.075 3.731-1.075h3.992l-0.241-0.482c-0.132-0.266-1.48-0.683-2.994-0.927-1.58-0.255-3.065-0.443-4.662-0.443-0.84 0-3.484-0.085-2.951-1.622 0.183-0.527 1.017-0.694 3.455-0.694h3.214l-0.218-0.436c-0.12-0.241-1.155-0.657-2.298-0.926l-2.078-0.49c-1.544 0-3.76 0.47-4.575-1.158-0.572-1.14-0.553-1.158 1.319-1.158 1.1 0 2.037-0.108 2.896-0.781l-3.244-0.807c-2.222-0.552-3.358-1.078-3.604-1.67-0.258-0.62-0.114-0.987 0.51-1.298l0.871-0.434c-1.324-0.388-2.648-0.778-3.973-1.166v-5.268c-2.299-0.678-4.539-1.422-6.916-1.749-1.451-0.2-2.551-0.136-3.976 0.109 1.644 1.867 3.262 3.747 4.856 5.655 1.776 2.203 3.517 4.433 5.524 6.435 0.373 0.884 0.748 1.769 1.121 2.653 0.831 0.977 1.668 1.949 2.433 2.976 0.902 1.209 1.772 2.443 2.8 3.549 0.674 0.724 0.875 1.023 1.442 2.132 0.362 0.71 1.473 1.998 2.468 2.863l1.809 1.572c1.668 1.484 3.304 3.027 5.051 4.42 0.722 0.577 0.721 0.655-0.024 1.135-1.778 1.142-4.136 3.386-6.396 2.634l-0.954-0.317c-2.116-1.027-4.184-1.953-6.404-2.729 2.475 0 4.96 0.269 7.334-0.464l-4.532-0.779c-2.494-0.428-4.874-1.041-5.292-1.364-0.464-0.36-0.93-0.717-1.395-1.075l-0.637-0.486c2.297 0 4.548 0.216 6.748-0.463-2.035-0.599-3.963-1.037-6.072-1.323-1.152-0.156-2.86-0.184-3.208-1.456 1.873 0 4.248 0.408 5.797-0.805-3.2-0.437-6.743-0.505-9.571-2.175-0.4-0.797-1.058-1.652 0.308-1.652 0.978 0 1.95-0.032 2.926-0.069 1.105-0.044 1.789-0.297 1.789-0.661 0-0.36-0.864-0.696-2.205-0.858l-2.204-0.264c-1.679 0-3.328 0.123-4.643-1.125l-1.188-1.128c2.556-0.309 5.019-0.525 7.591-0.525-2.118-0.734-5.56-1.179-6.358-3.536-0.506-1.5-0.706-3.052-1.673-4.31-1.008-1.313-1.945-2.588-3.521-3.112-1.458-0.484-1.443-1.532-0.672-2.692 1.105-1.668 2.057-3.941 2.057-5.954 0-2.075-0.636-3.91-1.393-5.818-0.83-0.588-1.599-1.178-2.322-1.9-0.66-0.658-1.18-1.004-2.041-1.365-1.081-0.455-2.157-0.727-3.3-1-2.063-0.493-2.153-0.588-2.529-2.623-0.322-1.734-0.772-3.381-1.278-5.069-0.77-1.004-1.536-1.993-2.374-2.94-1.83-0.757-3.656-1.432-5.61-1.821-3.374-0.674-6.602-0.1-9.8 0.925-1.31 0.421-2.598 0.848-3.946 1.133-1.174 0.25-2.343 0.512-3.514 0.778-2.144 0.485-2.333 0.453-2.737-0.439-0.385-0.853-0.469-1.523-0.529-2.447-1.274-1.568-2.855-2.56-4.672-3.474-3.422-1.72-8.12-2.988-11.948-2.034h-1.766c-1.576 0-2.166 0.64-2.926 1.852-0.31 0.756-0.619 1.512-0.928 2.267-0.971 0.615-1.968 0.28-3.027-0.1-1.117-0.401-3.204-0.959-4.635-1.24-1.446-0.284-2.681-0.551-3.996-1.207-2.158-1.076-4.105-2.361-6.452-2.961-2.553-0.655-5.296-1.389-7.941-1.389-0.465 0.17-0.929 0.341-1.393 0.51-1.48 1.476-3.055 2.595-4.984 3.47-2.623 1.188-2.735 1.305-2.264 2.388 0.434 0.998 0.312 1.304-1.004 2.502-3.612 3.288-7.55 7.338-12.782 7.338l3.483-3.52c1.916-1.936 3.483-3.763 3.483-4.059v-0.537c-0.927 0.704-1.843 1.418-2.808 2.072-0.722 0.486-1.442 0.974-2.162 1.461-1.202 0.949-2.398 1.872-3.666 2.731-0.62 0.462-1.239 0.925-1.858 1.389-0.788 0.532-1.565 1.068-2.322 1.644-1.284 0.98-3.219 1.597-4.851 1.597-0.427 0-0.625-0.273-0.488-0.67 0.315-0.911 1.176-1.528 2.137-1.694 0.742-0.74 1.484-1.478 2.226-2.218 0.6-0.231 1.201-0.462 1.801-0.692 1.103-1.02 2.204-2.04 3.307-3.062-0.474-0.286-0.898-0.157-1.403 0.071-0.628 0.283-1.239 0.584-1.848 0.904-1.117 1.113-2.069 2.208-3.715 2.315-0.912 0.676-1.782 1.328-2.786 1.853-0.742 0.74-1.483 1.479-2.226 2.219-0.876 0.33-1.712 0.644-2.428 1.274-0.389 0.344-1.645 0.626-2.789 0.626h-2.081c2.628-2.187 5.085-4.682 7.98-6.511 0.693-0.439 1.836-2.433 0.221-2.027-0.549 0.138-1.5 0.751-2.111 1.36l-1.113 1.11c-0.607 0.233-1.213 0.466-1.821 0.701-1.683 1.588-3.295 3.308-5.168 4.672-1.279 0.933-2.947 2.084-4.566 2.084-0.6 0-2.858-0.124-1.678-0.949 0.684-0.479 0.713-0.504 1.577-1.366 0.575-0.573 0.977-0.914 1.733-1.2 1.387-0.522 2.842-1.79 3.204-3.286 0.259-1.066 0.214-1.092-0.906-0.535l-1.179 0.588c-2.297 2.203-4.443 4.705-7.215 6.285-1.952 1.112-3.785 1.087-5.805 0.463 1.652-1.4 3.312-2.777 5.012-4.119 0.584-0.473 2.015-1.329 1.697-2.242-0.214-0.619-0.32-0.614-1.174 0.062-0.92 0.728-1.858 1.43-2.796 2.132-1.239 0.926-2.478 1.852-3.715 2.778-1.665 1.321-2.993 2.778-5.26 2.778-0.439 0-1.667 0.3-1.736-0.23 2.471-2.394 4.941-4.786 7.412-7.179-1.253 0.199-2.379 0.473-3.391 1.311-1.774 1.469-3.453 3.544-5.525 4.57-1.259 0.624-1.948 1.528-3.492 1.528-1.22 0-1.331-0.286-0.863-1.218 1.082-0.504 2.127-1.018 2.687-2.071l1.811-1.643c0.996-0.904 1.721-1.82 1.612-2.037-0.108-0.217-0.423-0.3-0.698-0.185-1.102 0.461-1.985 1.276-2.821 2.109-0.668 0.667-1.352 1.264-2.089 1.852-1.908 1.523-3.778 3.657-6.368 3.657-0.504 0-1.582 0.292-1.811-0.232 1.507-1.332 3.013-2.664 4.515-4.002 0.869-0.774 1.496-1.576 1.392-1.784-0.104-0.207-0.704-0.251-1.332-0.096-0.628 0.154-2.3 1.385-3.714 2.734-2.222 2.123-3.849 3.843-7.138 3.843h-2.248l1.318-1.181c1.194-1.07 3.55-2.403 3.962-4.075 0.401-1.624-2.122-0.064-2.606 0.304-3.018 2.301-5.132 5.415-9.254 5.415h-2.252l0.138-0.255 0.139-0.256 2.067-2.06 2.065-2.06c-1.256-0.699-2.653-0.112-3.695 0.687-0.764 0.586-1.548 1.132-2.342 1.677-1.652 1.304-2.963 2.731-5.207 2.731-0.548 0-1.535 0.278-1.855-0.232 2.11-1.783 4.228-3.552 6.366-5.302l1.161-0.95c-1.911 0.301-3.491 0.689-5.06 1.852-1.149 0.765-2.333 1.492-3.412 2.352-0.345 0.274-0.829 2.097-1.076 4.052l-0.449 3.553h-0.403l-0.144 0.811c-0.113 0.644 0.189 0.809 1.485 0.809h1.63l8.486-0.171c6.591-0.134 11.674-0.6 22.752-2.084 7.846-1.052 14.996-2.214 15.891-2.582 0.893-0.37 5.281-1.099 9.751-1.622l8.126-0.95c1.976-0.656 3.967-1.095 6.036-1.39 1.787-0.253 3.982-0.764 4.875-1.133 1.567-0.645 3.212-0.896 4.876-1.133 2.14-0.61 4.271-1.007 6.501-1.182 1.616-0.128 3.107-0.209 4.643-0.718 0.765-0.256 5.54-1.064 10.608-1.799 6.516-0.943 13.185-2.183 19.805-1.675 2.043 0.156 4.054 0.231 6.103 0.231 1.272 0 2.804-0.171 3.929 0.512 0.346 1.027 0.692 2.053 1.038 3.08 0.585 0.459 0.97 0.876 1.312 1.557 0.24 0.479 1.032 1.168 1.758 1.531 1.176 0.585 1.408 1.089 2.106 4.579 0.473 2.364 0.834 4.9 2.373 6.844 0.415 0.524 0.813 1.049 1.188 1.602l0.489 0.719c0.484 0.632 0.968 1.264 1.454 1.896 0.721 0.277 1.442 0.556 2.164 0.835h3.144c1.088 0.192 1.101 0.692 0.86 1.812-0.188 0.88-0.26 3.492-0.16 5.806 0.13 2.984 0.409 4.5 0.956 5.216 1.662 2.175 3.738 3.952 5.88 5.642 0.701 0.244 2 0.496 2.213 1.332 0.124 0.489 0.343 0.844 1.061 1.725 0.635 0.78 1.051 1.459 1.439 2.384 0.379 0.901 0.967 2.409 1.884 2.941 0.741 0.602 1.484 1.204 2.225 1.806 3.484 1.584 7.972 3.798 11.68 1.9 1.587-0.812 3.075-1.863 4.511-2.918 0.307-0.226 0.764-0.658 1.085-0.324 3.14 1.068 7.032 2.258 10.216 0.878 1.131-0.602 2.582-1.03 3.164-2.191 0.307-0.613 0.623-0.607 2.723 0.055 1.72 0.541 3.391 0.933 5.161 1.258 3.324 0.474 6.427 0.879 9.287 2.731 0.907 0.233 1.813 0.469 2.721 0.704 1.091 0.941 2.186 1.824 3.411 2.585 1.821 0.371 3.836 0.59 5.524 1.39h2.321s0.464-0.464 0.698-0.464c0.94-0.626 1.9-1.159 2.785-1.876 0.575-0.466 1.833-1.876 2.415-0.719 0.194 0.389 1.13 1.028 2.08 1.42 1.058 0.437 2.078 0.724 3.214 0.76l1.81 0.879h6.036c1.074 0 2.024-0.607 2.861-1.283 0.835-0.673 1.189-1.239 1.661-2.181 1.035-0.667 3.49-1.858 4.135 4e-3 0.131 0.376 0.943 0.892 1.803 1.146 3.481 1.026 7.669 0.638 10.885-0.932 1.58-0.769 2.873-1.466 3.265-3.19 0.327-0.207 0.655-0.414 0.983-0.619l0.437-0.872c0.348-0.693 0.954-0.872 2.967-0.872 3.892 0 7.603-0.433 11.387-1.301 2.005-1.464 4.15-2.896 4.996-5.318 0.178-0.512 0.186-1.069 0.744-1.181l0.358-0.073c5.146-0.215 10.288-0.219 15.227-1.804 1.789-0.51 3.572-0.999 5.388-1.414 2.003-0.456 3.84-1.141 5.756-1.876 1.741-0.51 3.452-1.06 5.088-1.861 1.38-0.675 2.695-0.917 4.199-0.917 5.296 0.201 10.594 0.354 15.882 0.718 4.055 0.279 7.956 1.012 11.942 1.795 2.5 0.492 4.793 1.208 7.196 2.06 3.434 1.217 6.892 2.384 10.484 3.044 2.936 0.539 5.842 0.953 8.702 1.825 5.059 1.544 10.192 2.532 15.491 2.83 3.393 0.19 6.779 0.434 10.168 0.694 5.903 0 11.749-0.136 17.644-0.462 4.024 0 8.212 0.357 12.073-0.927h1.787c1.664 0 1.809-0.109 2.113-1.597 0.151-0.736 0.295-1.472 0.482-2.199 0.12-0.467 0.266-0.604-0.219-0.604 1.772-1.723 3.544-3.447 5.315-5.171-1.979 0.546-3.996 1.352-5.575 2.659-2.116 1.751-4.931 3.671-7.777 3.671-1.238 0-1.592-0.168-1.418-0.671l0.232-0.671c2.478-1.932 5.354-3.632 7.278-6.14 0.686-0.896 0.672-0.932-0.282-0.645-1.648 0.495-3.22 1.516-4.533 2.603-0.717 0.593-1.557 1.333-2.821 2.489-2.139 1.953-4.591 3.035-7.511 3.035h-2.347c0.631-1.258 1.436-2.687 2.798-3.158 0.668-0.229 1.233-0.601 1.798-1.01 0.831-0.411 1.532-0.846 2.22-1.483 0.64-0.593 0.892-0.761 0.892-1.588-1.824 0.671-3.912 1.404-5.245 2.873-0.544 0.598-0.804 0.635-1.581 0.708-1.012 1.01-1.9 2.054-3.179 2.707-1.755 0.897-3.448 1.876-5.495 1.876-1.225 0-2.15-0.107-3.302-0.463 0.664-0.34 1.329-0.678 1.994-1.018 0.632-0.436 1.264-0.871 1.904-1.298 1.44-0.957 2.892-1.901 4.31-2.893 0.361-0.253 1.089-0.489 0.488-0.695-0.228-0.078-0.38-0.112-0.619-0.092l-0.28 0.024c-1.475 0.736-2.729 1.332-3.899 2.499-0.95 0.948-1.834 1.479-3.018 2.084-2.292 1.159-4.299 1.852-6.942 1.852h-3.274l0.249-0.495 0.248-0.496c0.895-0.308 1.583-0.486 2.235-1.181 1.308-1.396 3.428-1.989 5.237-2.444 0.659-0.547 1.317-1.095 1.976-1.641-1.728-0.306-3.4 0.077-4.613 1.362l-0.64 0.679c-1.211 0.488-2.419 0.976-3.531 1.669-1.74 1.087-3.537 1.622-5.548 1.622-0.577 0-1.447 0.252-1.835-0.232 0.883-0.655 1.727-1.306 2.507-2.084l0.881-0.878c0.619-0.17 1.238-0.341 1.858-0.512-0.831-0.462-1.656-0.109-2.506 0.256-1.022 0.439-2.024 0.894-3.018 1.39-1.99 0.992-3.422 1.178-5.708 0.638-0.779-0.185-2.464-0.089-2.464-1.03l5.288-2.595 5.288-2.593c-0.364-0.099-0.728-0.199-1.092-0.298-1.606 0.336-3.131 0.764-4.611 1.502-2.957 1.474-5.955 3.401-9.369 3.077-1.62-0.155-2.5-0.449-2.5-0.84 0-0.331 0.801-0.981 1.78-1.444 1.056-0.499 2.092-0.948 3.197-1.328l1.416-0.487c1.052-0.448 2.103-0.894 3.155-1.341-1.34-0.747-3.083-0.041-4.315 0.671-2.6 1.501-5.564 2.57-8.591 2.57h-2.785c3.499-1.752 6.996-3.505 10.495-5.257-1.211-0.329-2.238 0.032-3.379 0.565-2.319 1.084-4.687 2.032-7.116 2.84-1.749 0.582-3.815 0.854-5.363-0.36 3.274-1.633 6.547-3.265 9.82-4.898-0.977-0.266-1.75-0.167-2.681 0.334-3.344 1.803-7.173 3.764-11.033 3.364l-2.816-0.293c0.806-0.411 1.76-0.771 2.39-1.435 0.259-0.272 0.863-0.649 1.74-1.088 0.74-0.368 2.263-0.93 3.386-1.248 1.121-0.318 2.27-0.746 2.553-0.95 0.391-0.283 0.415-0.428 0.097-0.604l-0.416-0.231c-0.928 0.153-1.857 0.308-2.785 0.463-1.735 0.788-3.469 1.576-5.204 2.364-1.885 0.908-3.644 1.873-5.817 1.594-0.348-0.045-2.146-0.141-1.81-0.369l0.171-0.116c2.64-1.451 5.28-2.901 7.92-4.352-1.837 0.512-3.671 1.032-5.5 1.573-2.868 0.85-6.293 2.47-9.263 1.622 1.515-0.547 3.028-1.094 4.54-1.642l1.866-0.674-0.418-0.232c-0.228-0.127-2.296 0.185-4.594 0.694-1.692 0.376-3.392 0.927-5.132 0.927-0.49 0-0.852 0.089-1.214-0.232 0.98-0.744 1.922-1.491 2.999-2.084-0.655-0.233-1.568-0.311-1.748-1.011-0.349-1.357-1.117-3.126-2.165-4.052-1.428-1.26-3.835-1.882-5.69-1.882-1.654 0-3.085-0.584-4.553-1.254-0.493 0.247-0.512 0.58-0.324 1.126 0.176 0.505 0.208 0.853-0.283 1.053-2.005-0.181-4.02-0.463-6.036-0.463l1.4 0.71c0.878 0.445 1.311 0.962 1.163 1.389-0.152 0.437-0.867 0.68-2.003 0.68-0.973 0-2.338-0.228-3.034-0.505-1.076-0.43-1.652-0.202-2.484 0.45l1.429 0.518c0.739 0.269 2.336 1.097 1.213 1.976-0.464 0.362-0.95 0.349-1.494 0.292-1.404-0.502-2.808-1.002-4.211-1.502 0.181 0.363 0.363 0.724 0.544 1.086 0.641 0.32 1.281 0.64 1.923 0.958 0.282 0.819 0.325 1.394-0.599 1.855-0.827 0.412-1.581 0.364-3.451-0.216-1.276-0.397-2.525-0.74-3.861-0.696l1.973 0.949c1.084 0.522 2.035 1.178 2.111 1.458 0.293 1.07-1.924 1.242-2.493 1.137-0.927-0.169-1.792-0.439-2.69-0.729-1.178-0.383-2.318-0.548-3.545-0.548 1.688 0.852 3.456 1.621 4.949 2.792-1.78 0.436-3.406 0.26-5.205-0.188-1.465-0.366-2.928-0.75-4.387-0.288 1.671 0.617 3.342 1.234 5.011 1.852l-0.719 0.533c-0.562 0.416-1.662 0.22-5.058-0.903l-4.342-1.434c1.95 1.149 3.992 2.192 5.775 3.588-1.564 0.377-2.892 0.554-4.455-0.083-0.981-0.4-2.989-0.991-4.461-1.313-2.129-0.467-2.709-0.471-2.833-0.018-0.124 0.455-0.564 0.45-2.188-0.026-3.542-1.039-6.827-4.247-9.09-7.083-0.721-0.904-1.494-1.743-2.298-2.571-0.171-0.772-0.342-1.544-0.512-2.316-1.37-2.086-2.555-3.888-3.075-6.384l-0.384-1.849c1.5 1.584 2.987 3.177 4.436 4.808 0.837 0.944 1.669 1.895 2.553 2.796-0.077-0.099-0.154-0.199-0.232-0.297-1.412-2.779-2.8-5.567-3.993-8.448 0.832 0.204 2.023 0.358 2.364 1.286 0.408 1.11 1.067 2.018 1.909 2.859 1.44 1.436 2.972 2.807 4.21 4.42 0.609 0.795 1.052 1.089 1.974 1.488l1.247 0.54c-2.615-3.141-5.175-6.361-7.981-9.333-0.176-0.186-0.074-0.532 0.228-0.767 0.369-0.291 1.136 0.104 2.36 1.215 1.668 1.514 3.364 2.994 5.064 4.473 0.56 0.205 1.118 0.409 1.678 0.615-1.685-1.986-3.309-4.039-5.066-5.962-0.68-0.745-0.658-1.677 0.558-1.257 0.736 0.255 1.367 0.653 1.998 1.095 1.168 0.886 2.104 1.665 3.617 1.341-0.952-0.791-1.812-1.395-2.369-2.507-0.482-0.96 0.209-1.986 1.233-1.23 0.816 0.602 1.453 1.065 2.537 0.757 0.9-0.256 0.902-0.276 0.04-0.932l-0.88-0.671c-1.26-0.964-2.782-0.974-4.35-0.974-1.694 0-3.81-0.302-4.704-0.671-0.894-0.368-2.983-1.003-4.642-1.409-2.709-0.664-5.202-1.426-7.302-3.242-1.959-1.692-4.831-3.572-5.771-6.092-0.167-0.446-0.585-1.176-0.929-1.621-0.614-0.793-1.31-1.492-2.019-2.199-0.471-1.633-1.167-3.157-1.929-4.678-0.754-1.503-1.787-4.294-2.299-6.204-1.76-6.583-2.321-13.612-2.321-20.4 0-6.142-0.022-6.276-1.012-6.276-0.583 0-1.992-0.947-3.311-2.223l-2.296-2.223c-0.791 0-0.88 0.371-0.679 1.187 0.2 0.809 0.519 1.247 1.286 1.456 0.169 0.336 0.338 0.672 0.506 1.009 0.627 0.455 1.255 0.91 1.883 1.366 0.469 1.08 0.989 2.102 0.496 3.289l-0.457 1.097-5.031-4.984-5.033-4.984c0.433 1.527 0.696 3.207 1.856 4.363 1.078 1.076 2.194 1.809 3.021 3.084 0.633 0.459 1.265 0.917 1.897 1.376 0.298 0.855 0.319 1.281-0.812 1.281-0.944 0-1.526-0.306-2.113-0.974-1.757-2.011-3.523-3.991-5.375-5.915l-2.22-2.307c-0.036 0.171-0.073 0.342-0.109 0.512 0.415 0.916 0.832 1.822 1.3 2.712 0.987 0.984 2.105 1.79 2.481 3.146 0.111 0.401 0.855 2.06-0.081 1.894l-0.645-0.113c-1.162-1.331-2.355-2.645-3.428-4.049-1.422-1.858-2.976-3.626-4.568-5.339 0.378 1.249 0.788 2.397 1.353 3.579 0.62 1.292 0.648 1.553 0.187 1.678-0.302 0.082-1.484-0.752-2.63-1.853l-2.082-2.001h-0.467c0.256 1.39 0.544 2.728 0.544 4.144 0 1.016-0.484 1.409-3.457 2.802-1.947 0.912-3.886 1.792-5.878 2.595l-2.96 0.961c-2.345 0.762-3.769 0.92-6.848 0.759-1.934-0.1-3.861-0.184-5.466-1.305-1.046-0.724-1.563-1.658-1.975-2.883-0.415-1.231-0.553-2.136 0.165-3.185 1.148-0.947 2.332-1.862 3.387-2.914 1.451-1.448 3.597-2.406 5.477-3.162 1.415-0.568 1.544-0.546 1.695 0.305 0.2 1.132-0.925 1.877-1.784 2.345-0.504 0.275-0.529 0.298-1.393 1.159-0.782 0.779-1.484 1.136-2.506 1.572-1.289 0.551-2.384 1.283-3.482 2.132 0.641 0.32 1.152 0.349 1.833 0 0.807-0.413 1.544-0.888 2.297-1.389 0.619-0.411 1.224-0.838 1.882-1.182l0.489-0.256c0.741-0.74 1.483-1.478 2.225-2.218 0.982-0.354 1.588-0.824 1.934-1.891l0.436-1.351c0.593-0.621 1.158-1.26 1.682-1.941 0.646-0.841 1.226-1.179 2.182-1.655 1.118-0.558 2.122-1.242 3.101-2.009 1.429-1.135 2.855-2.276 4.272-3.427 0.621-1.242 1.331-2.372 2.18-3.472 0.556-0.75 0.919-1.47 1.815-1.778 1.912-0.662 3.713-1.615 5.805-1.532 3.892 0.153 7.932 0.67 11.699 1.641 1.377 0.356 4.28 0.867 6.452 1.135 2.17 0.268 4.573 0.788 5.34 1.157 0.765 0.368 2.228 0.756 3.25 0.861 1.126 0.116 1.994 0.254 3.018 0.719 0.83 0.377 1.378 0.528 2.288 0.528 0.946 0 1.172 0.283 1.408 1.763 0.377 2.369 1.158 4.65 2.901 6.389 2.396 2.389 4.823 5.048 8.077 6.204 2.65 0.94 5.651 2.392 7.792 4.244 0.639 0.552 1.28 1.035 1.836 1.379 0.636 0.394 1.167 0.801 2.09 1.597 1.965 1.696 3.925 3.399 5.928 5.052 2.105 1.737 5.288 3.905 6.317 6.605 0.355 0.931 1.136 1.035 1.992 1.035 0.929 0.464 1.857 0.927 2.787 1.389h1.588l-1.743-1.82c-1.405-1.469-1.641-1.961-1.219-2.54 0.288-0.394 0.786-0.588 1.104-0.428 0.322 0.159 0.952 0.584 1.403 0.943 0.636 0.505 1.257 1.027 1.876 1.555 0.988 0.844 2.109 0.901 3.329 0.901l-2.417-2.379c-1.329-1.306-2.323-2.566-2.207-2.797 0.116-0.232 0.531-0.308 0.922-0.169 2.56 0.906 5.292 2.738 7.394 4.444 0.676 0.548 1.368 1.04 2.134 1.45l-0.335-0.668-0.336-0.668c-1.152-1.204-2.304-2.408-3.457-3.612 1.25-0.369 2.921-0.093 4.084 0.487 1.337 0.667 2.414 1.227 3.482 2.292 0.69 0.688 1.11 1.108 2.042 1.365 0.48 0.132 0.9 0.255 1.393 0.255-1.395-1.311-2.788-2.621-4.183-3.932 1.167-0.437 2.052-0.635 3.254-0.236 1.104 0.511 2.137 1.043 3.096 1.793 0.258 0.398 0.516 0.795 0.774 1.192l1.254 0.519c0.898 0.373 1.292 0.383 1.386 0.033 0.074-0.268-0.19-0.652-0.586-0.853-0.674-0.344-1.343-1.073-0.942-1.873 0.352-0.703 1.672-0.326 2.312-0.092l0.696 0.256c1.019 1.016 1.843 2.09 3.218 2.553 1.374 0.463 0.634-1.049-4e-3 -1.443-0.248-0.153-0.342-0.5-0.207-0.769 0.197-0.393 0.647-0.343 2.285 0.256l2.042 0.744c0.453 0.431 1.097 1.313 1.414 0.315 0.218-0.69 0.558-0.732 2.667-0.346 3.133 0.576 6.201 0.958 9.384 0.958 5.593 0.265 11.124 0.37 16.716 0h8.192c4.732 0 8.459-0.196 8.823-0.464 1.702-1.251 4.664-1.39 6.666-1.39 2.266 0 4.518-0.113 6.78-0.23 7.795-0.406 15.598-1.159 23.402-1.159 3.473-0.181 7.274-0.848 10.68 0 3.262 0 6.432 0.087 9.682 0.413 3.111 0.312 4.15 0.276 4.264-0.146 0.086-0.31 0.726-0.636 1.424-0.73v-0.462c-0.929 0-2.786-0.463-3.506-0.463-6.796-0.899-13.724-1.853-20.591-1.853-9.732-0.539-19.515-0.771-29.253-0.231-2.483 0.137-4.943 0.231-7.43 0.231-4.962 0.274-9.886 0.464-14.858 0.464-2.786 0.153-5.572 0.308-8.358 0.462-11.156 0-22.292 0.155-33.432-0.462-6.486 0-12.962-0.219-19.416-0.843-5.32-0.515-11.352-0.887-15.565-4.525-5.596-4.832-11.011-9.884-16.792-14.498-1.756-1.401-3.412-2.792-5.436-3.801-1.012-1.009-1.9-2.052-3.179-2.705-1.66-0.85-3.198-1.651-4.608-2.894-2.226-0.752-4.384-1.702-6.744-1.738-0.893-0.012-2.042-0.232-2.553-0.487s-2.183-0.671-3.715-0.927c-1.433-0.237-2.801-0.468-4.178-0.925-1.167-0.388-2.328-0.665-3.531-0.927-4.076-0.882-8.333-0.938-12.489-0.694-2.171 0.128-4.574 0.533-5.34 0.902-0.766 0.368-2.104 0.716-2.974 0.774-1.176 0.076-2.073 0.609-3.506 2.082-1.364 1.404-3.292 4.015-5.666 3.226-0.853-0.284-1.369-0.67-2.058-1.255-1.356-1.148-3.294-2.137-5.114-2.256-0.41-0.027-1.35-0.351-2.09-0.719-0.739-0.368-5.21-1.504-9.935-2.522-3.956-0.854-7.88-1.754-11.888-2.316-2.827-0.396-5.567-1.091-8.311-1.852-1.49-0.403-2.912-0.864-4.458-0.927-0.666-0.027-2.546-0.453-4.179-0.949-1.376-0.419-2.64-0.903-4.077-0.903-0.86 0-1.402-0.125-2.192-0.463zm10.216 70.39l1.344-0.463h-4.13c-1.164 0.297-2.324 0.605-3.483 0.925-2.275 0.63-4.413 1.414-6.5 2.547-1.848 1.005-3.791 1.764-5.756 2.499-0.341 0.033-0.684 0.065-1.025 0.097-1.519 2.193-4.772 2.843-7.15 3.864-0.92 0.395-2.04 0.755-2.488 0.799-1.34 0.13-1.82 2.776-1.381 3.745 0.675 1.489 1.111 3.073 1.617 4.627 0.632 1.934 1.262 3.794 2.95 4.977 0.557 0.391 1.114 0.78 1.67 1.169 0-1.698-1.176-3.477-1.853-5.008l0.58 0.299c1.175 0.604 2.063 1.709 3.013 2.613 1.446 1.375 2.86 2.316 3.48 2.316 1.266 0 0.51-0.765 0.074-1.389-0.464-0.695-0.928-1.389-1.392-2.084-0.47-0.701-0.952-1.392-1.436-2.084l0.146-0.535c0.178-0.649 0.995-0.104 1.338 0.072l2.485 2.366c1.677 1.597 2.74 2.278 3.267 2.097 1.282-0.443-0.23-1.84-0.668-2.379-0.498-0.61-1.114-1.422-1.37-1.804-0.376-0.562-0.921-1.581 0.022-1.906 0.338-0.118 1.585 0.738 2.77 1.901 1.242 1.217 2.243 2.099 3.96 1.797l-1.128-1.265-1.128-1.265-0.224-0.908c-0.316-1.282 0.59-1.25 1.563-0.914 0.577 0.2 1.279 0.82 1.559 1.379 0.28 0.557 0.946 1.123 1.481 1.253 0.913 0.224 0.937 0.154 0.404-1.177l-0.567-1.415 0.134-0.489c0.182-0.669 1.09 0.247 1.369 0.461 0.584 0.448 1.168 0.895 1.752 1.342h1.499l3.226-1.62 3.226-1.622 1.137-0.682c1.177-0.707 1.935-1.52 2.872-2.511 0.671-0.711 1.183-1.544 1.136-1.852-0.049-0.317-0.467-1.141-0.965-1.901-0.939-1.43-1.607-3.004-2.288-4.564-0.415-0.3-0.828-0.6-1.242-0.9-0.91-0.455-1.354-0.27-2.386 4e-3 -1.831 0.486-3.411 1.46-4.996 2.45-0.612 0.382-1.406 0.768-1.764 0.859-1.038 0.263-1.719 1.332-1.719 2.377 0 1.578 1.431 3.31 2.309 4.612 0.5 0.74 0.996 0.874 1.822 1.182l-1.426 0.292c-2.053 0.418-3.669-1.918-4.278-3.687-0.322-0.932-1.098-1.645-1.716-2.388-0.922-1.108-0.551-1.839 0.014-2.967 0.419-0.076 0.694-0.253 1.002-0.56 0.309-0.309 1.702-1.073 4.178-2.292 2.044-1.005 4.32-2.036 5.06-2.29zm7.715 16.748l4.773-2.392h-0.904c-1.53 0-2.806 0.729-4.177 1.38-1.677 0.796-3.364 1.352-5.133 1.909-0.371 0.409-0.742 0.817-1.114 1.225l-9.634 4.804c-8.352 4.166-9.635 4.947-9.635 5.872 0 1.25-0.135 2.479-0.252 3.723-0.301 3.175-5e-3 6.071 1.58 8.84 1.251 0.795 2.267 1.716 3.315 2.761 0.026-0.43 0.052-0.862 0.077-1.293-0.475-0.651-0.931-1.301-1.215-2.063-0.236-0.629-0.506-1.06-1.208-1.921-0.497-0.609-0.854-1.364-0.794-1.675 0.06-0.31 0.384-0.425 0.72-0.254 1.604 0.81 2.909 2.445 4.22 3.665 0.432-0.86-0.052-1.724-0.464-2.545-0.903-1.802-1.816-3.598-2.728-5.394-0.104-0.345-0.207-0.689-0.31-1.034l3.107 3.073c2.487 2.46 3.271 2.991 3.933 2.66 0.739-0.368 0.826-1.765-6e-3 -1.992-1.116-0.304-2.082-2.375-2.082-3.404 0-2.037 1.914-0.075 2.486 0.627 0.834 1.022 1.633 2.072 2.434 3.121 0.363 0.064 0.727 0.128 1.09 0.192 0.822-0.224 0.985-0.453 0.548-1.328-0.632-1.259-1.274-2.513-1.914-3.768-0.104-0.327-0.206-0.655-0.309-0.983 1.493 1.143 2.972 2.306 4.437 3.486 0.508 0.409 2.278 1.088 1.802-0.286-0.35-1.006-1.196-1.778-1.866-2.582-0.625-0.751-0.822-1.33-0.529-1.559 0.255-0.201 0.724-0.161 1.043 0.085 0.318 0.248 1.289 1.084 2.16 1.858 0.945 0.842 1.881 1.304 2.329 1.149 1.091-0.376-0.315-1.784-0.709-2.373-0.328-0.492-0.664-0.979-1.003-1.463-0.412-0.587-0.407-0.873 0.025-1.212 0.395-0.309 1.172 0.141 2.583 1.497 1.109 1.067 2.3 1.863 2.645 1.768 0.599-0.162 0.59-0.208-0.185-0.984-0.448-0.446-0.752-1.06-0.676-1.361 0.077-0.301-0.225-1.009-0.672-1.572-0.564-0.712-0.944-1.42-1.228-2.271-1.415-1.108-1.711-2.412-2.017-4.128h-0.052c0.997-1.989 3.614-2.909 5.509-3.858zm-0.707 20.009l2.075-2.025c-1.3 0-2.255 0.433-3.463 0.925-0.801 0.856-1.365 1.307-2.472 1.763-0.893 0.369-1.494 0.708-1.804 1.016-0.309 0.309-0.85 0.617-1.625 0.926-2.437 0.972-4.316 3.111-6.012 5.06-1.263 1.452-1.368 3.411-0.88 5.176 0.583 2.106 2.256 3.69 3.775 5.136 1.297 1.236 3.21 2.618 5.062 1.994-0.693-0.834-1.386-1.666-2.08-2.499-1.149-1.516-2.381-2.857-3.714-4.216 2.076-0.081 3.517 1.839 5.058 3.011 0.538 0.408 1.588 1.27 2.334 1.916 0.745 0.645 1.68 1.061 2.077 0.925 0.995-0.344 0.073-1.539-0.232-2.148l-0.799-0.399c-1.786-0.889-3.116-2.98-4.369-4.485-0.517-0.621-0.829-1.449-0.695-1.839 0.32-0.924 1.219-0.088 1.732 0.24l3.411 3.295c2.325 2.245 3.653 3.209 4.175 3.029 0.617-0.213 0.765-0.265 0.977-0.878 0.117-0.338-1.343-2.118-3.245-3.956l-3.46-3.342 0.649-0.038c1.059-0.062 1.916 0.849 2.785 1.428 0.93 0.617 1.858 1.234 2.787 1.852 0.472 0.314 0.94 0.633 1.407 0.957 0.478 0.333 2.329 0.497 1.956-0.579-0.536-1.545-2.342-2.913-3.387-4.108-1.007-1.148-2.017-2.289-3.039-3.422-0.74-0.822-1.433-1.608-1.058-2.688zm10.826-21.097c-0.682-1.362-3.32-0.903-4.392-0.355-1.578 0.807-3.062 1.781-4.571 2.707-0.929 0.462-1.857 0.926-2.787 1.389-0.418 0.252-0.837 0.504-1.254 0.755 0.686 0.66 0.993 1.696 1.414 2.534 0.671 1.34 1.338 2.682 1.994 4.028 0.629 1.292 0.765 1.792 0.513 1.878-0.557 0.186-0.036 0.342 0.321 0.606 0.367 0.271 1.011 0.431 1.432 0.358 0.722-0.128 0.719-0.23-0.052-1.766l-0.817-1.63c-0.596-0.46 0.479-0.403 0.939-0.504 1.324-0.294 1.512 0.516 1.872 1.553l0.777 0.564c1.3 0.943 2.741-0.145 3.725-0.943 0.866-0.701 1.278-0.958 1.858-1.157 1.784-0.613 2.585-1.889 3.482-3.401l-0.024-0.048c-0.945-1.886-2.141-3.684-3.202-5.508-0.746-0.203-0.863-0.334-1.228-1.06zm2.048 16.436c-0.948-0.723-2.296-1.474-3.374-0.399-1.685 1.68-3.918 2.995-5.829 4.423-1.316 0.985-2.612 1.989-3.9 3.01l-0.115 0.116-0.116 0.116 2.687 2.568c2.499 2.388 2.773 2.532 3.947 2.06 1.42-0.573 2.8-1.189 4.022-2.129 1.739-1.336 3.107-3.14 4.571-4.767 0.703-0.368 0.977-0.817 0.977-1.669 0-1.48-1.789-2.507-2.87-3.329zm-48.383-37.154c-0.951-0.274-2.24-0.5-2.865-0.5-1.427 0-0.911 1.051-0.25 1.766 1.331 1.438 2.334 3.129 3.5 4.693 0.883 1.185 1.95 2.176 2.994 3.219l0.504 0.053c0.989 0.107 1.714-0.319 2.276-1.089 2.049-2.811-1.678-5.527-3.604-7.008-0.812-0.623-1.564-0.847-2.555-1.134zm51.717 56.643c0-1.207-0.118-1.273-2.553-1.419-1.564-0.094-3.117-0.134-4.52 0.607-0.957 0.507-1.791 1.339-2.629 2.019 0 1.121 1.913 1.653 2.796 1.91 2.597 0.759 6.906 0.507 6.906-3.117zm-51.609-48.244c-1.483-1.623-3.019-3.179-4.575-4.731-0.517 1.422-0.877 2.656-0.462 4.188 0.542 2.006 2.132 3.363 3.458 4.852 0.326 0.366 0.916-0.068 1.231-0.241 0.696-0.423 1.392-0.847 2.088-1.269v-0.896zm-25.785-6.632c-0.647-0.507-1.196-0.415-2.007-0.415-0.955 0.648-1.341 1.394-1.455 2.595-0.15 1.601-1.061 2.468-2.21 3.425 1.236-0.186 2.229-0.502 3.076-1.521 0.681-0.819 1.37-1.632 2.065-2.439 0.757-0.881 0.909-1.349 0.531-1.645zm19.412 6.867l-0.822-1.006c-0.365-0.085-0.73-0.17-1.094-0.256l0.616 2.182c0.632 2.237 2.228 3.661 3.872 5.172 0-1.498-0.756-2.456-1.654-3.6-0.032-0.495-0.065-0.991-0.097-1.486zm-34.812-2.794c0.753-1.501-1.288-0.96-1.906-0.344-1.278 1.276-2.726 2.368-4.154 3.474-0.904 0.7-0.899 0.712 0.232 0.486 2.213-0.441 4.78-1.524 5.828-3.616zm19.822-3.056c-0.321-1.174-2.08-0.11-2.457 0.398-0.344 0.461-0.676 0.908-0.953 1.413-0.28 0.509-0.619 0.951-0.974 1.413-0.63 0.819-0.613 0.902 0.183 0.902 0.481 0 1.655-0.815 2.607-1.81 0.953-0.994 1.669-2.037 1.594-2.316zm4.551 1.564c0.168-0.482-0.111-0.68-0.96-0.68-1.405 0-1.919 1.092-2.611 2.084-0.398 0.571-0.237 0.695 0.907 0.695 1.407 0 2.228-0.84 2.664-2.099zm141.92 37.294c-1.906 0-3.806-0.272-5.702-0.464 0.776 0.848 1.513 1.389 2.749 1.389 1.869 0 3.703-0.252 5.56-0.463l-0.749-0.232c-0.644-0.198-1.182-0.23-1.858-0.23zm-89.694-35.379l-1.314-1.205h-1.061l0.953 1.181c1.206 1.495 2.334 3.037 3.438 4.607 0.804 0 0.017-1.146-0.159-1.69-0.3-0.928-1.137-2.23-1.857-2.893zm-47.499-1.205c-0.216-0.787-2.209-0.563-2.417 0.157-0.24 0.829-0.879 1.168-1.551 1.695h1.54c1.02 0 2.769-0.6 2.428-1.852zm211.02 33.11c-1.028-0.318-1.881-0.284-2.892 0.208-1.306 0.634-2.712 0.466-4.154 0.487 0.822 0.253 1.51 0.463 2.374 0.463 1.818 0 3.646-0.564 5.423-0.926zm-145.89 5.199c0.377-0.867 0.487-1.464 0.287-1.564-0.571-0.284-0.915 0.537-1.284 0.973-0.528 0.624-0.894 1.514-0.811 1.975 0.164 0.927 0.744 0.375 1.197 0.019zm-3.251-22.588l-0.844-0.903h-0.586c0.504 0.727 0.95 1.431 1.346 2.223 0.423 0.841 0.906 1.588 1.44 2.36v-1.101c0-1.276-0.54-1.707-1.356-2.579zm-5.858 31.079c0.557-0.411 0.517-0.53-0.239-0.723-0.701-0.18-2.868 0.517-1.339 0.955 0.502 0.142 1.211 0.038 1.578-0.232z" fill="#2c2629" fill-rule="evenodd" transform="translate(-332.51 -534.6)"/></g></svg>