<?xml version="1.0" encoding="UTF-8"?><svg xmlns="http://www.w3.org/2000/svg" xmlns:xlink="http://www.w3.org/1999/xlink" height="348.5" preserveAspectRatio="xMidYMid meet" version="1.0" viewBox="14.5 30.5 189.0 348.5" width="189.0" zoomAndPan="magnify"><g fill-rule="evenodd" id="change1_1" stroke-width="0"><path d="m68.5 31q3.5-0.5 40.75 0.25l37.25 0.75 0.5 5.5q0.5 5.5 0.25 10l-0.25 4.5 7.75 1.5q7.75 1.5 7.75 3v1.5l-3.25 2.25q-3.25 2.25-7.75 2l-4.5-0.25 0.5 10.25 0.5 10.25 6.75 0.25 6.75 0.25-2.5 6.5q-2.5 6.5-4.75 7.25t-4 2l-1.75 1.25 1.75 3.25q1.75 3.25 4 6t13.75 38.75 23.5 75 9.5 59.5-10.75 34.75-20 24-17.5 13-14.75 5.5l-9 2.25-1.5 1.75q-1.5 1.75-7.25 6t-7.5 6.5-4.25 2.5l-2.5 0.25-3.5-6.75-3.5-6.75-22.5-9.5q-22.5-9.5-33.75-20.75t-18.25-25.25-8.5-29.5 4.5-37 13-40.5 13.25-37.75 8-24 8-22.25l6.25-17-7.75-4q-7.75-4-8.5-9l-0.75-5 7-0.5 7-0.5-0.5-8.75-0.5-8.75-4-0.5q-4-0.5-6.75-2.75l-2.75-2.25 2.5-2.5q2.5-2.5 6.25-3l3.75-0.5 0.5-11.25 0.5-11.25 3.5-0.5zm58.75 71.5q6.25-0.5 6.5-0.25t5.75 0.75l5.5 0.5 3.75 5.25q3.75 5.25 7.25 16.25t13.5 42.5 14.5 45 9.5 30.5 5.5 18.5-1 18-5.75 26.75-12.75 20.75-20.5 18-28.75 14.75-18.75 10.75l-2 3.5-6.25-6.75q-6.25-6.75-21.25-11.75t-26.75-13.25-15-12.5-8.5-12.5-8.25-18.25-3.5-22.5 11-50 14.5-46.5 8.5-24.5 12.75-33.75 13.25-18.5l6-0.25-3.75 28q-3.75 28-8.75 51.5t-11 42.5-9 31 0 26 9.75 22.75 11.25 12.25 9 6l4.5 2.5h20.5q20.5 0 29-3.5t15.25-11.25 8.75-8.75 3.75 2 0.25 5.25-5.5 6.25 0.25 4.25 5.75 1.25-0.25-1.75-1.75-3.75 3.25-0.75 4-3.75 2.75-4 2.5-3-0.5-4.25-2.75-2.5l-1.75-1.25 3.5-0.5q3.5-0.5 4.5 1t1.25 7l0.25 5.5h1q1 0 2-3.5t2-3.5 2.25-4 1.75-4.5l0.5-0.5-2-11.5-2-11.5 1-1.5q1-1.5 1.75-3.5t0.5-4l-0.25-2-2-5q-2-5-4.75-6.75l-2.75-1.75 0.75-2.75q0.75-2.75-0.5-4.5t-0.25-3.5 1-2.75-0.5-3-2.5-3.25-4.75-2l-2.75-0.75-0.25-0.25q-0.25-0.25 1.75-2.75t3-3.75-1-2-3-2.75-0.25-3.75 2-4.25 0.25-4.5-1-3-4.25-2.5-1.25-3l3-1.5-1.25-0.25q-1.25-0.25-6.5 0.5t-3.5 2 1.25 3.75-2 1.5-1.25 1.25 3 7 5.75 6.25l3 1.5h-3q-3 0-7.25-3.25l-4.25-3.25 6.75 9.75q6.75 9.75 0 4t-9.25-11.25-12-37-11.75-43.25-0.25-13l2-1.25-3-1.75q-3-1.75-2.5-4.25t-1-3.75l-1.5-1.25 6.25-0.5zm-22.75 0.75l8.5-0.25v1q0 1-4.5 1.75l-4.5 0.75 1.75 1.75q1.75 1.75 2 2.5t4 1.5 4 1.75 1.25 2.25 1.5 2.5 1 2.25-0.5 2.75-4 3.25l-3 1.5 5.25 0.25q5.25 0.25 5 1.5t0.75 2.5 5.75 17.25 9.25 31.5 9.25 32.25 4 18l-0.75 1.25 4.5 4q4.5 4 3.5 6t-3 0.5l-2-1.5 1 2q1 2 4.5 6.5t2 5-3.75-1l-2.25-1.5 2.25 3q2.25 3 4.75 6t1 4.5-1.25 2.75 1.5 2.5 0 3-3.75 0.75l-2.5-1 3.25 4.25q3.25 4.25 1.75 5.25t-3.25 0-0.25 1.25 1.75 2.5-1.25 2.25-1.5 3.5-0.75 3.75-1.75 2-2 3.75-2.75 5.5-8.5 6.75-12.25 7.25-11.75 1.75l-6.25-0.25 1.25-1.75q1.25-1.75 5.5-5t8.75-10.25 5.5-9.5-0.5-13-5.25-15.25-8.75-6.75-13-0.5-11.75 4.25-6.25 7.25-3.5 7.5 0.5 15 7.25 19.5l5.75 7.5-8-2.75q-8-2.75-13-6.25t-7-5.5-5.75-7.75-5.75-12.25-2.5-11.5 2-17 6-22.5 9-29.5 10-46 7.5-38 4.75-15.75 10.25-5zm-47.25-45.75l1.25-0.5 1.25 0.25q1.25 0.25 1.75 0.25t3 0.25 2.5 1.75-5.25 1-5.5-1.5 1-1.5zm0.25 32v-2.5 5-2.5zm30.25-3.75q13.75-0.75 14.5-0.5t4.75 0.25 5.5-0.25 1.75 2.75l0.25 3 0.25 0.25q0.25 0.25-5.75 0.75t-12 0-9 0-11 0.75-8-2-1-2.5-0.5 1.5-1.5 2-2-2-0.75-2-0.5 2.25-0.75 2-1-3v-3l6.5 0.25q6.5 0.25 20.25-0.5zm-15.5-33.5l0.25-0.25 0.25 15.5q0.25 15.5-1 15l-1.25-0.5 0.5-11q0.5-11 0.75-14.75t0.5-4zm0.25-9.75v-1.5 3-1.5zm3.25 26l0.75-14.5 0.25 14.5 0.25 14.5h-1q-1 0-0.25-14.5zm6.25-33q1 0 1.25 0.25t0.25 19.75 0 20-0.25 4.25-1.75 3.75h-1.5l-0.25-0.25q-0.25-0.25-0.25-20.25t0.75-21.25l0.75-1.25-0.25-0.25q-0.25-0.25 0-2.5l0.25-2.25h1zm7.25 64.25q-1.75-0.75 0 0l1.75 0.75-1.75-0.75zm19.75 164.75q3 0 6 1l3 1 2.75 2.25q2.75 2.25 5.25 6.75t3 11-1.5 12-4.5 9-7.75 7.75-6.25 4.75-3.5 0.5h-2.5l-3.25-2.25q-3.25-2.25-6.25-6.75t-4-6.5-2-8-0.5-8.5 1-5.5 2.5-7 5.75-6.75 5-3.5l1.25-0.75 1.25 0.25q1.25 0.25 1.75-0.25t3.5-0.5zm-19.5-230q1.5 0 6.25 0.75t5 24l0.25 23.25-3 0.5q-3 0.5-7 0.25l-4-0.25 0.5-24.25 0.5-24.25h1.5zm16.75-0.25l0.25-0.25 0.5 6q0.5 6 0.75 24.5t-1.75 18.5-2.25-3.5l-0.25-3.5v-0.5q0-0.5 1.25-20.75t1.5-20.5zm4.5 20.75l0.25-20h1q1 0 1 24v24l-1.25-0.5q-1.25-0.5-1.25-4t0.25-23.5zm5 0.5l0.25-21.5h1q1 0 0.75 1t-0.25 18.5-0.25 23.5l-0.25 6h-1q-1 0-0.75-3t0.5-24.5zm-0.5 48l0.25-1.5 0.75 1.25q0.75 1.25-0.25 1.5t-0.75-1.25zm1-16q-0.25-2.5 1-2t0.75 3.5l-0.5 3-0.5-1q-0.5-1-0.75-3.5zm3.75-44q0.5-3.5 1 0t0 21l-0.5 17.5-0.5-1.5q-0.5-1.5-0.5-2t0-16v-15.5l0.5-3.5zm1 45q0-3.5 1.25-3t1 3.5-1.25 3h-1v-3.5zm5-0.5l0.5-3 0.25 3.25q0.25 3.25 0 3.5l-0.25 0.25-0.5-0.5q-0.5-0.5 0-3.5zm3.25-25.75l0.25-0.25-0.75 2.25q-0.75 2.25-1 2.5t0.5-2 1-2.5zm0.5 26.75q-0.75-3 0.25-3t0.75 3l-0.25 3-0.75-3zm3.75-1.5q0-2.5 0.5-2t0.5 3v2.5l-0.5-0.5q-0.5-0.5-0.5-3zm7.5-29.25q1-0.25 0.25 2.75l-0.75 3-0.25-2.75q-0.25-2.75 0.75-3zm0.25 28l0.25-0.25 0.25 2.25q0.25 2.25 0 2.5l-0.25 0.25-0.25-2.25q-0.25-2.25 0-2.5zm1.75-9.75v-3.5h1q1 0 0.75 2t0 3.5-0.75 1.5h-1v-3.5zm7.5-21q5.5 0 5.75 0.25l0.25 0.25 0.25 1.5 0.25 1.5-4.5 0.25-4.5 0.25-2-1.5q-2-1.5-1.5-2t6-0.5zm4.25 165.5q-0.75-3 0.5-2.5t1.5 1.5 2.25 2.25 5 4.25 3.25 3.75 0 2.25 2 2 2 1.75-2 0.5l-1.75-0.75-2-2q-2-2-6-6l-4-4-0.75-3zm4.5-22q-0.25-1 2.75-1t3.25 1.5l0.25 1.5-0.25 0.25q-0.25 0.25-3-0.5t-3-1.75zm1.25 36q-1-4 1.5-2t3 3.5l0.5 1.5 2 1.5q2 1.5 2.25 2.5t-1.25 1.25-3 0-2.75-2.25-2.25-6zm3 58.5q1-1.5 3 0.5t3.25 3.75 0.25 2.25-3.25 0.25l-2.25-0.25-1-2.5q-1-2.5 0-4zm0.25-47q-0.75-2.5 0.5-2t2.5 3l1.25 2.5-1.75-0.5q-1.75-0.5-2.5-3zm0.5-42.5l-0.25-1 2.25 1q2.25 1 2.5 2l0.25 1-2.25-1q-2.25-1-2.5-2zm2.5 11.75q1.75-0.75 2.75 1.25t0.75 2.25-1.75 0.5-2.5-1.5l-1-1.75 1.75-0.75zm-0.75 69.25q0.5-1 3.5 2.5t2.75 4.75-2.25 1.5-2.75-1.25l-0.75-1.5-0.5-2.5q-0.5-2.5 0-3.5zm1.5 23.5q1.5 0 1.75 0.25l0.25 0.25-0.25 1.25q-0.25 1.25-2 1l-1.75-0.25 0.25-1.25q0.25-1.25 1.75-1.25zm-1-55.25q-0.5-1.25 2.75-0.25t4 1.75-2.75 0.25l-3.5-0.5-0.5-1.25zm-0.25 5.75q-0.25-2 1.5-1t2 3.25 2.25 2.5 2.5 2.5-1.75 1.5-3-1.5l-0.75-0.75-1.25-2.25q-1.25-2.25-1.5-4.25zm1.5 11q0.25-2 1.25-2t2 1.75 3.75 1.5 2 1-2.75 1.25h-2l-0.5 0.5q-0.5 0.5 1.5 0.75t2 1.25 2.25 0.5 3.25-0.5 1.25-0.25 1.75-0.5l1.5-0.25v2q0 2-6.5 1.75t-8.75-3.5-2-5.25zm-0.5 9.5q-0.25-2.5 1-2t3 4.25 0.25 3.25l-1.5-0.5-1.25-1.25q-1.25-1.25-1.5-3.75zm3.5 22.25q1.75-0.75 3-0.25t0.75 2.25-3 2l-2.5 0.25v-1.75q0-1.75 1.75-2.5zm-1.5-73.75l-0.25-1 1.75 1q1.75 1 1 2.25t-1.5 0-1-2.25zm0.5 18.5l-0.75-1.5 2.25 1q2.25 1 2.5 2.25t-1.5 0.5-2.5-2.25zm1.75-5.5l-0.5-2 2.25 1q2.25 1 2 1.75t-1.75 1-2-1.75zm2 16.5q1.5 0 2.25 1.25t1 2.25l0.25 1-2.25-1q-2.25-1-2.5-2.25t1.25-1.25zm0.75 29.75q0.25-0.25 1.25 0.75t1.25 2.5l0.25 1.5-1.25-0.5q-1.25-0.5-1.5-2.25t0-2zm0-51.75l0.25-1.5 0.75 1.5q0.75 1.5-0.25 1.5t-0.75-1.5zm0.25 17v-1.5l1.5 1q1.5 1 1.75 2t-1.5 0.5-1.75-2zm0.75-6q-0.25-1.5 1.25-1.5t2 2.5l0.5 2.5-1.75-1q-1.75-1-2-2.5zm0 36q-0.25-1.5 1.75-1.5t3 1.75l1 1.75-1.5 0.5q-1.5 0.5-2.75-0.25t-1.5-2.25zm1-17q-0.25-1.5 1.5-1t2.5 1.75l0.75 1.25-2.25-0.25q-2.25-0.25-2.5-1.75zm1.75-25l-0.5-1.5 0.5 1.5 0.5 1.5-0.5-1.5zm0.75 19l-0.25-2.5 1 1.5q1 1.5 1.25 2.5t-0.75 1-1.25-2.5zm1-6l-0.75-1.5 2.25 1q2.25 1 0.75 1.5t-2.25-1zm2.25 16.75l2-0.25-0.5 1.25q-0.5 1.25-2.25 0.5t-1.5-1 2.25-0.5zm1-6.75q1 0 2 0.25l1 0.25-0.5 1.75q-0.5 1.75-1.75 1.5t-1.5-2 0.75-1.75zm-1-4.5q0-2 2-2t2.5 1.25l0.5 1.25-2.5 0.75q-2.5 0.75-2.5-1.25z" fill="inherit"/><path d="m38 302l0.5-3 0.5 1q0.5 1 0 3.5l-0.5 2.5-0.5-0.5q-0.5-0.5 0-3.5z" fill="inherit"/><path d="m43 304.5q0.5-4.5 1.5 2.5t0 7-1.5-2.5l-0.5-2.5 0.5-4.5z" fill="inherit"/><path d="m48.5 312v-5l0.5 0.5q0.5 0.5 0.5 4.5v4l0.5 3.5q0.5 3.5 0 3t-1-3-0.5-7.5z" fill="inherit"/><path d="m53.5 316q0-3 0.5-2.5t1 7 0 5.5-1-4l-0.5-3v-3z" fill="inherit"/><path d="m59.75 326q-1.75-8-0.75-8t1.25 2.5l0.25 2.5 0.5 1.5q0.5 1.5 0.5 5.5v4l-1.75-8z" fill="inherit"/><path d="m65.5 324.5q0-3.5 0.5-3t1 4.5l0.5 4 1 2.5q1 2.5 0.5 3.5t-2-3.5-1.5-8z" fill="inherit"/><path d="m75 108.25q1-0.25-1.25 5.75t-3.5 11.5-2.25 5.5-0.75-2l0.25-2 0.5-1.5 0.5-1.5 2.5-7.5q2.5-7.5 2.75-7.75l0.25-0.25 1-0.25z" fill="inherit"/><path d="m76.75 109q0.25-2 1.25-2t-0.25 5-4.25 16l-3 11-0.25 1q-0.25 1-1.25 1t2.25-12.5 4.25-15l1-2.5 0.25-2z" fill="inherit"/><path d="m72 328q0.5-3 1-2.5t1.75 4.75 2.25 6.25-0.75 1.25-2.75-2.75l-1-2-0.5-1q-0.5-1 0-4z" fill="inherit"/><path d="m73 89v-1h1q1 0 1 1v1h-1q-1 0-1-1z" fill="inherit"/><path d="m79 328.5q0.5-0.5 1.5 1.5t3 6 2.5 4.5 0.75 2-1 1-2.75-3.5l-1.5-3-1.5-4q-1.5-4-1-4.5z" fill="inherit"/><path d="m87 330.5q0.5-0.5 1 0t2 4 2.75 6 0.25 2.5-1-1-1.25-1.5-1.75-1.5l-0.5-1-1-3.5q-1-3.5-0.5-4z" fill="inherit"/><path d="m93.75 334.5q-0.75-2.5 0.5-2t2.5 3.75l1.25 3.25 1 1.75q1 1.75-1 0.5t-2.75-3-1.5-4.25z" fill="inherit"/><path d="m100.25 336q-0.25-2 0.75-2t2.5 3.75l1.5 3.75 2 2.75q2 2.75 0 1.5t-4.25-4.5-2.5-5.25z" fill="inherit"/><path d="m101.25 88l-0.25-1 1.25 1q1.25 1 0.25 1t-1.25-1z" fill="inherit"/><path d="m115.25 334.25q0.25-0.25 3.75 3.75t2.75 6.25-1.25 2.75-2 0.75-1-1 1.5-1.5 0.5-2-5.5-1.5-5.5-3 0.25-3 1.25 1.75l0.5 1.5 1.75 0.75q1.75 0.75 2 0.5t0.5-3 0.5-3z" fill="inherit"/><path d="m108.75 88.5q-0.75-1.5 0.25-1.5t0.75 1.5l-0.25 1.5-0.75-1.5z" fill="inherit"/><path d="m117 144q5-0.5 5.5 0t-3.5 1.5l-4 1-2.5-0.5q-2.5-0.5-1.5-1t6-1z" fill="inherit"/><path d="m114.5 138.75q3.5-0.25 4.5-0.25h1l1.5-0.25q1.5-0.25 1.5 0.75t-6 1.5-6-0.5v-1l3.5-0.25z" fill="inherit"/><path d="m118 150.75q5-0.25 5.5 0.25t-3.5 1.5l-4 1-1.5 0.25q-1.5 0.25-1.5-1.25t5-1.75z" fill="inherit"/><path d="m119.25 156.5q4.25-0.5 4.5 1t-4.25 2-4.5-1v-1.5l4.25-0.5z" fill="inherit"/><path d="m120 162.5q1 0 2.25 0.25t1 1-2.75 1l-2.5 0.25 0.5-1.25q0.5-1.25 1.5-1.25z" fill="inherit"/><path d="m119.25 169l-0.25-1h2q2 0 2 1.5t-1.75 1-2-1.5z" fill="inherit"/><path d="m123.5 336.5q-1.5-3.5-0.25-3t1.5 1.5 2 1 1.75 0.5-0.25 2l-0.25 1.5h-1.5q-1.5 0-3-3.5z" fill="inherit"/><path d="m131 330.5q0.5-0.5 3.25 1.25t3.75 1.5 1 0.75-1 1-1 1.5-1.75 2-3.25 3-2.75 4.25-2.25 2-0.5-1.5l0.5-1.75 2.75-3.75q2.75-3.75 2.75-4.75v-1l-1-2q-1-2-0.5-2.5z" fill="inherit"/><path d="m131.75 106.5q0.75-1.5 1-1.25l0.25 0.25 5.5 0.25q5.5 0.25 5.5 1.25v1h-6.5q-6.5 0-5.75-1.5z" fill="inherit"/><path d="m135.5 110.5h1.5l4 1q4 1-1.75 0.25t-5.5-1 1.75-0.25z" fill="inherit"/><path d="m140 330.5q-0.5-3.5 1.25-1.25t3.25 2.75l1.5 0.5 1.75 0.75q1.75 0.75 0 4t-2.5 3 0-2.75-1-2-4 4-3.75 3.5h-1.5v-1q0-1 1.75-2t2.75-3.5 0.5-6z" fill="inherit"/><path d="m142 116q4-0.5 4.5 0.75t-4 1.5l-4.5 0.25v-1q0-1 4-1.5z" fill="inherit"/><path d="m145.5 120.5q2.5 0 3 1t-5 0.5-3-1l2.5-0.5h2.5z" fill="inherit"/><path d="m142 125.5q1 0 1.5 0h0.5l4.5 0.5q4.5 0.5-1.5 1t-6-0.5 1-1z" fill="inherit"/><path d="m146 130.5q1 0 1.5 0t3.25 0.75 2.5 1-6.25 0.5-6-0.75 2-1.25l2-0.25h1z" fill="inherit"/><path d="m149 135.25q5-0.25 5 0.75t-4.25 1.5l-4.25 0.5-0.75-1.25q-0.75-1.25 4.25-1.5z" fill="inherit"/><path d="m150.5 140.5q4.5 0 5 1.25t-2.5 1-6 0-3-0.75v-1l1-0.25q1-0.25 5.5-0.25z" fill="inherit"/><path d="m144.75 326q-0.75-2 1.25-0.75t4 1.75 4 0.25 2.25 2.25-0.25 3.5-1.25-1.5-1.75-2.25l-1 0.25-3.25-0.75q-3.25-0.75-4-2.75z" fill="inherit"/><path d="m145 152q0-1 7.5-0.25l7.5 0.75-1 0.5q-1 0.5-6 0.5h-5.5q-0.5 0-1.5-0.25t-1-1.25z" fill="inherit"/><path d="m146.75 146.5q0.75-1.5 1-1.25t3.75 0.25h3.5l2 0.25q2 0.25 2 1.25t-6.5 1-5.75-1.5z" fill="inherit"/><path d="m147 157.5q0-1.5 7-1t7 1.5-4.5 1.25l-4.5 0.25-2.5-0.25q-2.5-0.25-2.5-1.75z" fill="inherit"/><path d="m156.5 168.5q7.5-0.5 7.5 0.5t-2.5 1.5-1.5 2.25 3.5 2 2.5 1.25-1.5 1-1 2 2.5 2.5 2 1.5-6 1.5-6-0.5 3-2.25 2.75-1.5l-0.25-0.25-1.25-1.25q-1.25-1.25-3.75-1t-2.5-0.75 2-1 0.75-2.5-1.5-2.25-3.25 0-3-1.25v-1l7.5-0.5z" fill="inherit"/><path d="m151.75 320.75q0.75-1.75 2-0.5t4.5 1.5 3.25 0.75-0.25 4.25-1 3.5-1.5-3l-0.75-2.75-3.5-1q-3.5-1-2.75-2.75z" fill="inherit"/><path d="m151.25 164q-0.25-1 5.75-1h6v1q0 1-4.5 1.25l-4.5 0.25-1.25-0.25q-1.25-0.25-1.5-1.25z" fill="inherit"/><path d="m157.5 312v-1 2-1z" fill="inherit"/></g></svg>